# Blender 4.0.2
# www.blender.org
mtllib tank_2.mtl
o Cylinder
v 0.000000 -1.059571 -1.634598
v 0.000000 0.250037 -1.634598
v 0.318894 -1.059571 -1.603190
v 0.318894 0.250037 -1.603190
v 0.625534 -1.059571 -1.510172
v 0.625534 0.250037 -1.510172
v 0.908134 -1.059571 -1.359119
v 0.908134 0.250037 -1.359119
v 1.155836 -1.059571 -1.155836
v 1.155836 0.250037 -1.155836
v 1.359119 -1.059571 -0.908134
v 1.359119 0.250037 -0.908134
v 1.510172 -1.059571 -0.625534
v 1.510172 0.250037 -0.625534
v 1.603190 -1.059571 -0.318894
v 1.603190 0.250037 -0.318894
v 1.634598 -1.059571 0.000000
v 1.634598 0.250037 -0.000000
v 1.603190 -1.059571 0.318894
v 1.603190 0.250037 0.318894
v 1.510172 -1.059571 0.625534
v 1.510172 0.250037 0.625534
v 1.359119 -1.059571 0.908134
v 1.359119 0.250037 0.908134
v 1.155836 -1.059571 1.155836
v 1.155836 0.250037 1.155836
v 0.908134 -1.059571 1.359119
v 0.908134 0.250037 1.359119
v 0.625534 -1.059571 1.510172
v 0.625534 0.250037 1.510172
v 0.318894 -1.059571 1.603190
v 0.318894 0.250037 1.603190
v 0.000000 -1.059571 1.634598
v 0.000000 0.250037 1.634598
v -0.318894 -1.059571 1.603190
v -0.318894 0.250037 1.603190
v -0.625534 -1.059571 1.510172
v -0.625534 0.250037 1.510172
v -0.908134 -1.059571 1.359119
v -0.908134 0.250037 1.359119
v -1.155836 -1.059571 1.155836
v -1.155836 0.250037 1.155836
v -1.359119 -1.059571 0.908134
v -1.359119 0.250037 0.908134
v -1.510172 -1.059571 0.625534
v -1.510172 0.250037 0.625534
v -1.603190 -1.059571 0.318894
v -1.603190 0.250037 0.318894
v -1.634598 -1.059571 0.000000
v -1.634598 0.250037 -0.000000
v -1.603190 -1.059571 -0.318894
v -1.603190 0.250037 -0.318894
v -1.510172 -1.059571 -0.625534
v -1.510172 0.250037 -0.625534
v -1.359119 -1.059571 -0.908134
v -1.359119 0.250037 -0.908134
v -1.155836 -1.059571 -1.155836
v -1.155836 0.250037 -1.155836
v -0.908134 -1.059571 -1.359119
v -0.908134 0.250037 -1.359119
v -0.625534 -1.059571 -1.510172
v -0.625534 0.250037 -1.510172
v -0.318894 -1.059571 -1.603190
v -0.318894 0.250037 -1.603190
v 0.280812 0.250037 -1.411737
v 0.000000 0.250037 -1.439395
v 0.550833 0.250037 -1.329828
v 0.799685 0.250037 -1.196813
v 1.017806 0.250037 -1.017806
v 1.196813 0.250037 -0.799685
v 1.329828 0.250037 -0.550833
v 1.411737 0.250037 -0.280812
v 1.439395 0.250037 -0.000000
v 1.411737 0.250037 0.280812
v 1.329828 0.250037 0.550833
v 1.196813 0.250037 0.799685
v 1.017806 0.250037 1.017806
v 0.799685 0.250037 1.196813
v 0.550833 0.250037 1.329828
v 0.280812 0.250037 1.411737
v 0.000000 0.250037 1.439395
v -0.280812 0.250037 1.411737
v -0.550833 0.250037 1.329828
v -0.799685 0.250037 1.196813
v -1.017806 0.250037 1.017806
v -1.196813 0.250037 0.799685
v -1.329828 0.250037 0.550833
v -1.411737 0.250037 0.280812
v -1.439395 0.250037 -0.000000
v -1.411737 0.250037 -0.280812
v -1.329828 0.250037 -0.550833
v -1.196813 0.250037 -0.799685
v -1.017806 0.250037 -1.017806
v -0.799685 0.250037 -1.196813
v -0.550833 0.250037 -1.329828
v -0.280812 0.250037 -1.411737
v 0.280812 0.137863 -1.411737
v 0.000000 0.137863 -1.439395
v 0.550833 0.137863 -1.329828
v 0.799685 0.137863 -1.196813
v 1.017806 0.137863 -1.017806
v 1.196813 0.137863 -0.799685
v 1.329828 0.137863 -0.550833
v 1.411737 0.137863 -0.280812
v 1.439395 0.137863 -0.000000
v 1.411737 0.137863 0.280812
v 1.329828 0.137863 0.550833
v 1.196813 0.137863 0.799685
v 1.017806 0.137863 1.017806
v 0.799685 0.137863 1.196813
v 0.550833 0.137863 1.329828
v 0.280812 0.137863 1.411737
v 0.000000 0.137863 1.439395
v -0.280812 0.137863 1.411737
v -0.550833 0.137863 1.329828
v -0.799685 0.137863 1.196813
v -1.017806 0.137863 1.017806
v -1.196813 0.137863 0.799685
v -1.329828 0.137863 0.550833
v -1.411737 0.137863 0.280812
v -1.439395 0.137863 -0.000000
v -1.411737 0.137863 -0.280812
v -1.329828 0.137863 -0.550833
v -1.196813 0.137863 -0.799685
v -1.017806 0.137863 -1.017806
v -0.799685 0.137863 -1.196813
v -0.550833 0.137863 -1.329828
v -0.280812 0.137863 -1.411737
v 0.074637 0.137863 -0.375223
v 0.000000 0.137863 -0.382574
v 0.146405 0.137863 -0.353453
v 0.212547 0.137863 -0.318099
v 0.270521 0.137863 -0.270521
v 0.318099 0.137863 -0.212547
v 0.353453 0.137863 -0.146405
v 0.375223 0.137863 -0.074637
v 0.382574 0.137863 -0.000000
v 0.375223 0.137863 0.074637
v 0.353453 0.137863 0.146405
v 0.318099 0.137863 0.212547
v 0.270521 0.137863 0.270521
v 0.212547 0.137863 0.318099
v 0.146405 0.137863 0.353453
v 0.074637 0.137863 0.375223
v 0.000000 0.137863 0.382574
v -0.074637 0.137863 0.375223
v -0.146405 0.137863 0.353453
v -0.212547 0.137863 0.318099
v -0.270521 0.137863 0.270521
v -0.318099 0.137863 0.212547
v -0.353453 0.137863 0.146405
v -0.375223 0.137863 0.074637
v -0.382574 0.137863 -0.000000
v -0.375223 0.137863 -0.074637
v -0.353453 0.137863 -0.146405
v -0.318099 0.137863 -0.212547
v -0.270521 0.137863 -0.270521
v -0.212547 0.137863 -0.318099
v -0.146405 0.137863 -0.353453
v -0.074637 0.137863 -0.375223
v 0.074637 0.486814 -0.375223
v 0.000000 0.486814 -0.382574
v 0.146405 0.486814 -0.353453
v 0.212547 0.486814 -0.318099
v 0.270521 0.486814 -0.270521
v 0.318099 0.486814 -0.212547
v 0.353453 0.486814 -0.146405
v 0.375223 0.486814 -0.074637
v 0.382574 0.486814 -0.000000
v 0.375223 0.486814 0.074637
v 0.353453 0.486814 0.146405
v 0.318099 0.486814 0.212547
v 0.270521 0.486814 0.270521
v 0.212547 0.486814 0.318099
v 0.146405 0.486814 0.353453
v 0.074637 0.486814 0.375223
v 0.000000 0.486814 0.382574
v -0.074637 0.486814 0.375223
v -0.146405 0.486814 0.353453
v -0.212547 0.486814 0.318099
v -0.270521 0.486814 0.270521
v -0.318099 0.486814 0.212547
v -0.353453 0.486814 0.146405
v -0.375223 0.486814 0.074637
v -0.382574 0.486814 -0.000000
v -0.375223 0.486814 -0.074637
v -0.353453 0.486814 -0.146405
v -0.318099 0.486814 -0.212547
v -0.270521 0.486814 -0.270521
v -0.212547 0.486814 -0.318099
v -0.146405 0.486814 -0.353453
v -0.074637 0.486814 -0.375223
vn 0.0980 -0.0000 -0.9952
vn 0.2903 -0.0000 -0.9569
vn 0.4714 -0.0000 -0.8819
vn 0.6344 -0.0000 -0.7730
vn 0.7730 -0.0000 -0.6344
vn 0.8819 -0.0000 -0.4714
vn 0.9569 -0.0000 -0.2903
vn 0.9952 -0.0000 -0.0980
vn 0.9952 -0.0000 0.0980
vn 0.9569 -0.0000 0.2903
vn 0.8819 -0.0000 0.4714
vn 0.7730 -0.0000 0.6344
vn 0.6344 -0.0000 0.7730
vn 0.4714 -0.0000 0.8819
vn 0.2903 -0.0000 0.9569
vn 0.0980 -0.0000 0.9952
vn -0.0980 -0.0000 0.9952
vn -0.2903 -0.0000 0.9569
vn -0.4714 -0.0000 0.8819
vn -0.6344 -0.0000 0.7730
vn -0.7730 -0.0000 0.6344
vn -0.8819 -0.0000 0.4714
vn -0.9569 -0.0000 0.2903
vn -0.9952 -0.0000 0.0980
vn -0.9952 -0.0000 -0.0980
vn -0.9569 -0.0000 -0.2903
vn -0.8819 -0.0000 -0.4714
vn -0.7730 -0.0000 -0.6344
vn -0.6344 -0.0000 -0.7730
vn -0.4714 -0.0000 -0.8819
vn -0.0000 1.0000 -0.0000
vn -0.2903 -0.0000 -0.9569
vn -0.0980 -0.0000 -0.9952
vn -0.0000 -1.0000 -0.0000
vt 0.595310 0.537791
vt 0.444936 0.537791
vt 0.444936 0.500997
vt 0.595310 0.500997
vt 0.444936 0.464910
vt 0.595310 0.464910
vt 0.444936 0.430917
vt 0.595310 0.430917
vt 0.444936 0.400324
vt 0.595310 0.400324
vt 0.793260 0.664480
vt 0.642886 0.664480
vt 0.642886 0.638463
vt 0.793260 0.638463
vt 0.642886 0.607870
vt 0.793260 0.607870
vt 0.642886 0.573877
vt 0.793260 0.573877
vt 0.642886 0.537791
vt 0.793260 0.537791
vt 0.642886 0.500997
vt 0.793260 0.500997
vt 0.642886 0.464910
vt 0.793260 0.464910
vt 0.642886 0.430917
vt 0.793260 0.430917
vt 0.642886 0.400324
vt 0.793260 0.400324
vt 0.821473 0.023788
vt 0.971847 0.023788
vt 0.971847 0.049805
vt 0.821473 0.049805
vt 0.971847 0.080398
vt 0.821473 0.080398
vt 0.971847 0.114391
vt 0.821473 0.114391
vt 0.971847 0.150478
vt 0.821473 0.150478
vt 0.971847 0.187271
vt 0.821473 0.187271
vt 0.971847 0.223358
vt 0.821473 0.223358
vt 0.971847 0.257351
vt 0.821473 0.257351
vt 0.971847 0.287944
vt 0.821473 0.287944
vt 0.444936 0.712056
vt 0.595310 0.712056
vt 0.595310 0.738073
vt 0.444936 0.738073
vt 0.595310 0.768666
vt 0.444936 0.768666
vt 0.595310 0.802659
vt 0.444936 0.802659
vt 0.595310 0.838746
vt 0.444936 0.838746
vt 0.595310 0.875539
vt 0.444936 0.875539
vt 0.595310 0.911626
vt 0.444936 0.911626
vt 0.595310 0.945619
vt 0.444936 0.945619
vt 0.595310 0.976212
vt 0.444936 0.976212
vt 0.595310 0.664480
vt 0.444936 0.664480
vt 0.444936 0.638463
vt 0.595310 0.638463
vt 0.444936 0.607870
vt 0.595310 0.607870
vt 0.228971 0.023788
vt 0.265058 0.030966
vt 0.258551 0.052415
vt 0.226774 0.046094
vt 0.444936 0.573877
vt 0.595310 0.573877
vt 0.397361 0.650119
vt 0.390183 0.686206
vt 0.376102 0.720199
vt 0.355661 0.750792
vt 0.329644 0.776809
vt 0.299051 0.797251
vt 0.265058 0.811331
vt 0.228971 0.818509
vt 0.192178 0.818509
vt 0.156091 0.811331
vt 0.122098 0.797251
vt 0.091505 0.776809
vt 0.065488 0.750792
vt 0.045046 0.720199
vt 0.030966 0.686207
vt 0.023788 0.650120
vt 0.023788 0.613326
vt 0.030966 0.577239
vt 0.045046 0.543246
vt 0.065488 0.512654
vt 0.091505 0.486636
vt 0.122098 0.466195
vt 0.156090 0.452114
vt 0.192177 0.444936
vt 0.228971 0.444936
vt 0.265058 0.452114
vt 0.299051 0.466195
vt 0.329643 0.486636
vt 0.355661 0.512653
vt 0.376102 0.543246
vt 0.390182 0.577239
vt 0.397361 0.613326
vt 0.840835 0.423235
vt 0.840835 0.400324
vt 0.853715 0.400324
vt 0.853715 0.423235
vt 0.023788 0.228971
vt 0.023788 0.192178
vt 0.046094 0.194374
vt 0.046094 0.226774
vt 0.265058 0.390182
vt 0.228971 0.397361
vt 0.226774 0.375055
vt 0.258552 0.368734
vt 0.355661 0.091505
vt 0.376102 0.122098
vt 0.356335 0.132663
vt 0.338334 0.105724
vt 0.065488 0.091505
vt 0.091505 0.065488
vt 0.105724 0.082814
vt 0.082814 0.105724
vt 0.122098 0.376102
vt 0.091505 0.355661
vt 0.105724 0.338335
vt 0.132664 0.356335
vt 0.390183 0.265058
vt 0.376102 0.299051
vt 0.356335 0.288485
vt 0.368734 0.258551
vt 0.192177 0.023788
vt 0.194374 0.046094
vt 0.030966 0.265058
vt 0.052415 0.258552
vt 0.299051 0.376102
vt 0.288485 0.356335
vt 0.329643 0.065488
vt 0.315424 0.082814
vt 0.045046 0.122098
vt 0.064813 0.132664
vt 0.156091 0.390183
vt 0.162597 0.368734
vt 0.397361 0.192177
vt 0.397361 0.228971
vt 0.375055 0.226774
vt 0.375055 0.194374
vt 0.156090 0.030966
vt 0.162597 0.052415
vt 0.045046 0.299051
vt 0.064814 0.288485
vt 0.329644 0.355661
vt 0.315424 0.338334
vt 0.299051 0.045046
vt 0.288485 0.064813
vt 0.030966 0.156091
vt 0.052415 0.162597
vt 0.192178 0.397361
vt 0.194374 0.375055
vt 0.390182 0.156090
vt 0.368734 0.162597
vt 0.122098 0.045046
vt 0.132663 0.064814
vt 0.065488 0.329644
vt 0.082814 0.315424
vt 0.355661 0.329643
vt 0.338335 0.315424
vt 0.593217 0.352749
vt 0.561439 0.346428
vt 0.596665 0.230305
vt 0.605111 0.231985
vt 0.853715 0.801561
vt 0.853715 0.833338
vt 0.840835 0.833338
vt 0.840835 0.801561
vt 0.840835 0.450174
vt 0.853715 0.450174
vt 0.853715 0.769161
vt 0.840835 0.769161
vt 0.840835 0.480108
vt 0.853715 0.480108
vt 0.853715 0.737384
vt 0.840835 0.737384
vt 0.840835 0.511885
vt 0.853715 0.511885
vt 0.853715 0.707450
vt 0.840835 0.707450
vt 0.840835 0.544285
vt 0.853715 0.544285
vt 0.853715 0.680511
vt 0.840835 0.680511
vt 0.840835 0.576062
vt 0.853715 0.576062
vt 0.901291 0.423235
vt 0.901291 0.400324
vt 0.914171 0.400324
vt 0.914171 0.423235
vt 0.840835 0.605995
vt 0.853715 0.605995
vt 0.901291 0.450174
vt 0.914171 0.450174
vt 0.914171 0.769161
vt 0.914171 0.801561
vt 0.901291 0.801561
vt 0.901291 0.769161
vt 0.840835 0.632935
vt 0.853715 0.632935
vt 0.901291 0.480108
vt 0.914171 0.480108
vt 0.914171 0.737384
vt 0.901291 0.737384
vt 0.914171 0.890211
vt 0.914171 0.913121
vt 0.901291 0.913121
vt 0.901291 0.890211
vt 0.901291 0.511885
vt 0.914171 0.511885
vt 0.914171 0.707450
vt 0.901291 0.707450
vt 0.914171 0.863271
vt 0.901291 0.863271
vt 0.901291 0.544285
vt 0.914171 0.544285
vt 0.914171 0.680511
vt 0.901291 0.680511
vt 0.914171 0.833338
vt 0.901291 0.833338
vt 0.901291 0.576062
vt 0.914171 0.576062
vt 0.853715 0.890211
vt 0.853715 0.913121
vt 0.840835 0.913121
vt 0.840835 0.890211
vt 0.901291 0.605995
vt 0.914171 0.605995
vt 0.853715 0.863271
vt 0.840835 0.863271
vt 0.901291 0.632935
vt 0.914171 0.632935
vt 0.642886 0.901731
vt 0.642886 0.893775
vt 0.682954 0.893775
vt 0.682954 0.901731
vt 0.531506 0.042508
vt 0.561440 0.030109
vt 0.596665 0.146231
vt 0.588709 0.149527
vt 0.625616 0.352749
vt 0.613723 0.231985
vt 0.504567 0.060508
vt 0.581549 0.154311
vt 0.657394 0.346428
vt 0.622168 0.230305
vt 0.481657 0.083418
vt 0.575460 0.160400
vt 0.687327 0.334029
vt 0.630124 0.227010
vt 0.463656 0.110357
vt 0.570675 0.167560
vt 0.773897 0.172069
vt 0.773897 0.204468
vt 0.653134 0.192574
vt 0.653134 0.183963
vt 0.714267 0.316029
vt 0.637285 0.222226
vt 0.451257 0.140291
vt 0.567380 0.175516
vt 0.767576 0.140291
vt 0.651454 0.175517
vt 0.737177 0.293119
vt 0.643374 0.216136
vt 0.444936 0.172068
vt 0.565700 0.183962
vt 0.755177 0.110358
vt 0.648158 0.167561
vt 0.755177 0.266179
vt 0.648158 0.208976
vt 0.444936 0.204468
vt 0.565700 0.192574
vt 0.737177 0.083418
vt 0.643374 0.160400
vt 0.767576 0.236246
vt 0.651454 0.201020
vt 0.451257 0.236245
vt 0.567380 0.201020
vt 0.714267 0.060508
vt 0.637285 0.154311
vt 0.463656 0.266179
vt 0.570675 0.208976
vt 0.687328 0.042508
vt 0.630125 0.149527
vt 0.481656 0.293118
vt 0.575460 0.216136
vt 0.657394 0.030109
vt 0.622169 0.146231
vt 0.504566 0.316028
vt 0.581549 0.222225
vt 0.625617 0.023788
vt 0.613723 0.144551
vt 0.531506 0.334029
vt 0.588709 0.227010
vt 0.593217 0.023788
vt 0.605111 0.144551
vt 0.730320 0.751467
vt 0.730320 0.760079
vt 0.728640 0.768525
vt 0.725344 0.776481
vt 0.720560 0.783641
vt 0.714471 0.789730
vt 0.707311 0.794514
vt 0.699355 0.797810
vt 0.690909 0.799490
vt 0.682297 0.799490
vt 0.673851 0.797810
vt 0.665895 0.794515
vt 0.658735 0.789730
vt 0.652646 0.783641
vt 0.647861 0.776481
vt 0.644566 0.768525
vt 0.642886 0.760079
vt 0.642886 0.751467
vt 0.644566 0.743021
vt 0.647861 0.735065
vt 0.652646 0.727905
vt 0.658735 0.721816
vt 0.665895 0.717032
vt 0.673851 0.713736
vt 0.682297 0.712056
vt 0.690908 0.712056
vt 0.699355 0.713736
vt 0.707310 0.717031
vt 0.714471 0.721816
vt 0.720560 0.727905
vt 0.725344 0.735065
vt 0.728640 0.743021
vt 0.730529 0.860315
vt 0.730529 0.853155
vt 0.770597 0.853155
vt 0.770597 0.860315
vt 0.063856 0.889647
vt 0.063856 0.898259
vt 0.023788 0.898259
vt 0.023788 0.889647
vt 0.642886 0.908891
vt 0.682954 0.908891
vt 0.730529 0.868271
vt 0.770597 0.868271
vt 0.063856 0.881201
vt 0.023788 0.881201
vt 0.063856 0.921821
vt 0.063856 0.927910
vt 0.023788 0.927910
vt 0.023788 0.921821
vt 0.730529 0.876717
vt 0.770597 0.876717
vt 0.063856 0.873245
vt 0.023788 0.873245
vt 0.063856 0.914661
vt 0.023788 0.914661
vt 0.730529 0.885329
vt 0.770597 0.885329
vt 0.063856 0.866085
vt 0.023788 0.866085
vt 0.063856 0.906705
vt 0.023788 0.906705
vt 0.730529 0.893775
vt 0.770597 0.893775
vt 0.151499 0.921821
vt 0.151499 0.927910
vt 0.111431 0.927910
vt 0.111431 0.921821
vt 0.730529 0.901731
vt 0.770597 0.901731
vt 0.151499 0.914661
vt 0.111431 0.914661
vt 0.730529 0.908891
vt 0.770597 0.908891
vt 0.151499 0.906705
vt 0.111431 0.906705
vt 0.642886 0.853155
vt 0.642886 0.847066
vt 0.682954 0.847066
vt 0.682954 0.853155
vt 0.151499 0.898259
vt 0.111431 0.898259
vt 0.642886 0.860315
vt 0.682954 0.860315
vt 0.151499 0.889647
vt 0.111431 0.889647
vt 0.642886 0.868271
vt 0.682954 0.868271
vt 0.151499 0.881201
vt 0.111431 0.881201
vt 0.642886 0.876717
vt 0.682954 0.876717
vt 0.151499 0.873245
vt 0.111431 0.873245
vt 0.642886 0.885329
vt 0.682954 0.885329
vt 0.151499 0.866085
vt 0.111431 0.866085
vt 0.730529 0.847066
vt 0.770597 0.847066
s 0
usemtl Tank2
f 1/1/1 2/2/1 4/3/1 3/4/1
f 3/4/2 4/3/2 6/5/2 5/6/2
f 5/6/3 6/5/3 8/7/3 7/8/3
f 7/8/4 8/7/4 10/9/4 9/10/4
f 9/11/5 10/12/5 12/13/5 11/14/5
f 11/14/6 12/13/6 14/15/6 13/16/6
f 13/16/7 14/15/7 16/17/7 15/18/7
f 15/18/8 16/17/8 18/19/8 17/20/8
f 17/20/9 18/19/9 20/21/9 19/22/9
f 19/22/10 20/21/10 22/23/10 21/24/10
f 21/24/11 22/23/11 24/25/11 23/26/11
f 23/26/12 24/25/12 26/27/12 25/28/12
f 25/29/13 26/30/13 28/31/13 27/32/13
f 27/32/14 28/31/14 30/33/14 29/34/14
f 29/34/15 30/33/15 32/35/15 31/36/15
f 31/36/16 32/35/16 34/37/16 33/38/16
f 33/38/17 34/37/17 36/39/17 35/40/17
f 35/40/18 36/39/18 38/41/18 37/42/18
f 37/42/19 38/41/19 40/43/19 39/44/19
f 39/44/20 40/43/20 42/45/20 41/46/20
f 41/47/21 42/48/21 44/49/21 43/50/21
f 43/50/22 44/49/22 46/51/22 45/52/22
f 45/52/23 46/51/23 48/53/23 47/54/23
f 47/54/24 48/53/24 50/55/24 49/56/24
f 49/56/25 50/55/25 52/57/25 51/58/25
f 51/58/26 52/57/26 54/59/26 53/60/26
f 53/60/27 54/59/27 56/61/27 55/62/27
f 55/62/28 56/61/28 58/63/28 57/64/28
f 57/65/29 58/66/29 60/67/29 59/68/29
f 59/68/30 60/67/30 62/69/30 61/70/30
f 18/71/31 16/72/31 72/73/31 73/74/31
f 61/70/32 62/69/32 64/75/32 63/76/32
f 63/76/33 64/75/33 2/2/33 1/1/33
f 1/77/34 3/78/34 5/79/34 7/80/34 9/81/34 11/82/34 13/83/34 15/84/34 17/85/34 19/86/34 21/87/34 23/88/34 25/89/34 27/90/34 29/91/34 31/92/34 33/93/34 35/94/34 37/95/34 39/96/34 41/97/34 43/98/34 45/99/34 47/100/34 49/101/34 51/102/34 53/103/34 55/104/34 57/105/34 59/106/34 61/107/34 63/108/34
f 86/109/5 85/110/5 117/111/5 118/112/5
f 36/113/31 34/114/31 81/115/31 82/116/31
f 54/117/31 52/118/31 90/119/31 91/120/31
f 10/121/31 8/122/31 68/123/31 69/124/31
f 28/125/31 26/126/31 77/127/31 78/128/31
f 46/129/31 44/130/31 86/131/31 87/132/31
f 64/133/31 62/134/31 95/135/31 96/136/31
f 20/137/31 18/71/31 73/74/31 74/138/31
f 38/139/31 36/113/31 82/116/31 83/140/31
f 56/141/31 54/117/31 91/120/31 92/142/31
f 12/143/31 10/121/31 69/124/31 70/144/31
f 30/145/31 28/125/31 78/128/31 79/146/31
f 48/147/31 46/129/31 87/132/31 88/148/31
f 4/149/31 2/150/31 66/151/31 65/152/31
f 2/150/31 64/133/31 96/136/31 66/151/31
f 22/153/31 20/137/31 74/138/31 75/154/31
f 40/155/31 38/139/31 83/140/31 84/156/31
f 58/157/31 56/141/31 92/142/31 93/158/31
f 14/159/31 12/143/31 70/144/31 71/160/31
f 32/161/31 30/145/31 79/146/31 80/162/31
f 50/163/31 48/147/31 88/148/31 89/164/31
f 6/165/31 4/149/31 65/152/31 67/166/31
f 24/167/31 22/153/31 75/154/31 76/168/31
f 42/169/31 40/155/31 84/156/31 85/170/31
f 60/171/31 58/157/31 93/158/31 94/172/31
f 16/72/31 14/159/31 71/160/31 72/73/31
f 34/114/31 32/161/31 80/162/31 81/115/31
f 52/118/31 50/163/31 89/164/31 90/119/31
f 8/122/31 6/165/31 67/166/31 68/123/31
f 26/126/31 24/167/31 76/168/31 77/127/31
f 44/130/31 42/169/31 85/170/31 86/131/31
f 62/134/31 60/171/31 94/172/31 95/135/31
f 121/173/31 120/174/31 152/175/31 153/176/31
f 73/177/24 72/178/24 104/179/24 105/180/24
f 87/181/6 86/109/6 118/112/6 119/182/6
f 74/183/25 73/177/25 105/180/25 106/184/25
f 88/185/7 87/181/7 119/182/7 120/186/7
f 75/187/26 74/183/26 106/184/26 107/188/26
f 89/189/8 88/185/8 120/186/8 121/190/8
f 76/191/27 75/187/27 107/188/27 108/192/27
f 90/193/9 89/189/9 121/190/9 122/194/9
f 77/195/28 76/191/28 108/192/28 109/196/28
f 91/197/10 90/193/10 122/194/10 123/198/10
f 78/199/29 77/200/29 109/201/29 110/202/29
f 92/203/11 91/197/11 123/198/11 124/204/11
f 79/205/30 78/199/30 110/202/30 111/206/30
f 65/207/17 66/208/17 98/209/17 97/210/17
f 93/211/12 92/203/12 124/204/12 125/212/12
f 80/213/32 79/205/32 111/206/32 112/214/32
f 67/215/18 65/207/18 97/210/18 99/216/18
f 94/217/13 93/218/13 125/219/13 126/220/13
f 81/221/33 80/213/33 112/214/33 113/222/33
f 68/223/19 67/215/19 99/216/19 100/224/19
f 95/225/14 94/217/14 126/220/14 127/226/14
f 82/227/1 81/221/1 113/222/1 114/228/1
f 69/229/20 68/223/20 100/224/20 101/230/20
f 96/231/15 95/225/15 127/226/15 128/232/15
f 83/233/2 82/227/2 114/228/2 115/234/2
f 70/235/21 69/236/21 101/237/21 102/238/21
f 66/208/16 96/231/16 128/232/16 98/209/16
f 84/239/3 83/233/3 115/234/3 116/240/3
f 71/241/22 70/235/22 102/238/22 103/242/22
f 85/243/4 84/239/4 116/240/4 117/244/4
f 72/178/23 71/241/23 103/242/23 104/179/23
f 156/245/27 155/246/27 187/247/27 188/248/27
f 108/249/31 107/250/31 139/251/31 140/252/31
f 122/253/31 121/173/31 153/176/31 154/254/31
f 109/255/31 108/249/31 140/252/31 141/256/31
f 123/257/31 122/253/31 154/254/31 155/258/31
f 110/259/31 109/255/31 141/256/31 142/260/31
f 124/261/31 123/257/31 155/258/31 156/262/31
f 111/263/31 110/259/31 142/260/31 143/264/31
f 97/265/31 98/266/31 130/267/31 129/268/31
f 125/269/31 124/261/31 156/262/31 157/270/31
f 112/271/31 111/263/31 143/264/31 144/272/31
f 99/273/31 97/265/31 129/268/31 131/274/31
f 126/275/31 125/269/31 157/270/31 158/276/31
f 113/277/31 112/271/31 144/272/31 145/278/31
f 100/279/31 99/273/31 131/274/31 132/280/31
f 127/281/31 126/275/31 158/276/31 159/282/31
f 114/283/31 113/277/31 145/278/31 146/284/31
f 101/285/31 100/279/31 132/280/31 133/286/31
f 128/287/31 127/281/31 159/282/31 160/288/31
f 115/289/31 114/283/31 146/284/31 147/290/31
f 102/291/31 101/285/31 133/286/31 134/292/31
f 98/266/31 128/287/31 160/288/31 130/267/31
f 116/293/31 115/289/31 147/290/31 148/294/31
f 103/295/31 102/291/31 134/292/31 135/296/31
f 117/297/31 116/293/31 148/294/31 149/298/31
f 104/299/31 103/295/31 135/296/31 136/300/31
f 118/301/31 117/297/31 149/298/31 150/302/31
f 105/303/31 104/299/31 136/300/31 137/304/31
f 119/305/31 118/301/31 150/302/31 151/306/31
f 106/307/31 105/303/31 137/304/31 138/308/31
f 120/174/31 119/305/31 151/306/31 152/175/31
f 107/250/31 106/307/31 138/308/31 139/251/31
f 161/309/31 162/310/31 192/311/31 191/312/31 190/313/31 189/314/31 188/315/31 187/316/31 186/317/31 185/318/31 184/319/31 183/320/31 182/321/31 181/322/31 180/323/31 179/324/31 178/325/31 177/326/31 176/327/31 175/328/31 174/329/31 173/330/31 172/331/31 171/332/31 170/333/31 169/334/31 168/335/31 167/336/31 166/337/31 165/338/31 164/339/31 163/340/31
f 143/341/14 142/342/14 174/343/14 175/344/14
f 129/345/1 130/346/1 162/347/1 161/348/1
f 157/349/28 156/245/28 188/248/28 189/350/28
f 144/351/15 143/341/15 175/344/15 176/352/15
f 131/353/2 129/345/2 161/348/2 163/354/2
f 158/355/29 157/356/29 189/357/29 190/358/29
f 145/359/16 144/351/16 176/352/16 177/360/16
f 132/361/3 131/353/3 163/354/3 164/362/3
f 159/363/30 158/355/30 190/358/30 191/364/30
f 146/365/17 145/359/17 177/360/17 178/366/17
f 133/367/4 132/361/4 164/362/4 165/368/4
f 160/369/32 159/363/32 191/364/32 192/370/32
f 147/371/18 146/365/18 178/366/18 179/372/18
f 134/373/5 133/374/5 165/375/5 166/376/5
f 130/346/33 160/369/33 192/370/33 162/347/33
f 148/377/19 147/371/19 179/372/19 180/378/19
f 135/379/6 134/373/6 166/376/6 167/380/6
f 149/381/20 148/377/20 180/378/20 181/382/20
f 136/383/7 135/379/7 167/380/7 168/384/7
f 150/385/21 149/386/21 181/387/21 182/388/21
f 137/389/8 136/383/8 168/384/8 169/390/8
f 151/391/22 150/385/22 182/388/22 183/392/22
f 138/393/9 137/389/9 169/390/9 170/394/9
f 152/395/23 151/391/23 183/392/23 184/396/23
f 139/397/10 138/393/10 170/394/10 171/398/10
f 153/399/24 152/395/24 184/396/24 185/400/24
f 140/401/11 139/397/11 171/398/11 172/402/11
f 154/403/25 153/399/25 185/400/25 186/404/25
f 141/405/12 140/401/12 172/402/12 173/406/12
f 155/246/26 154/403/26 186/404/26 187/247/26
f 142/342/13 141/407/13 173/408/13 174/343/13
