# Blender 4.0.2
# www.blender.org
o Cube.003
v -0.342957 -0.307331 0.442428
v -0.342957 0.378583 0.442428
v -0.342957 -0.307331 -0.243486
v -0.342957 0.378583 -0.243486
v 0.342957 -0.307331 0.442428
v 0.342957 0.378583 0.442428
v 0.342957 -0.307331 -0.243486
v 0.342957 0.378583 -0.243486
v 0.000000 0.313419 0.486120
v 0.054765 0.308025 0.486120
v 0.000000 0.359835 0.433839
v 0.000000 0.359835 0.486120
v 0.063820 0.353550 0.433839
v 0.063820 0.353550 0.486120
v 0.125188 0.334934 0.433839
v 0.125188 0.334934 0.486120
v 0.181744 0.304704 0.433839
v 0.181744 0.304704 0.486120
v 0.231316 0.264021 0.433839
v 0.231316 0.264021 0.486120
v 0.271999 0.214449 0.433839
v 0.271999 0.214449 0.486120
v 0.302229 0.157892 0.433839
v 0.302229 0.157892 0.486120
v 0.320845 0.096525 0.433839
v 0.320845 0.096525 0.486120
v 0.327131 0.032705 0.433839
v 0.327131 0.032705 0.486120
v 0.320845 -0.031115 0.433839
v 0.320845 -0.031115 0.486120
v 0.302229 -0.092483 0.433839
v 0.302229 -0.092483 0.486120
v 0.271999 -0.149039 0.433839
v 0.271999 -0.149039 0.486120
v 0.231316 -0.198612 0.433839
v 0.231316 -0.198612 0.486120
v 0.181744 -0.239295 0.433839
v 0.181744 -0.239295 0.486120
v 0.125188 -0.269525 0.433839
v 0.125188 -0.269525 0.486120
v 0.063820 -0.288140 0.433839
v 0.063820 -0.288140 0.486120
v 0.000000 -0.294426 0.433839
v 0.000000 -0.294426 0.486120
v -0.063820 -0.288140 0.433839
v -0.063820 -0.288140 0.486120
v -0.125187 -0.269525 0.433839
v -0.125187 -0.269525 0.486120
v -0.181744 -0.239295 0.433839
v -0.181744 -0.239295 0.486120
v -0.231316 -0.198612 0.433839
v -0.231316 -0.198612 0.486120
v -0.271999 -0.149039 0.433839
v -0.271999 -0.149039 0.486120
v -0.302229 -0.092483 0.433839
v -0.302229 -0.092483 0.486120
v -0.320845 -0.031115 0.433839
v -0.320845 -0.031115 0.486120
v -0.327131 0.032705 0.433839
v -0.327131 0.032705 0.486120
v -0.320845 0.096525 0.433839
v -0.320845 0.096525 0.486120
v -0.302229 0.157892 0.433839
v -0.302229 0.157892 0.486120
v -0.271999 0.214449 0.433839
v -0.271999 0.214449 0.486120
v -0.231316 0.264021 0.433839
v -0.231316 0.264021 0.486120
v -0.181744 0.304704 0.433839
v -0.181744 0.304704 0.486120
v -0.125187 0.334934 0.433839
v -0.125187 0.334934 0.486120
v -0.063820 0.353550 0.433839
v -0.063820 0.353550 0.486120
v 0.107425 0.292051 0.486120
v 0.155957 0.266110 0.486120
v 0.198495 0.231200 0.486120
v 0.233405 0.188661 0.486120
v 0.259346 0.140129 0.486120
v 0.275320 0.087469 0.486120
v 0.280714 0.032705 0.486120
v 0.275320 -0.022060 0.486120
v 0.259346 -0.074720 0.486120
v 0.233405 -0.123252 0.486120
v 0.198495 -0.165790 0.486120
v 0.155957 -0.200701 0.486120
v 0.107425 -0.226642 0.486120
v 0.054765 -0.242616 0.486120
v 0.000000 -0.248010 0.486120
v -0.054765 -0.242616 0.486120
v -0.107425 -0.226642 0.486120
v -0.155956 -0.200701 0.486120
v -0.198495 -0.165790 0.486120
v -0.233405 -0.123252 0.486120
v -0.259346 -0.074720 0.486120
v -0.275320 -0.022060 0.486120
v -0.280714 0.032705 0.486120
v -0.275320 0.087469 0.486120
v -0.259346 0.140129 0.486120
v -0.233405 0.188661 0.486120
v -0.198495 0.231200 0.486120
v -0.155956 0.266110 0.486120
v -0.107425 0.292051 0.486120
v -0.054765 0.308025 0.486120
v 0.000000 0.313419 0.443231
v -0.054765 0.308025 0.443231
v -0.107425 0.292051 0.443231
v -0.155956 0.266110 0.443231
v -0.198495 0.231200 0.443231
v -0.233405 0.188661 0.443231
v -0.259346 0.140129 0.443231
v -0.275320 0.087469 0.443231
v -0.280714 0.032705 0.443231
v -0.275320 -0.022060 0.443231
v -0.259346 -0.074720 0.443231
v -0.233405 -0.123252 0.443231
v -0.198495 -0.165790 0.443231
v -0.155956 -0.200701 0.443231
v -0.107425 -0.226642 0.443231
v -0.054765 -0.242616 0.443231
v 0.000000 -0.248010 0.443231
v 0.054765 -0.242616 0.443231
v 0.107425 -0.226642 0.443231
v 0.155957 -0.200701 0.443231
v 0.198495 -0.165790 0.443231
v 0.233405 -0.123252 0.443231
v 0.259346 -0.074720 0.443231
v 0.275320 -0.022060 0.443231
v 0.280714 0.032705 0.443231
v 0.275320 0.087469 0.443231
v 0.259346 0.140129 0.443231
v 0.233405 0.188661 0.443231
v 0.198495 0.231200 0.443231
v 0.155957 0.266110 0.443231
v 0.107425 0.292051 0.443231
v 0.054765 0.308025 0.443231
v -0.258964 0.220028 -0.243486
v -0.258964 -0.306914 -0.243486
v 0.258964 -0.306914 -0.243486
v 0.258964 0.220028 -0.243486
v -0.258964 0.220028 -0.465082
v -0.258964 -0.306914 -0.465082
v 0.258964 -0.306914 -0.465082
v 0.258964 0.220028 -0.465082
v -0.258964 -0.306914 -0.922831
v 0.258964 -0.306914 -0.922831
vn -1.0000 -0.0000 -0.0000
vn -0.0000 -0.0000 -1.0000
vn 1.0000 -0.0000 -0.0000
vn -0.0000 -0.0000 1.0000
vn -0.0000 -1.0000 -0.0000
vn -0.0000 1.0000 -0.0000
vn 0.0980 -0.9952 -0.0000
vn 0.0980 0.9952 -0.0000
vn 0.2903 0.9569 -0.0000
vn -0.2903 -0.9569 -0.0000
vn 0.4714 0.8819 -0.0000
vn 0.6344 -0.7730 -0.0000
vn 0.6344 0.7730 -0.0000
vn 0.7730 0.6344 -0.0000
vn -0.6344 0.7730 -0.0000
vn 0.8819 0.4714 -0.0000
vn -0.7730 -0.6344 -0.0000
vn 0.9569 0.2903 -0.0000
vn 0.9952 0.0980 -0.0000
vn -0.0980 0.9952 -0.0000
vn 0.9952 -0.0980 -0.0000
vn -0.9952 -0.0980 -0.0000
vn 0.9569 -0.2903 -0.0000
vn 0.8819 -0.4714 -0.0000
vn 0.7730 -0.6344 -0.0000
vn -0.8819 0.4714 -0.0000
vn -0.4714 -0.8819 -0.0000
vn 0.4714 -0.8819 -0.0000
vn 0.2903 -0.9569 -0.0000
vn -0.4714 0.8819 -0.0000
vn -0.0980 -0.9952 -0.0000
vn -0.8819 -0.4714 -0.0000
vn -0.6344 -0.7730 -0.0000
vn -0.9952 0.0980 -0.0000
vn -0.9569 -0.2903 -0.0000
vn -0.7730 0.6344 -0.0000
vn -0.9569 0.2903 -0.0000
vn -0.2903 0.9569 -0.0000
vn -0.0000 0.6558 -0.7549
vt 0.290762 0.290762
vt 0.505504 0.290762
vt 0.505504 0.505504
vt 0.290762 0.505504
vt 0.025340 0.049654
vt 0.240082 0.049654
vt 0.213786 0.098974
vt 0.051636 0.098974
vt 0.240082 0.552387
vt 0.025340 0.552387
vt 0.025340 0.337645
vt 0.240082 0.337645
vt 0.505504 0.025340
vt 0.505504 0.240082
vt 0.290762 0.240082
vt 0.290762 0.025340
vt 0.770925 0.240082
vt 0.556184 0.240082
vt 0.556184 0.025340
vt 0.770925 0.025340
vt 0.025340 0.025340
vt 0.240082 0.025340
vt 0.556184 0.879636
vt 0.556184 0.862490
vt 0.569611 0.862490
vt 0.569611 0.879636
vt 0.225269 0.734720
vt 0.217586 0.753268
vt 0.204770 0.746418
vt 0.211363 0.730501
vt 0.963118 0.344865
vt 0.964754 0.343996
vt 0.972399 0.362559
vt 0.970763 0.363428
vt 0.771836 0.784731
vt 0.771836 0.779730
vt 0.785263 0.779730
vt 0.785263 0.784731
vt 0.156992 0.606984
vt 0.175541 0.614667
vt 0.168691 0.627483
vt 0.152774 0.620890
vt 0.837973 0.198208
vt 0.821606 0.198208
vt 0.821606 0.192379
vt 0.837973 0.192379
vt 0.556184 0.913268
vt 0.556184 0.896782
vt 0.569611 0.896782
vt 0.569611 0.913268
vt 0.029257 0.675261
vt 0.036940 0.656712
vt 0.049756 0.663562
vt 0.043163 0.679479
vt 0.821606 0.182915
vt 0.837973 0.182915
vt 0.556184 0.830810
vt 0.556184 0.817492
vt 0.569611 0.817492
vt 0.569611 0.830810
vt 0.097534 0.802996
vt 0.078985 0.795313
vt 0.085835 0.782497
vt 0.101752 0.789090
vt 0.821606 0.170178
vt 0.837973 0.170178
vt 0.771836 0.817099
vt 0.771836 0.803782
vt 0.785263 0.803782
vt 0.785263 0.817099
vt 0.206432 0.640018
vt 0.217586 0.656711
vt 0.204770 0.663562
vt 0.195198 0.649237
vt 0.821606 0.154659
vt 0.837973 0.154659
vt 0.835943 0.914947
vt 0.835943 0.904017
vt 0.849370 0.904017
vt 0.849370 0.914947
vt 0.062291 0.625822
vt 0.078984 0.614667
vt 0.085834 0.627483
vt 0.071509 0.637055
vt 0.821606 0.136952
vt 0.837973 0.136952
vt 0.835943 0.793047
vt 0.835943 0.779730
vt 0.849370 0.779730
vt 0.849370 0.793047
vt 0.048095 0.769963
vt 0.036940 0.753269
vt 0.049756 0.746419
vt 0.059328 0.760744
vt 0.821606 0.117740
vt 0.837973 0.117740
vt 0.771836 0.865925
vt 0.771836 0.848780
vt 0.785263 0.848780
vt 0.785263 0.865925
vt 0.229186 0.694951
vt 0.229186 0.715028
vt 0.214724 0.713604
vt 0.214724 0.696376
vt 0.821606 0.097759
vt 0.837973 0.097759
vt 0.621969 0.834638
vt 0.620291 0.817492
vt 0.621811 0.817492
vt 0.623489 0.834638
vt 0.117224 0.603067
vt 0.137301 0.603067
vt 0.135877 0.617529
vt 0.118649 0.617529
vt 0.821606 0.077779
vt 0.837973 0.077779
vt 0.835943 0.841873
vt 0.835943 0.824728
vt 0.849370 0.824728
vt 0.849370 0.841873
vt 0.025340 0.715029
vt 0.025340 0.694952
vt 0.039802 0.696376
vt 0.039802 0.713605
vt 0.821606 0.058566
vt 0.837973 0.058566
vt 0.771836 0.914751
vt 0.771836 0.899557
vt 0.785263 0.899557
vt 0.785263 0.914751
vt 0.137302 0.806913
vt 0.117225 0.806913
vt 0.118649 0.792451
vt 0.135878 0.792451
vt 0.821606 0.040860
vt 0.837973 0.040860
vt 0.771836 0.792852
vt 0.785263 0.792852
vt 0.192235 0.784159
vt 0.175542 0.795313
vt 0.168692 0.782497
vt 0.183016 0.772925
vt 0.821606 0.025340
vt 0.837973 0.025340
vt 0.835943 0.890699
vt 0.835943 0.875505
vt 0.849370 0.875505
vt 0.849370 0.890699
vt 0.206432 0.769962
vt 0.195199 0.760743
vt 0.916418 0.924568
vt 0.900051 0.924568
vt 0.900051 0.909048
vt 0.916418 0.909048
vt 0.556184 0.928462
vt 0.569611 0.928462
vt 0.192235 0.625821
vt 0.183016 0.637055
vt 0.900051 0.891342
vt 0.916418 0.891342
vt 0.556184 0.846004
vt 0.569611 0.846004
vt 0.048094 0.640018
vt 0.059327 0.649237
vt 0.900051 0.872129
vt 0.916418 0.872129
vt 0.771836 0.832294
vt 0.785263 0.832294
vt 0.062291 0.784159
vt 0.071510 0.772926
vt 0.900051 0.852149
vt 0.916418 0.852149
vt 0.835943 0.923068
vt 0.849370 0.923068
vt 0.225269 0.675260
vt 0.211363 0.679478
vt 0.900051 0.832168
vt 0.916418 0.832168
vt 0.835943 0.808241
vt 0.849370 0.808241
vt 0.097533 0.606984
vt 0.101751 0.620890
vt 0.900051 0.812956
vt 0.916418 0.812956
vt 0.771836 0.883071
vt 0.785263 0.883071
vt 0.029257 0.734720
vt 0.043163 0.730502
vt 0.900051 0.795249
vt 0.916418 0.795249
vt 0.620291 0.851783
vt 0.621811 0.851783
vt 0.156993 0.802996
vt 0.152775 0.789090
vt 0.900051 0.779730
vt 0.916418 0.779730
vt 0.835943 0.859019
vt 0.849370 0.859019
vt 0.905021 0.198208
vt 0.888653 0.198208
vt 0.888653 0.182688
vt 0.905021 0.182688
vt 0.888653 0.164981
vt 0.905021 0.164981
vt 0.771836 0.928069
vt 0.785263 0.928069
vt 0.888653 0.145769
vt 0.905021 0.145769
vt 0.888653 0.125788
vt 0.905021 0.125788
vt 0.888653 0.105808
vt 0.905021 0.105808
vt 0.556184 0.941780
vt 0.569611 0.941780
vt 0.888653 0.086595
vt 0.905021 0.086595
vt 0.888653 0.068889
vt 0.905021 0.068889
vt 0.835943 0.928069
vt 0.849370 0.928069
vt 0.888653 0.053369
vt 0.905021 0.053369
vt 0.888653 0.040632
vt 0.905021 0.040632
vt 0.867911 0.729050
vt 0.850682 0.729050
vt 0.833785 0.725688
vt 0.817868 0.719095
vt 0.803543 0.709524
vt 0.791361 0.697342
vt 0.781790 0.683017
vt 0.775197 0.667100
vt 0.771836 0.650202
vt 0.771836 0.632974
vt 0.775197 0.616077
vt 0.781790 0.600160
vt 0.791361 0.585835
vt 0.803544 0.573653
vt 0.817869 0.564081
vt 0.833785 0.557488
vt 0.850682 0.554127
vt 0.867911 0.554127
vt 0.884808 0.557488
vt 0.900725 0.564081
vt 0.915050 0.573653
vt 0.927232 0.585835
vt 0.936804 0.600160
vt 0.943397 0.616077
vt 0.946758 0.632974
vt 0.946758 0.650203
vt 0.943396 0.667100
vt 0.936804 0.683017
vt 0.927232 0.697342
vt 0.915050 0.709524
vt 0.900725 0.719096
vt 0.884808 0.725689
vt 0.888653 0.031168
vt 0.905021 0.031168
vt 0.888653 0.025340
vt 0.905021 0.025340
vt 0.952020 0.328136
vt 0.953656 0.327267
vt 0.974660 0.383113
vt 0.974660 0.403161
vt 0.970763 0.422803
vt 0.963118 0.441284
vt 0.952020 0.457895
vt 0.937894 0.471995
vt 0.921285 0.483045
vt 0.902829 0.490618
vt 0.883236 0.494424
vt 0.863260 0.494317
vt 0.843667 0.490301
vt 0.825211 0.482530
vt 0.808601 0.471302
vt 0.794476 0.457050
vt 0.783378 0.440321
vt 0.775733 0.421758
vt 0.771836 0.402074
vt 0.771836 0.382025
vt 0.775733 0.362383
vt 0.783378 0.343901
vt 0.794476 0.327291
vt 0.808601 0.313190
vt 0.825211 0.302141
vt 0.843667 0.294568
vt 0.863259 0.290762
vt 0.883236 0.290869
vt 0.902828 0.294885
vt 0.921284 0.302656
vt 0.937894 0.313884
vt 0.213786 0.106829
vt 0.051636 0.106829
vt 0.025340 0.263014
vt 0.051636 0.262885
vt 0.240082 0.263014
vt 0.213786 0.262885
vt 0.556184 0.360138
vt 0.721156 0.360138
vt 0.556184 0.503447
vt 0.556184 0.290762
vt 0.721156 0.290762
vt 0.556184 0.554127
vt 0.721156 0.554127
vt 0.721156 0.623503
vt 0.556184 0.623503
vt 0.290762 0.556184
vt 0.452912 0.556184
vt 0.452912 0.625560
vt 0.290762 0.625560
vt 0.721156 0.766812
vt 0.452912 0.768869
vt 0.290762 0.768869
vt 0.213786 0.286965
vt 0.051636 0.286965
s 0
f 1/1/1 2/2/1 4/3/1 3/4/1
f 4/5/2 8/6/2 140/7/2 137/8/2
f 7/9/3 8/10/3 6/11/3 5/12/3
f 5/13/4 6/14/4 2/15/4 1/16/4
f 3/17/5 7/18/5 5/19/5 1/20/5
f 8/6/6 4/5/6 2/21/6 6/22/6
f 9/23/7 104/24/7 106/25/7 105/26/7
f 18/27/4 16/28/4 75/29/4 76/30/4
f 11/31/8 12/32/8 14/33/8 13/34/8
f 91/35/9 90/36/9 120/37/9 119/38/9
f 34/39/4 32/40/4 83/41/4 84/42/4
f 13/43/9 14/44/9 16/45/9 15/46/9
f 75/47/10 10/48/10 136/49/10 135/50/10
f 50/51/4 48/52/4 91/53/4 92/54/4
f 15/46/11 16/45/11 18/55/11 17/56/11
f 102/57/12 101/58/12 109/59/12 108/60/12
f 66/61/4 64/62/4 99/63/4 100/64/4
f 17/56/13 18/55/13 20/65/13 19/66/13
f 94/67/14 93/68/14 117/69/14 116/70/14
f 28/71/4 26/72/4 80/73/4 81/74/4
f 19/66/14 20/65/14 22/75/14 21/76/14
f 86/77/15 85/78/15 125/79/15 124/80/15
f 44/81/4 42/82/4 88/83/4 89/84/4
f 21/76/16 22/75/16 24/85/16 23/86/16
f 78/87/17 77/88/17 133/89/17 132/90/17
f 60/91/4 58/92/4 96/93/4 97/94/4
f 23/86/18 24/85/18 26/95/18 25/96/18
f 97/97/19 96/98/19 114/99/19 113/100/19
f 22/101/4 20/102/4 77/103/4 78/104/4
f 25/96/19 26/95/19 28/105/19 27/106/19
f 89/107/20 88/108/20 122/109/20 121/110/20
f 38/111/4 36/112/4 85/113/4 86/114/4
f 27/106/21 28/105/21 30/115/21 29/116/21
f 81/117/22 80/118/22 130/119/22 129/120/22
f 54/121/4 52/122/4 93/123/4 94/124/4
f 29/116/23 30/115/23 32/125/23 31/126/23
f 100/127/24 99/128/24 111/129/24 110/130/24
f 70/131/4 68/132/4 101/133/4 102/134/4
f 31/126/24 32/125/24 34/135/24 33/136/24
f 92/137/11 91/35/11 119/38/11 118/138/11
f 12/139/4 74/140/4 104/141/4 9/142/4
f 33/136/25 34/135/25 36/143/25 35/144/25
f 84/145/26 83/146/26 127/147/26 126/148/26
f 16/28/4 14/149/4 10/150/4 75/29/4
f 35/151/12 36/152/12 38/153/12 37/154/12
f 76/155/27 75/47/27 135/50/27 134/156/27
f 32/40/4 30/157/4 82/158/4 83/41/4
f 37/154/28 38/153/28 40/159/28 39/160/28
f 103/161/28 102/57/28 108/60/28 107/162/28
f 48/52/4 46/163/4 90/164/4 91/53/4
f 39/160/29 40/159/29 42/165/29 41/166/29
f 95/167/16 94/67/16 116/70/16 115/168/16
f 64/62/4 62/169/4 98/170/4 99/63/4
f 41/166/7 42/165/7 44/171/7 43/172/7
f 87/173/30 86/77/30 124/80/30 123/174/30
f 26/72/4 24/175/4 79/176/4 80/73/4
f 43/172/31 44/171/31 46/177/31 45/178/31
f 79/179/32 78/87/32 132/90/32 131/180/32
f 42/82/4 40/181/4 87/182/4 88/83/4
f 45/178/10 46/177/10 48/183/10 47/184/10
f 98/185/21 97/97/21 113/100/21 112/186/21
f 58/92/4 56/187/4 95/188/4 96/93/4
f 47/184/27 48/183/27 50/189/27 49/190/27
f 90/191/8 89/107/8 121/110/8 120/192/8
f 74/140/4 72/193/4 103/194/4 104/141/4
f 49/190/33 50/189/33 52/195/33 51/196/33
f 82/197/34 81/117/34 129/120/34 128/198/34
f 20/102/4 18/27/4 76/30/4 77/103/4
f 51/199/17 52/200/17 54/201/17 53/202/17
f 10/48/31 9/23/31 105/26/31 136/49/31
f 36/112/4 34/39/4 84/42/4 85/113/4
f 53/202/32 54/201/32 56/203/32 55/204/32
f 101/205/25 100/127/25 110/130/25 109/206/25
f 52/122/4 50/51/4 92/54/4 93/123/4
f 55/204/35 56/203/35 58/207/35 57/208/35
f 93/68/13 92/137/13 118/138/13 117/69/13
f 68/132/4 66/61/4 100/64/4 101/133/4
f 57/208/22 58/207/22 60/209/22 59/210/22
f 85/78/36 84/145/36 126/148/36 125/79/36
f 30/157/4 28/71/4 81/74/4 82/158/4
f 59/210/34 60/209/34 62/211/34 61/212/34
f 77/213/33 76/155/33 134/156/33 133/214/33
f 46/163/4 44/81/4 89/84/4 90/164/4
f 61/212/37 62/211/37 64/215/37 63/216/37
f 96/98/18 95/167/18 115/168/18 114/99/18
f 62/169/4 60/91/4 97/94/4 98/170/4
f 63/216/26 64/215/26 66/217/26 65/218/26
f 88/219/38 87/173/38 123/174/38 122/220/38
f 14/149/4 12/139/4 9/142/4 10/150/4
f 65/218/36 66/217/36 68/221/36 67/222/36
f 80/118/35 79/179/35 131/180/35 130/119/35
f 24/175/4 22/101/4 78/104/4 79/176/4
f 67/222/15 68/221/15 70/223/15 69/224/15
f 136/225/4 105/226/4 106/227/4 107/228/4 108/229/4 109/230/4 110/231/4 111/232/4 112/233/4 113/234/4 114/235/4 115/236/4 116/237/4 117/238/4 118/239/4 119/240/4 120/241/4 121/242/4 122/243/4 123/244/4 124/245/4 125/246/4 126/247/4 127/248/4 128/249/4 129/250/4 130/251/4 131/252/4 132/253/4 133/254/4 134/255/4 135/256/4
f 40/181/4 38/111/4 86/114/4 87/182/4
f 69/224/30 70/223/30 72/257/30 71/258/30
f 56/187/4 54/121/4 94/124/4 95/188/4
f 104/24/29 103/161/29 107/162/29 106/25/29
f 71/258/38 72/257/38 74/259/38 73/260/38
f 83/146/37 82/197/37 128/198/37 127/147/37
f 72/193/4 70/131/4 102/134/4 103/194/4
f 73/261/20 74/262/20 12/32/20 11/31/20
f 11/31/2 13/34/2 15/263/2 17/264/2 19/265/2 21/266/2 23/267/2 25/268/2 27/269/2 29/270/2 31/271/2 33/272/2 35/273/2 37/274/2 39/275/2 41/276/2 43/277/2 45/278/2 47/279/2 49/280/2 51/281/2 53/282/2 55/283/2 57/284/2 59/285/2 61/286/2 63/287/2 65/288/2 67/289/2 69/290/2 71/291/2 73/261/2
f 99/128/23 98/185/23 112/186/23 111/129/23
f 137/8/6 140/7/6 144/292/6 141/293/6
f 3/294/2 4/5/2 137/8/2 138/295/2
f 8/6/2 7/296/2 139/297/2 140/7/2
f 7/296/2 3/294/2 138/295/2 139/297/2
f 142/298/1 141/299/1 145/300/1
f 138/301/1 137/302/1 141/299/1 142/298/1
f 140/303/3 139/304/3 143/305/3 144/306/3
f 139/307/5 138/308/5 142/309/5 143/310/5
f 144/306/3 143/305/3 146/311/3
f 143/310/5 142/309/5 145/312/5 146/313/5
f 141/293/39 144/292/39 146/314/39 145/315/39
