# Blender 4.0.2
# www.blender.org
o Cube.002
v -2.664127 -1.000000 1.280459
v -2.664127 0.203563 1.280459
v -2.664127 -1.000000 -1.280459
v -2.664127 0.203563 -1.280459
v 2.664127 -1.000000 1.280459
v 2.664127 0.203563 1.280459
v 2.664127 -1.000000 -1.280459
v 2.664127 0.203563 -1.280459
v -2.887318 0.203563 1.387731
v -2.887318 0.203563 -1.387731
v 2.887318 0.203563 -1.387731
v 2.887318 0.203563 1.387731
v -1.568197 0.852539 1.387731
v -1.568197 0.852539 -1.387731
v -1.049310 0.852539 -1.387731
v -1.049310 0.852539 1.387731
v 0.888042 -1.000000 -1.280459
v -0.888042 -1.000000 -1.280459
v -0.888042 0.203563 -1.280459
v 0.888042 0.203563 -1.280459
v -0.888042 -1.000000 1.280459
v 0.888042 -1.000000 1.280459
v 0.888042 0.203563 1.280459
v -0.888042 0.203563 1.280459
v -0.962439 0.203563 -1.387731
v 0.962439 0.203563 -1.387731
v 0.962439 0.203563 1.387731
v -0.962439 0.203563 1.387731
v -1.395235 0.852539 -1.387731
v -1.222272 0.852539 -1.387731
v -1.222272 0.852539 1.387731
v -1.395235 0.852539 1.387731
v -2.664127 -1.000000 1.280459
v -2.664127 0.203563 1.280459
v 2.664127 0.203563 1.280459
v 2.664127 -1.000000 1.280459
v 0.888042 -1.000000 1.280459
v -0.888042 0.203563 1.280459
v -0.888042 -1.000000 1.280459
v 0.888042 0.203563 1.280459
v 2.664127 0.203563 1.280459
v 0.888042 0.203563 1.280459
v -0.888042 0.203563 1.280459
v 0.888042 -1.000000 1.280459
v -0.888042 -1.000000 1.280459
v 2.664127 -1.000000 1.280459
v -2.664127 0.203563 1.280459
v -2.664127 -1.000000 1.280459
v 2.543686 -0.993666 1.280459
v 2.543686 0.046663 1.280459
v 1.008483 0.046663 1.280459
v 1.008483 -0.993666 1.280459
v -1.008483 -0.993666 1.280459
v -1.008483 0.046663 1.280459
v -2.543686 0.046663 1.280459
v -2.543686 -0.993666 1.280459
v 0.767602 -0.993666 1.280459
v 0.767602 0.046663 1.280459
v -0.767602 0.046663 1.280459
v -0.767602 -0.993666 1.280459
v 2.543686 0.046663 1.079899
v 2.543686 -0.993666 1.079899
v 1.008483 0.046663 1.079899
v 1.008483 -0.993666 1.079899
v -1.008483 0.046663 1.079899
v -1.008483 -0.993666 1.079899
v -2.543686 0.046663 1.079899
v -2.543686 -0.993666 1.079899
v 0.767602 0.046663 1.079899
v 0.767602 -0.993666 1.079899
v -0.767602 0.046663 1.079899
v -0.767602 -0.993666 1.079899
vn -1.0000 -0.0000 -0.0000
vn -0.0000 1.0000 -0.0000
vn -0.0000 -0.0000 -1.0000
vn 1.0000 -0.0000 -0.0000
vn -0.0000 -1.0000 -0.0000
vn 0.1627 0.9867 -0.0000
vn -0.4414 0.8973 -0.0000
vn -0.0000 -0.0000 1.0000
vt 0.173489 0.543676
vt 0.178102 0.543676
vt 0.178102 0.751072
vt 0.173489 0.751072
vt 0.228781 0.722532
vt 0.122810 0.751072
vt 0.025339 0.751072
vt 0.025339 0.543676
vt 0.122810 0.543676
vt 0.241423 0.043415
vt 0.034027 0.043415
vt 0.025339 0.025339
vt 0.250110 0.025339
vt 0.034027 0.474923
vt 0.241423 0.474923
vt 0.250110 0.492998
vt 0.025339 0.492998
vt 0.300789 0.025339
vt 0.525559 0.025339
vt 0.525559 0.341302
vt 0.300789 0.341302
vt 0.525559 0.492474
vt 0.300789 0.492474
vt 0.300789 0.383277
vt 0.525559 0.383277
vt 0.880181 0.313011
vt 0.880181 0.456847
vt 0.782711 0.456847
vt 0.782711 0.313011
vt 0.782711 0.169175
vt 0.782711 0.025339
vt 0.880181 0.025339
vt 0.880181 0.169175
vt 0.576238 0.181226
vt 0.576238 0.025339
vt 0.628795 0.132168
vt 0.628796 0.146176
vt 0.628796 0.160183
vt 0.628796 0.174190
vt 0.576238 0.492998
vt 0.576238 0.337112
vt 0.508184 0.830824
vt 0.508184 0.974661
vt 0.300789 0.974661
vt 0.300789 0.830824
vt 0.300789 0.686989
vt 0.300789 0.543152
vt 0.508184 0.543152
vt 0.508184 0.686989
vt 0.525559 0.369285
vt 0.300789 0.369285
vt 0.300789 0.355294
vt 0.525559 0.355294
vt 0.034027 0.331087
vt 0.025339 0.337112
vt 0.025339 0.181226
vt 0.034027 0.187251
vt 0.241423 0.187251
vt 0.250110 0.181226
vt 0.250110 0.337112
vt 0.241423 0.331087
vt 0.679474 0.181226
vt 0.679474 0.025339
vt 0.732032 0.344147
vt 0.732032 0.358154
vt 0.732032 0.372161
vt 0.732032 0.386169
vt 0.679474 0.492998
vt 0.679474 0.337112
vt 0.576238 0.722532
vt 0.660489 0.722532
vt 0.660489 0.846860
vt 0.576238 0.846860
vt 0.025339 0.801751
vt 0.109590 0.801751
vt 0.109590 0.926079
vt 0.025339 0.926079
vt 0.160269 0.801751
vt 0.244520 0.801751
vt 0.244520 0.926079
vt 0.160269 0.926079
vt 0.710081 0.668005
vt 0.710081 0.543677
vt 0.726323 0.543677
vt 0.726323 0.668005
vt 0.880181 0.507526
vt 0.867474 0.517280
vt 0.783224 0.517280
vt 0.782711 0.507526
vt 0.880181 0.651362
vt 0.867474 0.641608
vt 0.782711 0.651362
vt 0.783224 0.641608
vt 0.930860 0.284597
vt 0.930860 0.200347
vt 0.947102 0.200347
vt 0.947102 0.284597
vt 0.880181 0.795198
vt 0.867474 0.804952
vt 0.783224 0.804952
vt 0.782711 0.795198
vt 0.880181 0.939034
vt 0.867474 0.929280
vt 0.782711 0.939034
vt 0.783224 0.929280
vt 0.576238 0.671853
vt 0.576238 0.547664
vt 0.592481 0.547664
vt 0.592481 0.671853
vt 0.867474 0.661116
vt 0.783224 0.661116
vt 0.867474 0.785444
vt 0.783224 0.785444
vt 0.576238 0.543677
vt 0.592481 0.543677
vt 0.643159 0.671853
vt 0.643159 0.547664
vt 0.659402 0.547664
vt 0.659402 0.671853
vt 0.930860 0.419527
vt 0.930860 0.335276
vt 0.947102 0.335276
vt 0.947102 0.419527
vt 0.711168 0.846860
vt 0.711168 0.722532
vt 0.727410 0.722532
vt 0.727410 0.846860
vt 0.643159 0.543677
vt 0.659402 0.543677
vt 0.228781 0.671853
vt 0.228781 0.547664
vt 0.245023 0.547664
vt 0.245023 0.671853
vt 0.930860 0.554457
vt 0.930860 0.470206
vt 0.947102 0.470206
vt 0.947102 0.554457
vt 0.930860 0.149668
vt 0.930860 0.025339
vt 0.947102 0.025339
vt 0.947102 0.149668
vt 0.228781 0.543677
vt 0.245023 0.543677
s 0
f 1/1/1 2/2/1 4/3/1 3/4/1
f 21/5/2 22/5/3 37/5/2 39/5/3
f 7/6/4 8/7/4 6/8/4 5/9/4
f 1/5/2 21/5/3 39/5/2 33/5/3
f 36/5/2 35/5/3 41/5/2 46/5/3
f 4/10/5 2/11/5 9/12/5 10/13/5
f 22/5/2 5/5/3 36/5/2 37/5/3
f 6/14/5 8/15/5 11/16/5 12/17/5
f 5/5/2 6/5/3 35/5/2 36/5/3
f 12/18/6 11/19/6 15/20/6 16/21/6
f 10/22/7 9/23/7 13/24/7 14/25/7
f 20/26/3 8/27/3 7/28/3 17/29/3 18/30/3 3/31/3 4/32/3 19/33/3
f 25/34/3 10/35/3 14/36/3 29/37/3 30/38/3 15/39/3 11/40/3 26/41/3
f 17/42/5 7/43/5 5/44/5 22/45/5 21/46/5 1/47/5 3/48/5 18/49/5
f 23/5/2 24/5/3 38/5/2 40/5/3
f 29/50/2 14/25/2 13/24/2 32/51/2 31/52/2 16/21/2 15/20/2 30/53/2
f 23/54/5 6/14/5 12/17/5 27/55/5 28/56/5 9/12/5 2/11/5 24/57/5
f 37/5/2 36/5/3 46/5/2 44/5/3
f 39/5/2 37/5/3 44/5/2 45/5/3
f 2/5/2 1/5/3 33/5/2 34/5/3
f 6/5/2 23/5/3 40/5/2 35/5/3
f 19/58/5 4/10/5 10/13/5 25/59/5 26/60/5 11/16/5 8/15/5 20/61/5
f 24/5/2 2/5/3 34/5/2 38/5/3
f 27/62/8 12/63/8 16/64/8 31/65/8 32/66/8 13/67/8 9/68/8 28/69/8
f 70/70/8 69/71/8 71/72/8 72/73/8
f 66/74/8 65/75/8 67/76/8 68/77/8
f 62/78/8 61/79/8 63/80/8 64/81/8
f 35/5/2 40/5/3 42/5/2 41/5/3
f 38/5/2 34/5/3 47/5/2 43/5/3
f 33/5/2 39/5/3 45/5/2 48/5/3
f 40/5/2 38/5/3 43/5/2 42/5/3
f 34/5/2 33/5/3 48/5/2 47/5/3
f 58/82/5 59/83/5 71/84/5 69/85/5
f 41/86/8 50/87/8 49/88/8 46/89/8
f 42/90/8 51/91/8 50/87/8 41/86/8
f 44/92/8 52/93/8 51/91/8 42/90/8
f 46/89/8 49/88/8 52/93/8 44/92/8
f 55/94/4 56/95/4 68/96/4 67/97/4
f 43/98/8 54/99/8 53/100/8 45/101/8
f 47/102/8 55/103/8 54/99/8 43/98/8
f 48/104/8 56/105/8 55/103/8 47/102/8
f 45/101/8 53/100/8 56/105/8 48/104/8
f 52/106/2 49/107/2 62/108/2 64/109/2
f 42/90/8 58/110/8 57/111/8 44/92/8
f 43/98/8 59/112/8 58/110/8 42/90/8
f 45/101/8 60/113/8 59/112/8 43/98/8
f 44/92/8 57/111/8 60/113/8 45/101/8
f 49/107/1 50/114/1 61/115/1 62/108/1
f 56/116/2 53/117/2 66/118/2 68/119/2
f 59/120/4 60/121/4 72/122/4 71/123/4
f 50/124/5 51/125/5 63/126/5 61/127/5
f 53/117/1 54/128/1 65/129/1 66/118/1
f 60/130/2 57/131/2 70/132/2 72/133/2
f 51/134/4 52/135/4 64/136/4 63/137/4
f 54/138/5 55/139/5 67/140/5 65/141/5
f 57/131/1 58/142/1 69/143/1 70/132/1
