# Blender 3.5.1
# www.blender.org
mtllib apc.mtl
o Cube
v 1.000000 0.297558 -1.708879
v 1.000000 -0.156862 -1.708879
v 1.000000 0.297558 1.720388
v 1.000000 -0.156862 1.720388
v -1.000000 0.297558 -1.708879
v -1.000000 -0.156862 -1.708879
v -1.000000 0.297558 1.720388
v -1.000000 -0.156862 1.720388
v 0.619800 0.694197 -1.278047
v 0.619800 0.694197 0.886079
v -0.619799 0.694197 -1.278047
v -0.619799 0.694197 0.886079
v 0.842768 -0.279956 -1.708879
v 0.842768 -0.279956 1.720388
v -0.842767 -0.279956 -1.708879
v -0.842767 -0.279956 1.720388
v 0.842768 -0.553500 -1.278014
v 0.842768 -0.553500 1.289523
v -0.842767 -0.553500 -1.278014
v -0.842767 -0.553500 1.289523
v -0.750487 -0.109338 2.075774
v -0.750487 0.231699 2.075774
v 0.750488 0.231699 2.075774
v 0.750488 -0.109338 2.075774
v 0.465152 0.529371 1.449636
v -0.465151 0.529371 1.449636
v -0.632486 -0.201719 2.075774
v 0.632487 -0.201719 2.075774
v -0.632486 -0.407010 1.752415
v 0.632487 -0.407010 1.752415
v 0.799824 -0.134867 -1.954529
v -0.799823 -0.134867 -1.954529
v 0.799824 0.228589 -1.954529
v -0.799823 0.228589 -1.954529
v -0.495730 0.545830 -1.609940
v 0.495730 0.545830 -1.609940
v 0.674066 -0.233321 -1.954529
v -0.674065 -0.233321 -1.954529
v 0.674066 -0.452107 -1.609913
v -0.674065 -0.452107 -1.609913
vn -0.7219 0.6920 -0.0000
vn -0.5092 -0.7266 0.4613
vn -1.0000 -0.0000 -0.0000
vn -0.0000 -0.9564 -0.2922
vn 1.0000 -0.0000 -0.0000
vn -0.7752 -0.0000 -0.6317
vn -0.0000 1.0000 -0.0000
vn 0.7219 0.6920 -0.0000
vn -0.4799 -0.7406 -0.4702
vn -0.5428 -0.6934 0.4738
vn 0.2294 0.9154 0.3307
vn -0.6164 -0.7874 -0.0000
vn 0.6164 -0.7874 -0.0000
vn -0.0000 -1.0000 -0.0000
vn -0.0000 0.9129 -0.4081
vn -0.0000 0.9598 0.2807
vn -0.0000 -0.0000 1.0000
vn -0.0000 0.9031 0.4294
vn -0.0000 -0.8442 0.5360
vn -0.2294 0.9154 0.3307
vn -0.0000 -0.9534 0.3017
vn -0.8184 -0.0000 0.5746
vn 0.5428 -0.6934 0.4738
vn 0.5092 -0.7266 0.4613
vn 0.8184 -0.0000 0.5746
vn -0.0000 -0.0000 -1.0000
vn -0.0000 0.7357 -0.6773
vn -0.0000 -0.8442 -0.5360
vn 0.7752 -0.0000 -0.6317
vn -0.3091 0.8198 -0.4820
vn 0.5349 -0.6832 -0.4971
vn 0.4799 -0.7406 -0.4702
vn 0.3091 0.8198 -0.4820
vn -0.5349 -0.6832 -0.4971
vt 0.712061 0.039419
vt 0.639111 0.604322
vt 0.639526 0.039419
vt 0.319452 0.604322
vt 0.639111 0.056935
vt 0.712061 0.586806
vt 0.319452 0.056935
vt 0.639526 0.586806
vt 0.848324 0.039419
vt 0.319867 0.604322
vt 0.775788 0.039419
vt 0.000207 0.604322
vt 0.319867 0.056935
vt 0.848324 0.586806
vt 0.000207 0.056935
vt 0.775788 0.586806
vt 0.775374 0.108189
vt 0.578423 0.535552
vt 0.775374 0.453632
vt 0.578423 0.190109
vt 0.911636 0.108189
vt 0.380555 0.535552
vt 0.911636 0.453632
vt 0.380555 0.190109
vt 0.912051 0.547595
vt 0.294354 0.604322
vt 0.912051 0.000207
vt 0.294354 0.056935
vt 0.956129 0.547595
vt 0.025305 0.604322
vt 0.956129 0.000207
vt 0.025305 0.056935
vt 0.955714 0.478819
vt 0.294354 0.535547
vt 0.955714 0.068983
vt 0.294354 0.125710
vt 0.999793 0.478819
vt 0.025305 0.535547
vt 0.999793 0.068983
vt 0.025305 0.125710
vt 0.040035 0.000207
vt 0.128790 0.643948
vt 0.783374 0.643534
vt 0.074353 0.643948
vt 0.359694 0.000207
vt 0.837811 0.643534
vt 0.074353 0.883537
vt 0.599283 0.000207
vt 0.701549 0.643534
vt 0.128790 0.883537
vt 0.279624 0.000207
vt 0.647112 0.643534
vt 0.553737 0.100153
vt 0.405240 0.100153
vt 0.143536 0.662784
vt 0.058871 0.000207
vt 0.143536 0.864702
vt 0.260789 0.000207
vt 0.058871 0.051823
vt 0.260789 0.051823
vt 0.015923 0.643948
vt 0.643037 0.000207
vt 0.287499 0.643534
vt 0.779299 0.000207
vt 0.015923 0.899288
vt 0.032160 0.643534
vt 0.073938 0.643948
vt 0.701052 0.000207
vt 0.607159 0.643534
vt 0.837315 0.000207
vt 0.073938 0.899288
vt 0.351819 0.643534
vt 0.400359 0.588530
vt 0.558618 0.588530
vt 0.000207 0.664022
vt 0.267425 0.643534
vt 0.000207 0.879214
vt 0.052234 0.643534
vt 0.267425 0.588525
vt 0.052234 0.588525
s 0
f 5/9/1 7/14/1 12/23/1 11/21/1
f 16/32/2 20/40/2 29/59/2 27/56/2
f 8/16/3 7/14/3 5/9/3 6/11/3
f 17/34/4 19/38/4 40/80/4 39/79/4
f 2/3/5 1/1/5 3/6/5 4/8/5
f 6/11/6 5/9/6 34/70/6 32/64/6
f 9/18/7 11/22/7 12/24/7 10/20/7
f 3/6/8 1/1/8 9/17/8 10/19/8
f 19/38/9 15/30/9 38/78/9 40/80/9
f 8/15/10 16/32/10 27/56/10 21/41/10
f 16/31/3 15/29/3 19/37/3 20/39/3
f 3/5/11 10/20/11 25/53/11 23/48/11
f 8/15/12 6/12/12 15/30/12 16/32/12
f 2/4/13 4/7/13 14/28/13 13/26/13
f 19/38/14 17/34/14 18/36/14 20/40/14
f 13/25/5 14/27/5 18/35/5 17/33/5
f 11/22/15 9/18/15 36/74/15 35/73/15
f 10/20/16 12/24/16 26/54/16 25/53/16
f 24/50/17 23/47/17 22/44/17 21/42/17
f 22/45/18 23/48/18 25/53/18 26/54/18
f 24/50/17 21/42/17 27/55/17 28/57/17
f 28/58/19 27/56/19 29/59/19 30/60/19
f 12/24/20 7/13/20 22/45/20 26/54/20
f 20/40/21 18/36/21 30/60/21 29/59/21
f 7/14/22 8/16/22 21/43/22 22/46/22
f 14/28/23 4/7/23 24/51/23 28/58/23
f 18/36/24 14/28/24 28/58/24 30/60/24
f 4/8/25 3/6/25 23/49/25 24/52/25
f 32/65/26 31/61/26 37/75/26 38/77/26
f 32/65/26 34/71/26 33/67/26 31/61/26
f 33/69/27 34/72/27 35/73/27 36/74/27
f 38/78/28 37/76/28 39/79/28 40/80/28
f 1/1/29 2/3/29 31/62/29 33/68/29
f 5/10/30 11/22/30 35/73/30 34/72/30
f 2/4/31 13/26/31 37/76/31 31/63/31
f 13/26/32 17/34/32 39/79/32 37/76/32
f 9/18/33 1/2/33 33/69/33 36/74/33
f 15/30/34 6/12/34 32/66/34 38/78/34
