# Blender 3.5.1
# www.blender.org
mtllib creature_eyeball.mtl
o Sphere
v 0.004199 0.004199 0.014337
v 0.007759 0.007759 0.010973
v 0.010138 0.010138 0.005939
v 0.010973 0.010973 0.000000
v 0.010138 0.010138 -0.005939
v 0.007759 0.007759 -0.010973
v 0.004199 0.004199 -0.014337
v 0.005939 -0.000000 0.014337
v 0.010973 -0.000000 0.010973
v 0.014337 -0.000000 0.005939
v 0.015518 0.000000 0.000000
v 0.014337 0.000000 -0.005939
v 0.010973 0.000000 -0.010973
v 0.005939 0.000000 -0.014337
v 0.004199 -0.004199 0.014337
v 0.007759 -0.007759 0.010973
v 0.010138 -0.010138 0.005939
v 0.010973 -0.010973 -0.000000
v 0.010138 -0.010138 -0.005939
v 0.007759 -0.007759 -0.010973
v 0.004199 -0.004199 -0.014337
v 0.000000 -0.005939 0.014337
v 0.000000 -0.010973 0.010973
v 0.000000 -0.014337 0.005939
v 0.000000 -0.015518 -0.000000
v 0.000000 -0.014337 -0.005939
v 0.000000 -0.010973 -0.010973
v 0.000000 -0.005939 -0.014337
v -0.004199 -0.004199 0.014337
v -0.007759 -0.007759 0.010973
v -0.010138 -0.010138 0.005939
v -0.010973 -0.010973 -0.000000
v -0.010138 -0.010138 -0.005939
v -0.007759 -0.007759 -0.010973
v -0.004199 -0.004199 -0.014337
v -0.005939 -0.000000 0.014337
v -0.010973 -0.000000 0.010973
v -0.014337 -0.000000 0.005939
v -0.015518 0.000000 0.000000
v -0.014337 0.000000 -0.005939
v -0.010973 0.000000 -0.010973
v -0.005939 0.000000 -0.014337
v -0.004199 0.004199 0.014337
v -0.007759 0.007759 0.010973
v -0.010138 0.010138 0.005939
v -0.010973 0.010973 0.000000
v -0.010138 0.010138 -0.005939
v -0.007759 0.007759 -0.010973
v -0.004199 0.004199 -0.014337
v 0.000000 0.000000 -0.015518
v 0.000000 -0.000000 0.015518
v 0.000000 0.005939 0.014337
v 0.000000 0.010973 0.010973
v 0.000000 0.014337 0.005939
v 0.000000 0.015518 0.000000
v 0.000000 0.014337 -0.005939
v 0.000000 0.010973 -0.010973
v 0.000000 0.005939 -0.014337
vn 0.2243 0.5414 -0.8103
vn 0.3764 0.9087 -0.1807
vn 0.3256 0.7862 0.5253
vn 0.0805 0.1945 0.9776
vn 0.0805 0.1945 -0.9776
vn 0.3256 0.7862 -0.5253
vn 0.3764 0.9087 0.1807
vn 0.2243 0.5414 0.8103
vn 0.1945 0.0805 -0.9776
vn 0.7862 0.3256 -0.5253
vn 0.9087 0.3764 0.1807
vn 0.5414 0.2243 0.8103
vn 0.5414 0.2243 -0.8103
vn 0.9087 0.3764 -0.1807
vn 0.7862 0.3256 0.5253
vn 0.1945 0.0805 0.9776
vn 0.9087 -0.3764 0.1807
vn 0.5414 -0.2243 0.8103
vn 0.5414 -0.2243 -0.8103
vn 0.9087 -0.3764 -0.1807
vn 0.7862 -0.3256 0.5253
vn 0.1945 -0.0805 0.9776
vn 0.1945 -0.0805 -0.9776
vn 0.7862 -0.3256 -0.5253
vn 0.2243 -0.5414 -0.8103
vn 0.3764 -0.9087 -0.1807
vn 0.3256 -0.7862 0.5253
vn 0.0805 -0.1945 0.9776
vn 0.0805 -0.1945 -0.9776
vn 0.3256 -0.7862 -0.5253
vn 0.3764 -0.9087 0.1807
vn 0.2243 -0.5414 0.8103
vn -0.3256 -0.7862 0.5253
vn -0.0805 -0.1945 0.9776
vn -0.0805 -0.1945 -0.9776
vn -0.3256 -0.7862 -0.5253
vn -0.3764 -0.9087 0.1807
vn -0.2243 -0.5414 0.8103
vn -0.2243 -0.5414 -0.8103
vn -0.3764 -0.9087 -0.1807
vn -0.1945 -0.0805 -0.9776
vn -0.7862 -0.3256 -0.5253
vn -0.9087 -0.3764 0.1807
vn -0.5414 -0.2243 0.8103
vn -0.5414 -0.2243 -0.8103
vn -0.9087 -0.3764 -0.1807
vn -0.7862 -0.3256 0.5253
vn -0.1945 -0.0805 0.9776
vn -0.5414 0.2243 0.8103
vn -0.5414 0.2243 -0.8103
vn -0.9087 0.3764 -0.1807
vn -0.7862 0.3256 0.5253
vn -0.1945 0.0805 0.9776
vn -0.1945 0.0805 -0.9776
vn -0.7862 0.3256 -0.5253
vn -0.9087 0.3764 0.1807
vn -0.2243 0.5414 -0.8103
vn -0.3764 0.9087 -0.1807
vn -0.3256 0.7862 0.5253
vn -0.0805 0.1945 0.9776
vn -0.0805 0.1945 -0.9776
vn -0.3256 0.7862 -0.5253
vn -0.3764 0.9087 0.1807
vn -0.2243 0.5414 0.8103
vt 0.625000 0.875000
vt 0.625000 0.750000
vt 0.625000 0.625000
vt 0.625000 0.500000
vt 0.625000 0.375000
vt 0.625000 0.250000
vt 0.625000 0.125000
vt 0.500000 0.875000
vt 0.500000 0.750000
vt 0.500000 0.625000
vt 0.500000 0.500000
vt 0.500000 0.375000
vt 0.500000 0.250000
vt 0.500000 0.125000
vt 0.375000 0.875000
vt 0.375000 0.750000
vt 0.375000 0.625000
vt 0.375000 0.500000
vt 0.375000 0.375000
vt 0.375000 0.250000
vt 0.375000 0.125000
vt 0.250000 0.875000
vt 0.250000 0.750000
vt 0.250000 0.625000
vt 0.250000 0.500000
vt 0.250000 0.375000
vt 0.250000 0.250000
vt 0.250000 0.125000
vt 0.125000 0.875000
vt 0.125000 0.750000
vt 0.125000 0.625000
vt 0.125000 0.500000
vt 0.125000 0.375000
vt 0.125000 0.250000
vt 0.125000 0.125000
vt 0.000000 0.875000
vt 1.000000 0.875000
vt 0.000000 0.750000
vt 1.000000 0.750000
vt 0.000000 0.625000
vt 1.000000 0.625000
vt 0.000000 0.500000
vt 1.000000 0.500000
vt 0.000000 0.375000
vt 1.000000 0.375000
vt 0.000000 0.250000
vt 1.000000 0.250000
vt 0.000000 0.125000
vt 1.000000 0.125000
vt 0.875000 0.875000
vt 0.875000 0.750000
vt 0.875000 0.625000
vt 0.875000 0.500000
vt 0.875000 0.375000
vt 0.875000 0.250000
vt 0.875000 0.125000
vt 0.687500 0.000000
vt 0.562500 0.000000
vt 0.437500 0.000000
vt 0.312500 0.000000
vt 0.187500 0.000000
vt 0.062500 0.000000
vt 0.937500 0.000000
vt 0.812500 0.000000
vt 0.687500 1.000000
vt 0.562500 1.000000
vt 0.437500 1.000000
vt 0.312500 1.000000
vt 0.187500 1.000000
vt 0.062500 1.000000
vt 0.937500 1.000000
vt 0.812500 1.000000
vt 0.750000 0.875000
vt 0.750000 0.750000
vt 0.750000 0.625000
vt 0.750000 0.500000
vt 0.750000 0.375000
vt 0.750000 0.250000
vt 0.750000 0.125000
s 0
f 58/79/1 57/78/1 6/6/1 7/7/1
f 56/77/2 55/76/2 4/4/2 5/5/2
f 54/75/3 53/74/3 2/2/3 3/3/3
f 52/73/4 51/65/4 1/1/4
f 50/57/5 58/79/5 7/7/5
f 57/78/6 56/77/6 5/5/6 6/6/6
f 55/76/7 54/75/7 3/3/7 4/4/7
f 53/74/8 52/73/8 1/1/8 2/2/8
f 50/58/9 7/7/9 14/14/9
f 6/6/10 5/5/10 12/12/10 13/13/10
f 4/4/11 3/3/11 10/10/11 11/11/11
f 2/2/12 1/1/12 8/8/12 9/9/12
f 7/7/13 6/6/13 13/13/13 14/14/13
f 5/5/14 4/4/14 11/11/14 12/12/14
f 3/3/15 2/2/15 9/9/15 10/10/15
f 1/1/16 51/66/16 8/8/16
f 11/11/17 10/10/17 17/17/17 18/18/17
f 9/9/18 8/8/18 15/15/18 16/16/18
f 14/14/19 13/13/19 20/20/19 21/21/19
f 12/12/20 11/11/20 18/18/20 19/19/20
f 10/10/21 9/9/21 16/16/21 17/17/21
f 8/8/22 51/67/22 15/15/22
f 50/59/23 14/14/23 21/21/23
f 13/13/24 12/12/24 19/19/24 20/20/24
f 21/21/25 20/20/25 27/27/25 28/28/25
f 19/19/26 18/18/26 25/25/26 26/26/26
f 17/17/27 16/16/27 23/23/27 24/24/27
f 15/15/28 51/68/28 22/22/28
f 50/60/29 21/21/29 28/28/29
f 20/20/30 19/19/30 26/26/30 27/27/30
f 18/18/31 17/17/31 24/24/31 25/25/31
f 16/16/32 15/15/32 22/22/32 23/23/32
f 24/24/33 23/23/33 30/30/33 31/31/33
f 22/22/34 51/69/34 29/29/34
f 50/61/35 28/28/35 35/35/35
f 27/27/36 26/26/36 33/33/36 34/34/36
f 25/25/37 24/24/37 31/31/37 32/32/37
f 23/23/38 22/22/38 29/29/38 30/30/38
f 28/28/39 27/27/39 34/34/39 35/35/39
f 26/26/40 25/25/40 32/32/40 33/33/40
f 50/62/41 35/35/41 42/48/41
f 34/34/42 33/33/42 40/44/42 41/46/42
f 32/32/43 31/31/43 38/40/43 39/42/43
f 30/30/44 29/29/44 36/36/44 37/38/44
f 35/35/45 34/34/45 41/46/45 42/48/45
f 33/33/46 32/32/46 39/42/46 40/44/46
f 31/31/47 30/30/47 37/38/47 38/40/47
f 29/29/48 51/70/48 36/36/48
f 37/39/49 36/37/49 43/50/49 44/51/49
f 42/49/50 41/47/50 48/55/50 49/56/50
f 40/45/51 39/43/51 46/53/51 47/54/51
f 38/41/52 37/39/52 44/51/52 45/52/52
f 36/37/53 51/71/53 43/50/53
f 50/63/54 42/49/54 49/56/54
f 41/47/55 40/45/55 47/54/55 48/55/55
f 39/43/56 38/41/56 45/52/56 46/53/56
f 49/56/57 48/55/57 57/78/57 58/79/57
f 47/54/58 46/53/58 55/76/58 56/77/58
f 45/52/59 44/51/59 53/74/59 54/75/59
f 43/50/60 51/72/60 52/73/60
f 50/64/61 49/56/61 58/79/61
f 48/55/62 47/54/62 56/77/62 57/78/62
f 46/53/63 45/52/63 54/75/63 55/76/63
f 44/51/64 43/50/64 52/73/64 53/74/64
