# Blender 3.5.1
# www.blender.org
mtllib granate_turret.mtl
o Cube.004
v -6.007859 1.336280 -0.680489
v -6.007859 1.437869 -0.680489
v -6.007859 1.336280 -1.300780
v -6.007859 1.437869 -1.300780
v -5.257905 1.336280 -0.680489
v -5.257905 1.437869 -0.680489
v -5.257905 1.336280 -1.300780
v -5.257905 1.437869 -1.300780
v -5.850158 1.437869 -1.539441
v -5.850158 1.336280 -1.539441
v -5.415606 1.336280 -1.539441
v -5.415606 1.437869 -1.539441
v -5.743650 1.336280 -0.554340
v -5.743650 1.437869 -0.554340
v -5.522114 1.437869 -0.554340
v -5.522114 1.336280 -0.554340
v -6.007859 1.437869 -0.990634
v -5.632882 1.437869 -1.300780
v -5.257905 1.437869 -0.990634
v -5.632882 1.437869 -0.680489
v -6.007859 1.751502 -0.990634
v -6.007859 1.437869 -1.145707
v -5.349463 1.437869 -1.300780
v -5.257905 1.437869 -0.835562
v -5.916301 1.437869 -0.680489
v -6.007859 1.437869 -0.835562
v -5.916301 1.437869 -1.300780
v -5.257905 1.437869 -1.145707
v -5.349463 1.437869 -0.680489
v -6.007859 1.751502 -0.924915
v -5.257905 1.751502 -1.056354
v -5.349463 1.437869 -0.990634
v -5.916301 1.437869 -0.990634
v -5.916301 1.437869 -1.145707
v -5.349463 1.437869 -1.145707
v -5.349463 1.437869 -0.835562
v -5.916301 1.437869 -0.835562
v -6.007859 1.633649 -0.835562
v -6.007859 1.633649 -0.990634
v -5.257905 1.633649 -1.145707
v -5.257905 1.633649 -0.990634
v -5.349463 1.633649 -0.990634
v -6.007859 1.633649 -1.145707
v -5.257905 1.633649 -0.835562
v -5.916301 1.633649 -0.990634
v -5.916301 1.633649 -1.145707
v -5.349463 1.633649 -1.145707
v -5.349463 1.633649 -0.835562
v -5.916301 1.633649 -0.835562
v -5.257905 1.751502 -0.990634
v -5.349463 1.751502 -0.990634
v -6.007859 1.751502 -1.056354
v -5.257905 1.751502 -0.924915
v -5.916301 1.751502 -0.990634
v -5.916301 1.751502 -1.056354
v -5.349463 1.751502 -1.056354
v -5.349463 1.751502 -0.924915
v -5.916301 1.751502 -0.924915
v -5.469123 1.604072 -1.464711
v -5.416221 1.604072 -1.464711
v -5.850158 1.604072 -1.539441
v -5.415606 1.604072 -1.539441
v -5.849544 1.604072 -1.464711
v -5.796641 1.604072 -1.464711
v -5.632882 1.604072 -1.464711
vn -1.0000 -0.0000 -0.0000
vn 1.0000 -0.0000 -0.0000
vn -0.4309 -0.0000 0.9024
vn -0.0000 -1.0000 -0.0000
vn -0.0000 1.0000 -0.0000
vn -0.0000 -0.0000 -1.0000
vn -0.8343 -0.0000 -0.5513
vn 0.8343 -0.0000 -0.5513
vn -0.0000 -0.0000 1.0000
vn 0.4309 -0.0000 0.9024
vn -0.0000 0.6042 0.7969
vn -0.0000 0.6042 -0.7969
vn -0.8758 0.2006 -0.4390
vn 0.8758 0.2006 -0.4390
vn -0.0000 0.7022 0.7120
vt 0.375000 0.000000
vt 0.125000 0.750000
vt 0.625000 0.000000
vt 0.875000 0.750000
vt 0.375000 0.250000
vt 0.125000 0.500000
vt 0.625000 0.250000
vt 0.875000 0.500000
vt 0.375000 0.750000
vt 0.625000 0.750000
vt 0.375000 0.500000
vt 0.625000 0.500000
vt 0.625000 0.250000
vt 0.375000 0.250000
vt 0.125000 0.500000
vt 0.375000 0.500000
vt 0.625000 0.500000
vt 0.375000 0.000000
vt 0.375000 1.000000
vt 0.125000 0.750000
vt 0.625000 0.000000
vt 0.625000 1.000000
vt 0.875000 0.750000
vt 0.625000 0.750000
vt 0.375000 0.750000
vt 0.625000 0.125000
vt 0.750000 0.500000
vt 0.625000 0.625000
vt 0.750000 0.750000
vt 0.875000 0.625000
vt 0.625000 0.125000
vt 0.875000 0.562500
vt 0.625000 0.187500
vt 0.687500 0.500000
vt 0.625000 0.687500
vt 0.812500 0.750000
vt 0.625000 0.062500
vt 0.875000 0.687500
vt 0.812500 0.500000
vt 0.625000 0.562500
vt 0.687500 0.750000
vt 0.875000 0.687500
vt 0.625000 0.062500
vt 0.625000 0.562500
vt 0.687500 0.625000
vt 0.812500 0.625000
vt 0.812500 0.562500
vt 0.687500 0.562500
vt 0.687500 0.687500
vt 0.812500 0.687500
vt 0.875000 0.687500
vt 0.625000 0.062500
vt 0.625000 0.125000
vt 0.625000 0.562500
vt 0.625000 0.625000
vt 0.687500 0.625000
vt 0.625000 0.187500
vt 0.875000 0.562500
vt 0.625000 0.687500
vt 0.812500 0.625000
vt 0.812500 0.562500
vt 0.687500 0.562500
vt 0.687500 0.687500
vt 0.812500 0.687500
vt 0.625000 0.625000
vt 0.687500 0.625000
vt 0.625000 0.187500
vt 0.875000 0.562500
vt 0.625000 0.687500
vt 0.812500 0.625000
vt 0.812500 0.562500
vt 0.687500 0.562500
vt 0.687500 0.687500
vt 0.812500 0.687500
vt 0.687500 0.500000
vt 0.625000 0.500000
vt 0.875000 0.500000
vt 0.625000 0.250000
vt 0.625000 0.500000
vt 0.625000 0.250000
vt 0.875000 0.500000
vt 0.812500 0.500000
vt 0.750000 0.500000
s 0
f 1/1/1 2/3/1 26/37/1 17/26/1 22/33/1 4/7/1 3/5/1
f 7/11/2 8/12/2 28/40/2 19/28/2 24/35/2 6/10/2 5/9/2
f 2/3/3 1/1/3 13/18/3 14/21/3
f 3/6/4 7/11/4 5/9/4 1/2/4
f 37/50/5 26/38/5 2/4/5 25/36/5
f 10/14/6 9/13/6 12/17/6 11/16/6
f 3/5/7 4/7/7 9/13/7 10/14/7
f 8/12/8 7/11/8 11/16/8 12/17/8
f 7/11/4 3/6/4 10/15/4 11/16/4
f 16/25/9 15/24/9 14/22/9 13/19/9
f 1/2/4 5/9/4 16/25/4 13/20/4
f 6/10/5 29/41/5 20/29/5 25/36/5 2/4/5 14/23/5 15/24/5
f 5/9/10 6/10/10 15/24/10 16/25/10
f 32/45/5 35/48/5 23/34/5 18/27/5 27/39/5 34/47/5 33/46/5 37/50/5 25/36/5 20/29/5 29/41/5 36/49/5
f 45/60/2 46/61/2 55/71/2 54/70/2
f 34/47/6 22/32/6 43/58/6 46/61/6
f 38/51/11 49/64/11 58/74/11 30/42/11
f 54/70/5 21/30/5 30/42/5 58/74/5
f 27/39/5 4/8/5 22/32/5 34/47/5
f 37/50/2 33/46/2 45/60/2 49/64/2
f 8/12/5 23/34/5 35/48/5 28/40/5
f 40/54/12 47/62/12 56/72/12 31/44/12
f 24/35/5 36/49/5 29/41/5 6/10/5
f 28/40/6 35/48/6 47/62/6 40/54/6
f 31/44/5 56/72/5 51/66/5 50/65/5
f 43/57/1 39/53/1 21/31/1 52/67/1
f 50/65/5 51/66/5 57/73/5 53/69/5
f 19/28/2 28/40/2 40/54/2 41/55/2
f 49/64/2 45/60/2 54/70/2 58/74/2
f 47/62/1 42/56/1 51/66/1 56/72/1
f 41/55/2 40/54/2 31/44/2 50/65/2
f 48/63/11 44/59/11 53/69/11 57/73/11
f 36/49/9 24/35/9 44/59/9 48/63/9
f 33/46/2 34/47/2 46/61/2 45/60/2
f 24/35/2 19/28/2 41/55/2 44/59/2
f 17/26/1 26/37/1 38/52/1 39/53/1
f 35/48/1 32/45/1 42/56/1 47/62/1
f 26/38/9 37/50/9 49/64/9 38/51/9
f 22/33/1 17/26/1 39/53/1 43/57/1
f 32/45/1 36/49/1 48/63/1 42/56/1
f 55/71/5 52/68/5 21/30/5 54/70/5
f 42/56/1 48/63/1 57/73/1 51/66/1
f 39/53/1 38/52/1 30/43/1 21/31/1
f 46/61/12 43/58/12 52/68/12 55/71/12
f 44/59/2 41/55/2 50/65/2 53/69/2
f 63/81/5 64/82/5 65/83/5 59/75/5 60/76/5 62/79/5 61/77/5
f 9/13/13 4/7/13 63/80/13 61/78/13
f 8/12/14 12/17/14 62/79/14 60/76/14
f 12/17/6 9/13/6 61/78/6 62/79/6
f 4/8/15 27/39/15 18/27/15 23/34/15 8/12/15 60/76/15 59/75/15 65/83/15 64/82/15 63/81/15
