# Blender 3.5.1
# www.blender.org
mtllib rocket-cannon.mtl
o Cube.017
v 0.000000 -0.165060 -0.207999
v -0.030881 -0.162018 -0.207999
v -0.060575 -0.153011 -0.207999
v -0.087941 -0.138383 -0.207999
v -0.111928 -0.118698 -0.207999
v -0.131613 -0.094711 -0.207999
v -0.146241 -0.067345 -0.207999
v -0.155248 -0.037651 -0.207999
v -0.158290 -0.006770 -0.207999
v -0.155248 0.024111 -0.207999
v -0.146241 0.053805 -0.207999
v -0.131613 0.081171 -0.207999
v -0.111928 0.105158 -0.207999
v -0.087941 0.124843 -0.207999
v -0.060575 0.139471 -0.207999
v -0.030881 0.148478 -0.207999
v 0.000000 0.151520 -0.207999
v 0.030881 0.148478 -0.207999
v 0.060575 0.139471 -0.207999
v 0.087941 0.124843 -0.207999
v 0.111928 0.105158 -0.207999
v 0.131613 0.081171 -0.207999
v 0.146241 0.053805 -0.207999
v 0.155248 0.024111 -0.207999
v 0.158290 -0.006770 -0.207999
v 0.155248 -0.037651 -0.207999
v 0.146241 -0.067345 -0.207999
v 0.131613 -0.094711 -0.207999
v 0.111928 -0.118698 -0.207999
v 0.087941 -0.138383 -0.207999
v 0.060575 -0.153011 -0.207999
v 0.030881 -0.162018 -0.207999
v -0.264911 -0.183262 0.891108
v -0.183262 -0.264911 0.891108
v -0.183262 0.264911 0.891108
v -0.264911 0.183262 0.891108
v -0.183262 -0.264911 -0.891108
v -0.264911 -0.183262 -0.891108
v -0.264911 0.183262 -0.891108
v -0.183262 0.264911 -0.891108
v 0.183262 -0.264911 0.891108
v 0.264911 -0.183262 0.891108
v 0.264911 0.183262 0.891108
v 0.183262 0.264911 0.891108
v 0.264911 -0.183262 -0.891108
v 0.183262 -0.264911 -0.891108
v 0.183262 0.264911 -0.891108
v 0.264911 0.183262 -0.891108
v -0.478058 -0.000050 -0.180371
v 0.478058 -0.000050 -0.180371
v -0.478058 -0.035239 -0.176905
v 0.478058 -0.035239 -0.176905
v -0.478058 -0.069075 -0.166641
v 0.478058 -0.069075 -0.166641
v -0.478058 -0.100259 -0.149973
v 0.478058 -0.100259 -0.149973
v -0.478058 -0.127592 -0.127542
v 0.478058 -0.127592 -0.127542
v -0.478058 -0.150023 -0.100209
v 0.478058 -0.150023 -0.100209
v -0.478058 -0.166691 -0.069025
v 0.478058 -0.166691 -0.069025
v -0.478058 -0.176955 -0.035189
v 0.478058 -0.176955 -0.035189
v -0.478058 -0.180421 -0.000000
v 0.478058 -0.180421 -0.000000
v -0.478058 -0.176955 0.035189
v 0.478058 -0.176955 0.035189
v -0.478058 -0.166691 0.069025
v 0.478058 -0.166691 0.069025
v -0.478058 -0.150023 0.100209
v 0.478058 -0.150023 0.100209
v -0.478058 -0.127592 0.127542
v 0.478058 -0.127592 0.127542
v -0.478058 -0.100259 0.149973
v 0.478058 -0.100259 0.149973
v -0.478058 -0.069075 0.166641
v 0.478058 -0.069075 0.166641
v -0.478058 -0.035239 0.176905
v 0.478058 -0.035239 0.176905
v -0.478058 -0.000050 0.180371
v 0.478058 -0.000050 0.180371
v -0.478058 0.035139 0.176905
v 0.478058 0.035139 0.176905
v -0.478058 0.068975 0.166641
v 0.478058 0.068975 0.166641
v -0.478058 0.100159 0.149973
v 0.478058 0.100159 0.149973
v -0.478058 0.127492 0.127542
v 0.478058 0.127492 0.127542
v -0.478058 0.149923 0.100209
v 0.478058 0.149923 0.100209
v -0.478058 0.166591 0.069025
v 0.478058 0.166591 0.069025
v -0.478058 0.176855 0.035189
v 0.478058 0.176855 0.035189
v -0.478058 0.180321 -0.000000
v 0.478058 0.180321 -0.000000
v -0.478058 0.176855 -0.035189
v 0.478058 0.176855 -0.035189
v -0.478058 0.166591 -0.069025
v 0.478058 0.166591 -0.069025
v -0.478058 0.149923 -0.100209
v 0.478058 0.149923 -0.100209
v -0.478058 0.127492 -0.127542
v 0.478058 0.127492 -0.127542
v -0.478058 0.100159 -0.149973
v 0.478058 0.100159 -0.149973
v -0.478058 0.068975 -0.166641
v 0.478058 0.068975 -0.166641
v -0.478058 0.035139 -0.176905
v 0.478058 0.035139 -0.176905
v 0.146241 -0.067345 -0.891108
v 0.131613 -0.094711 -0.891108
v -0.060575 -0.153011 -0.891108
v -0.030881 -0.162018 -0.891108
v 0.155248 -0.037651 -0.891108
v -0.111928 -0.118698 -0.891108
v -0.087941 0.124843 -0.891108
v -0.060575 0.139471 -0.891108
v -0.131613 -0.094711 -0.891108
v -0.030881 0.148478 -0.891108
v 0.060575 0.139471 -0.891108
v 0.158290 -0.006770 -0.891108
v 0.060575 -0.153011 -0.891108
v 0.087941 0.124843 -0.891108
v -0.155248 0.024111 -0.891108
v -0.111928 0.105158 -0.891108
v -0.146241 0.053805 -0.891108
v -0.158290 -0.006770 -0.891108
v 0.111928 -0.118698 -0.891108
v 0.087941 -0.138383 -0.891108
v 0.000000 0.151520 -0.891108
v 0.000000 -0.165060 -0.891108
v -0.155248 -0.037651 -0.891108
v -0.087941 -0.138383 -0.891108
v -0.146241 -0.067345 -0.891108
v 0.146241 0.053805 -0.891108
v 0.131613 0.081171 -0.891108
v 0.155248 0.024111 -0.891108
v 0.111928 0.105158 -0.891108
v 0.030881 0.148478 -0.891108
v -0.131613 0.081171 -0.891108
v 0.030881 -0.162018 -0.891108
v 0.091809 0.129223 -0.465424
v 0.091809 0.455703 -0.465424
v 0.091809 0.129223 -0.799080
v 0.091809 0.455703 -0.799080
v 0.255278 0.129223 -0.465424
v 0.255278 0.455703 -0.465424
v 0.255278 0.129223 -0.799080
v 0.255278 0.455703 -0.799080
vn 0.0980 0.9952 -0.0000
vn 0.2903 0.9569 -0.0000
vn 0.4714 0.8819 -0.0000
vn 0.6344 0.7730 -0.0000
vn 0.7730 0.6344 -0.0000
vn 0.8819 0.4714 -0.0000
vn 0.9569 0.2903 -0.0000
vn 0.9952 0.0980 -0.0000
vn 0.9952 -0.0980 -0.0000
vn 0.9569 -0.2903 -0.0000
vn 0.8819 -0.4714 -0.0000
vn 0.7730 -0.6344 -0.0000
vn 0.6344 -0.7730 -0.0000
vn 0.4714 -0.8819 -0.0000
vn 0.2903 -0.9569 -0.0000
vn 0.0980 -0.9952 -0.0000
vn -0.0980 -0.9952 -0.0000
vn -0.2903 -0.9569 -0.0000
vn -0.4714 -0.8819 -0.0000
vn -0.6344 -0.7730 -0.0000
vn -0.7730 -0.6344 -0.0000
vn -0.8819 -0.4714 -0.0000
vn -0.9569 -0.2903 -0.0000
vn -0.9952 -0.0980 -0.0000
vn -0.9952 0.0980 -0.0000
vn -0.9569 0.2903 -0.0000
vn -0.8819 0.4714 -0.0000
vn -0.7730 0.6344 -0.0000
vn -0.6344 0.7730 -0.0000
vn -0.4714 0.8819 -0.0000
vn -0.2903 0.9569 -0.0000
vn -0.0980 0.9952 -0.0000
vn -0.0000 -0.0000 -1.0000
vn -0.0000 -0.0000 1.0000
vn 1.0000 -0.0000 -0.0000
vn -0.0000 1.0000 -0.0000
vn -1.0000 -0.0000 -0.0000
vn -0.7071 -0.7071 -0.0000
vn -0.7071 0.7071 -0.0000
vn 0.7071 -0.7071 -0.0000
vn 0.7071 0.7071 -0.0000
vn -0.0000 -1.0000 -0.0000
vn -0.0000 -0.0980 -0.9952
vn -0.0000 -0.2903 -0.9569
vn -0.0000 -0.4714 -0.8819
vn -0.0000 -0.6344 -0.7730
vn -0.0000 -0.7730 -0.6344
vn -0.0000 -0.8819 -0.4714
vn -0.0000 -0.9569 -0.2903
vn -0.0000 -0.9952 -0.0980
vn -0.0000 -0.9952 0.0980
vn -0.0000 -0.9569 0.2903
vn -0.0000 -0.8819 0.4714
vn -0.0000 -0.7730 0.6344
vn -0.0000 -0.6344 0.7730
vn -0.0000 -0.4714 0.8819
vn -0.0000 -0.2903 0.9569
vn -0.0000 -0.0980 0.9952
vn -0.0000 0.0980 0.9952
vn -0.0000 0.2903 0.9569
vn -0.0000 0.4714 0.8819
vn -0.0000 0.6344 0.7730
vn -0.0000 0.7730 0.6344
vn -0.0000 0.8819 0.4714
vn -0.0000 0.9569 0.2903
vn -0.0000 0.9952 0.0980
vn -0.0000 0.9952 -0.0980
vn -0.0000 0.9569 -0.2903
vn -0.0000 0.8819 -0.4714
vn -0.0000 0.7730 -0.6344
vn -0.0000 0.6344 -0.7730
vn -0.0000 0.4714 -0.8819
vn -0.0000 0.2903 -0.9569
vn -0.0000 0.0980 -0.9952
vt 1.000000 0.500000
vt 0.000000 0.500000
vt 0.750000 0.490000
vt 0.968750 0.500000
vt 0.796822 0.485388
vt 0.937500 0.500000
vt 0.841844 0.471731
vt 0.906250 0.500000
vt 0.883337 0.449553
vt 0.875000 0.500000
vt 0.919706 0.419706
vt 0.843750 0.500000
vt 0.949553 0.383337
vt 0.812500 0.500000
vt 0.971731 0.341844
vt 0.781250 0.500000
vt 0.985388 0.296822
vt 0.750000 0.500000
vt 0.990000 0.250000
vt 0.718750 0.500000
vt 0.985388 0.203178
vt 0.687500 0.500000
vt 0.971731 0.158156
vt 0.656250 0.500000
vt 0.949553 0.116663
vt 0.625000 0.500000
vt 0.919706 0.080294
vt 0.593750 0.500000
vt 0.883337 0.050447
vt 0.562500 0.500000
vt 0.841844 0.028269
vt 0.531250 0.500000
vt 0.796822 0.014612
vt 0.500000 0.500000
vt 0.750000 0.010000
vt 0.468750 0.500000
vt 0.703178 0.014612
vt 0.437500 0.500000
vt 0.658156 0.028269
vt 0.406250 0.500000
vt 0.616663 0.050447
vt 0.375000 0.500000
vt 0.580294 0.080294
vt 0.343750 0.500000
vt 0.550447 0.116663
vt 0.312500 0.500000
vt 0.528269 0.158156
vt 0.281250 0.500000
vt 0.514612 0.203178
vt 0.250000 0.500000
vt 0.510000 0.250000
vt 0.218750 0.500000
vt 0.514612 0.296822
vt 0.187500 0.500000
vt 0.528269 0.341844
vt 0.156250 0.500000
vt 0.550447 0.383337
vt 0.125000 0.500000
vt 0.580294 0.419706
vt 0.093750 0.500000
vt 0.616663 0.449553
vt 0.062500 0.500000
vt 0.658156 0.471731
vt 0.031250 0.500000
vt 0.703178 0.485388
vt 0.413527 1.000000
vt 0.413527 0.000000
vt 0.125000 0.750000
vt 0.375000 0.961473
vt 0.163527 0.750000
vt 0.625000 0.961473
vt 0.836473 0.750000
vt 0.625000 0.000000
vt 0.586473 1.000000
vt 0.586473 0.000000
vt 0.375000 0.288527
vt 0.163527 0.500000
vt 0.125000 0.500000
vt 0.413527 0.250000
vt 0.586473 0.250000
vt 0.836473 0.500000
vt 0.625000 0.250000
vt 0.625000 0.288527
vt 0.375000 0.788527
vt 0.336473 0.750000
vt 0.413527 0.750000
vt 0.586473 0.750000
vt 0.625000 0.788527
vt 0.663527 0.750000
vt 0.413527 0.500000
vt 0.375000 0.461473
vt 0.336473 0.500000
vt 0.663527 0.500000
vt 0.625000 0.461473
vt 0.586473 0.500000
vt 1.000000 0.500000
vt 0.000000 0.500000
vt 0.750000 0.490000
vt 1.000000 1.000000
vt 0.250000 0.490000
vt 0.000000 1.000000
vt 0.968750 0.500000
vt 0.796822 0.485388
vt 0.968750 1.000000
vt 0.296822 0.485388
vt 0.937500 0.500000
vt 0.841844 0.471731
vt 0.937500 1.000000
vt 0.341844 0.471731
vt 0.906250 0.500000
vt 0.883337 0.449553
vt 0.906250 1.000000
vt 0.383337 0.449553
vt 0.875000 0.500000
vt 0.919706 0.419706
vt 0.875000 1.000000
vt 0.419706 0.419706
vt 0.843750 0.500000
vt 0.949553 0.383337
vt 0.843750 1.000000
vt 0.449553 0.383337
vt 0.812500 0.500000
vt 0.971731 0.341844
vt 0.812500 1.000000
vt 0.471731 0.341844
vt 0.781250 0.500000
vt 0.985388 0.296822
vt 0.781250 1.000000
vt 0.485388 0.296822
vt 0.750000 0.500000
vt 0.990000 0.250000
vt 0.750000 1.000000
vt 0.490000 0.250000
vt 0.718750 0.500000
vt 0.985388 0.203178
vt 0.718750 1.000000
vt 0.485388 0.203178
vt 0.687500 0.500000
vt 0.971731 0.158156
vt 0.687500 1.000000
vt 0.471731 0.158156
vt 0.656250 0.500000
vt 0.949553 0.116663
vt 0.656250 1.000000
vt 0.449553 0.116663
vt 0.625000 0.500000
vt 0.919706 0.080294
vt 0.625000 1.000000
vt 0.419706 0.080294
vt 0.593750 0.500000
vt 0.883337 0.050447
vt 0.593750 1.000000
vt 0.383337 0.050447
vt 0.562500 0.500000
vt 0.841844 0.028269
vt 0.562500 1.000000
vt 0.341844 0.028269
vt 0.531250 0.500000
vt 0.796822 0.014612
vt 0.531250 1.000000
vt 0.296822 0.014612
vt 0.500000 0.500000
vt 0.750000 0.010000
vt 0.500000 1.000000
vt 0.250000 0.010000
vt 0.468750 0.500000
vt 0.703178 0.014612
vt 0.468750 1.000000
vt 0.203178 0.014612
vt 0.437500 0.500000
vt 0.658156 0.028269
vt 0.437500 1.000000
vt 0.158156 0.028269
vt 0.406250 0.500000
vt 0.616663 0.050447
vt 0.406250 1.000000
vt 0.116663 0.050447
vt 0.375000 0.500000
vt 0.580294 0.080294
vt 0.375000 1.000000
vt 0.080294 0.080294
vt 0.343750 0.500000
vt 0.550447 0.116663
vt 0.343750 1.000000
vt 0.050447 0.116663
vt 0.312500 0.500000
vt 0.528269 0.158156
vt 0.312500 1.000000
vt 0.028269 0.158156
vt 0.281250 0.500000
vt 0.514612 0.203178
vt 0.281250 1.000000
vt 0.014612 0.203178
vt 0.250000 0.500000
vt 0.510000 0.250000
vt 0.250000 1.000000
vt 0.010000 0.250000
vt 0.218750 0.500000
vt 0.514612 0.296822
vt 0.218750 1.000000
vt 0.014612 0.296822
vt 0.187500 0.500000
vt 0.528269 0.341844
vt 0.187500 1.000000
vt 0.028269 0.341844
vt 0.156250 0.500000
vt 0.550447 0.383337
vt 0.156250 1.000000
vt 0.050447 0.383337
vt 0.125000 0.500000
vt 0.580294 0.419706
vt 0.125000 1.000000
vt 0.080294 0.419706
vt 0.093750 0.500000
vt 0.616663 0.449553
vt 0.093750 1.000000
vt 0.116663 0.449553
vt 0.062500 0.500000
vt 0.658156 0.471731
vt 0.158156 0.471731
vt 0.062500 1.000000
vt 0.031250 0.500000
vt 0.703178 0.485388
vt 0.203178 0.485388
vt 0.031250 1.000000
vt 0.187500 0.587969
vt 0.468223 0.444005
vt 0.156250 0.587969
vt 0.455310 0.437103
vt 0.937500 0.587969
vt 0.427801 0.346417
vt 0.968750 0.587969
vt 0.423550 0.360429
vt 0.218750 0.587969
vt 0.482234 0.448255
vt 0.875000 0.587969
vt 0.443992 0.322186
vt 0.593750 0.587969
vt 0.558908 0.333504
vt 0.562500 0.587969
vt 0.565810 0.346417
vt 0.843750 0.587969
vt 0.455310 0.312897
vt 0.531250 0.587969
vt 0.570060 0.360429
vt 0.437500 0.587969
vt 0.565810 0.403583
vt 0.250000 0.587969
vt 0.496805 0.449690
vt 0.062500 0.587969
vt 0.427801 0.403583
vt 0.406250 0.587969
vt 0.558908 0.416496
vt 0.718750 0.587969
vt 0.511377 0.301745
vt 0.625000 0.587969
vt 0.549619 0.322186
vt 0.687500 0.587969
vt 0.525388 0.305995
vt 0.750000 0.587969
vt 0.496805 0.300310
vt 0.125000 0.587969
vt 0.443992 0.427814
vt 0.093750 0.587969
vt 0.434703 0.416496
vt 0.500000 0.587969
vt 0.571496 0.375000
vt 1.000000 0.587969
vt 0.000000 0.587969
vt 0.422115 0.375000
vt 0.781250 0.587969
vt 0.482234 0.301745
vt 0.906250 0.587969
vt 0.434703 0.333504
vt 0.812500 0.587969
vt 0.468223 0.305995
vt 0.312500 0.587969
vt 0.525388 0.444005
vt 0.343750 0.587969
vt 0.538301 0.437103
vt 0.281250 0.587969
vt 0.511377 0.448255
vt 0.375000 0.587969
vt 0.549619 0.427814
vt 0.468750 0.587969
vt 0.570060 0.389571
vt 0.656250 0.587969
vt 0.538301 0.312897
vt 0.031250 0.587969
vt 0.423550 0.389571
vt 0.375000 0.000000
vt 0.375000 1.000000
vt 0.125000 0.750000
vt 0.625000 0.000000
vt 0.625000 1.000000
vt 0.875000 0.750000
vt 0.375000 0.250000
vt 0.125000 0.500000
vt 0.625000 0.250000
vt 0.875000 0.500000
vt 0.375000 0.750000
vt 0.625000 0.750000
vt 0.375000 0.500000
vt 0.625000 0.500000
s 0
f 1/1/1 134/268/1 116/232/1 2/4/1
f 2/4/2 116/232/2 115/230/2 3/6/2
f 3/6/3 115/230/3 136/273/3 4/8/3
f 4/8/4 136/273/4 118/236/4 5/10/4
f 5/10/5 118/236/5 121/242/5 6/12/5
f 6/12/6 121/242/6 137/275/6 7/14/6
f 7/14/7 137/275/7 135/271/7 8/16/7
f 8/16/8 135/271/8 130/260/8 9/18/8
f 9/18/9 130/260/9 127/254/9 10/20/9
f 10/20/10 127/254/10 129/258/10 11/22/10
f 11/22/11 129/258/11 143/287/11 12/24/11
f 12/24/12 143/287/12 128/256/12 13/26/12
f 13/26/13 128/256/13 119/238/13 14/28/13
f 14/28/14 119/238/14 120/240/14 15/30/14
f 15/30/15 120/240/15 122/244/15 16/32/15
f 16/32/16 122/244/16 133/266/16 17/34/16
f 17/34/17 133/266/17 142/285/17 18/36/17
f 18/36/18 142/285/18 123/246/18 19/38/18
f 19/38/19 123/246/19 126/252/19 20/40/19
f 20/40/20 126/252/20 141/283/20 21/42/20
f 21/42/21 141/283/21 139/279/21 22/44/21
f 22/44/22 139/279/22 138/277/22 23/46/22
f 23/46/23 138/277/23 140/281/23 24/48/23
f 24/48/24 140/281/24 124/248/24 25/50/24
f 25/50/25 124/248/25 117/234/25 26/52/25
f 26/52/26 117/234/26 113/226/26 27/54/26
f 27/54/27 113/226/27 114/228/27 28/56/27
f 28/56/28 114/228/28 131/262/28 29/58/28
f 29/58/29 131/262/29 132/264/29 30/60/29
f 30/60/30 132/264/30 125/250/30 31/62/30
f 31/62/31 125/250/31 144/289/31 32/64/31
f 32/64/32 144/289/32 134/269/32 1/2/32
f 1/3/33 2/5/33 3/7/33 4/9/33 5/11/33 6/13/33 7/15/33 8/17/33 9/19/33 10/21/33 11/23/33 12/25/33 13/27/33 14/29/33 15/31/33 16/33/33 17/35/33 18/37/33 19/39/33 20/41/33 21/43/33 22/45/33 23/47/33 24/49/33 25/51/33 26/53/33 27/55/33 28/57/33 29/59/33 30/61/33 31/63/33 32/65/33
f 41/84/34 42/86/34 43/87/34 44/88/34 35/71/34 36/74/34 33/66/34 34/69/34
f 45/90/35 48/95/35 43/87/35 42/86/35
f 47/93/36 40/81/36 35/72/36 44/89/36
f 33/67/37 36/75/37 39/80/37 38/79/37
f 37/76/33 38/79/33 130/261/33 135/272/33 137/276/33 121/243/33 118/237/33 136/274/33 115/231/33 116/233/33 134/270/33 144/290/33 125/251/33 132/265/33 131/263/33 114/229/33 113/227/33 117/235/33 124/249/33 45/90/33 46/91/33
f 37/77/38 34/70/38 33/68/38 38/78/38
f 35/73/39 40/82/39 39/80/39 36/75/39
f 41/85/40 46/92/40 45/90/40 42/86/40
f 47/93/41 44/89/41 43/87/41 48/95/41
f 37/77/42 46/92/42 41/85/42 34/70/42
f 49/96/43 50/99/43 52/104/43 51/102/43
f 51/102/44 52/104/44 54/108/44 53/106/44
f 53/106/45 54/108/45 56/112/45 55/110/45
f 55/110/46 56/112/46 58/116/46 57/114/46
f 57/114/47 58/116/47 60/120/47 59/118/47
f 59/118/48 60/120/48 62/124/48 61/122/48
f 61/122/49 62/124/49 64/128/49 63/126/49
f 63/126/50 64/128/50 66/132/50 65/130/50
f 65/130/51 66/132/51 68/136/51 67/134/51
f 67/134/52 68/136/52 70/140/52 69/138/52
f 69/138/53 70/140/53 72/144/53 71/142/53
f 71/142/54 72/144/54 74/148/54 73/146/54
f 73/146/55 74/148/55 76/152/55 75/150/55
f 75/150/56 76/152/56 78/156/56 77/154/56
f 77/154/57 78/156/57 80/160/57 79/158/57
f 79/158/58 80/160/58 82/164/58 81/162/58
f 81/162/59 82/164/59 84/168/59 83/166/59
f 83/166/60 84/168/60 86/172/60 85/170/60
f 85/170/61 86/172/61 88/176/61 87/174/61
f 87/174/62 88/176/62 90/180/62 89/178/62
f 89/178/63 90/180/63 92/184/63 91/182/63
f 91/182/64 92/184/64 94/188/64 93/186/64
f 93/186/65 94/188/65 96/192/65 95/190/65
f 95/190/66 96/192/66 98/196/66 97/194/66
f 97/194/67 98/196/67 100/200/67 99/198/67
f 99/198/68 100/200/68 102/204/68 101/202/68
f 101/202/69 102/204/69 104/208/69 103/206/69
f 103/206/70 104/208/70 106/212/70 105/210/70
f 105/210/71 106/212/71 108/216/71 107/214/71
f 107/214/72 108/216/72 110/221/72 109/218/72
f 52/105/35 50/100/35 112/224/35 110/220/35 108/217/35 106/213/35 104/209/35 102/205/35 100/201/35 98/197/35 96/193/35 94/189/35 92/185/35 90/181/35 88/177/35 86/173/35 84/169/35 82/165/35 80/161/35 78/157/35 76/153/35 74/149/35 72/145/35 70/141/35 68/137/35 66/133/35 64/129/35 62/125/35 60/121/35 58/117/35 56/113/35 54/109/35
f 109/218/73 110/221/73 112/225/73 111/222/73
f 111/222/74 112/225/74 50/101/74 49/97/74
f 49/98/37 51/103/37 53/107/37 55/111/37 57/115/37 59/119/37 61/123/37 63/127/37 65/131/37 67/135/37 69/139/37 71/143/37 73/147/37 75/151/37 77/155/37 79/159/37 81/163/37 83/167/37 85/171/37 87/175/37 89/179/37 91/183/37 93/187/37 95/191/37 97/195/37 99/199/37 101/203/37 103/207/37 105/211/37 107/215/37 109/219/37 111/223/37
f 45/90/33 124/249/33 140/282/33 138/278/33 139/280/33 141/284/33 126/253/33 123/247/33 142/286/33 133/267/33 122/245/33 120/241/33 119/239/33 128/257/33 143/288/33 129/259/33 127/255/33 130/261/33 38/79/33 39/80/33 40/83/33 47/94/33 48/95/33
f 145/291/37 146/294/37 148/299/37 147/297/37
f 147/297/33 148/299/33 152/304/33 151/303/33
f 151/303/35 152/304/35 150/302/35 149/301/35
f 149/301/34 150/302/34 146/295/34 145/292/34
f 147/298/42 151/303/42 149/301/42 145/293/42
f 152/304/36 148/300/36 146/296/36 150/302/36
