# Blender 3.5.1
# www.blender.org
mtllib builder.mtl
o Cube.003
v -0.934992 -0.346627 1.535811
v -0.870078 0.158211 1.266495
v -0.934992 -0.346627 -1.465676
v -0.870078 0.349832 -1.621915
v 0.934992 -0.346627 1.535811
v 0.870078 0.158211 1.266495
v 0.934992 -0.346627 -1.465676
v 0.870078 0.349832 -1.621915
v -0.934992 -0.346627 0.035067
v -0.934992 -0.094208 1.535811
v -0.870078 0.349832 0.035067
v -0.934992 -0.094208 -1.465676
v 0.000000 -0.346627 -1.465676
v -0.000000 0.349832 -1.621915
v 0.934992 -0.094208 -1.465676
v 0.934992 -0.346627 0.035067
v 0.870078 0.349832 0.035067
v 0.934992 -0.094208 1.535811
v -0.000000 -0.346627 1.535811
v 0.000000 0.158211 1.535811
v -0.000000 1.518917 -0.673383
v -0.000000 -0.346627 0.035067
v 0.000000 -0.094208 1.535811
v 0.934992 -0.094208 0.035067
v -0.000000 -0.094208 -1.465676
v -0.934992 -0.094208 0.035067
v -0.870078 0.349832 -0.715305
v 0.870078 0.254021 0.785439
v -0.467496 0.158211 1.266495
v -0.870078 0.254021 0.785439
v 0.870078 0.349832 -0.715305
v 0.467496 0.158211 1.266495
v -0.000000 1.518917 -1.330923
v 0.467496 0.349832 0.035067
v -0.467496 0.349832 0.035067
v -0.467496 0.349832 -0.715305
v 0.467496 0.349832 -0.715305
v 0.467496 0.254021 0.785439
v -0.467496 0.254021 0.785439
v -0.000000 0.787811 -1.510543
v 0.467496 0.596189 1.455225
v 0.000000 0.596189 1.455225
v 0.000000 0.692000 0.827360
v -0.000000 0.787811 0.076989
v -0.467496 0.596189 1.455225
v -0.467496 0.787811 -0.673383
v 0.467496 0.787811 -0.673383
v 0.467496 0.692000 0.827360
v -0.467496 0.692000 0.827360
v -0.000000 1.518917 -0.185813
v -0.467496 1.518917 -0.673383
v 0.467496 1.518917 -0.673383
v -0.296612 0.787811 0.076989
v -0.467496 0.787811 -0.104600
v -0.467496 0.617704 0.060707
v -0.467496 0.766167 0.246497
v 0.467496 0.787811 -0.104600
v 0.296612 0.787811 0.076989
v 0.467496 0.766167 0.246497
v 0.467496 0.617704 0.060707
v -0.467496 1.518917 -0.367402
v -0.296612 1.518917 -0.185813
v 0.296612 1.518917 -0.185813
v 0.467496 1.518917 -0.367402
v 0.320746 0.349832 -1.621915
v 0.467496 0.349832 -1.470642
v 0.614246 0.349832 -1.621915
v -0.467496 0.349832 -1.470642
v -0.320746 0.349832 -1.621915
v -0.614246 0.349832 -1.621915
v -0.320746 1.518917 -1.330923
v -0.467496 1.518917 -1.179662
v -0.467496 0.787811 -1.359276
v -0.320746 0.787811 -1.510543
v 0.320746 0.787811 -1.510543
v 0.467496 0.787811 -1.359276
v 0.467496 1.518917 -1.179662
v 0.320746 1.518917 -1.330923
vn -0.9895 0.1447 -0.0000
vn -0.0000 0.2464 -0.9692
vn 0.9830 0.1832 0.0129
vn -0.1162 0.6160 0.7791
vn -0.0000 -1.0000 -0.0000
vn -0.0000 0.9807 0.1953
vn -0.0000 0.2386 -0.9711
vn -0.0000 1.0000 -0.0000
vn -0.0000 -0.0000 1.0000
vn 0.1162 0.6160 0.7791
vn 1.0000 -0.0000 -0.0000
vn 0.9895 0.1447 -0.0000
vn -0.0000 -0.0000 -1.0000
vn -1.0000 -0.0000 -0.0000
vn -0.9830 0.1832 0.0129
vn -0.0000 0.9919 0.1267
vn 0.2749 -0.1178 0.9542
vn -0.0000 -0.3319 -0.9433
vn -0.0000 0.3383 0.9411
vn -0.0000 0.9886 0.1509
vn -0.2749 -0.1178 0.9542
vn -0.7069 0.7060 0.0435
vn 0.7069 0.7060 0.0435
vn -0.7071 0.2392 0.6654
vn 0.7071 0.2392 0.6654
vn 0.7068 0.1743 -0.6856
vn 0.7075 0.1686 -0.6863
vn -0.7068 0.1743 -0.6856
vn -0.7075 0.1686 -0.6863
vt 0.125000 0.750000
vt 0.375000 1.000000
vt 0.375000 0.000000
vt 0.625000 1.000000
vt 0.875000 0.750000
vt 0.625000 0.000000
vt 0.125000 0.500000
vt 0.375000 0.250000
vt 0.875000 0.500000
vt 0.625000 0.250000
vt 0.375000 0.750000
vt 0.625000 0.750000
vt 0.375000 0.500000
vt 0.625000 0.500000
vt 0.125000 0.625000
vt 0.375000 0.125000
vt 0.500000 1.000000
vt 0.500000 0.000000
vt 0.625000 0.125000
vt 0.875000 0.625000
vt 0.500000 0.250000
vt 0.250000 0.500000
vt 0.375000 0.375000
vt 0.625000 0.375000
vt 0.500000 0.500000
vt 0.375000 0.625000
vt 0.625000 0.625000
vt 0.500000 0.750000
vt 0.250000 0.750000
vt 0.375000 0.875000
vt 0.625000 0.875000
vt 0.750000 0.562500
vt 0.250000 0.625000
vt 0.500000 0.875000
vt 0.500000 0.625000
vt 0.500000 0.375000
vt 0.500000 0.125000
vt 0.625000 0.187500
vt 0.875000 0.562500
vt 0.625000 0.687500
vt 0.625000 0.937500
vt 0.812500 0.750000
vt 0.625000 0.062500
vt 0.875000 0.687500
vt 0.625000 0.562500
vt 0.625000 0.812500
vt 0.687500 0.750000
vt 0.625000 0.375000
vt 0.750000 0.500000
vt 0.687500 0.625000
vt 0.812500 0.625000
vt 0.812500 0.562500
vt 0.687500 0.562500
vt 0.687500 0.687500
vt 0.812500 0.687500
vt 0.625000 0.375000
vt 0.625000 0.812500
vt 0.687500 0.750000
vt 0.750000 0.750000
vt 0.625000 0.875000
vt 0.750000 0.687500
vt 0.750000 0.625000
vt 0.625000 0.937500
vt 0.812500 0.750000
vt 0.812500 0.562500
vt 0.687500 0.562500
vt 0.687500 0.687500
vt 0.812500 0.687500
vt 0.750000 0.625000
vt 0.812500 0.562500
vt 0.687500 0.562500
vt 0.789654 0.625000
vt 0.812500 0.625000
vt 0.812500 0.609875
vt 0.812500 0.625000
vt 0.812500 0.639119
vt 0.687500 0.609875
vt 0.687500 0.625000
vt 0.710346 0.625000
vt 0.687500 0.639119
vt 0.687500 0.625000
vt 0.812500 0.601723
vt 0.789654 0.625000
vt 0.710346 0.625000
vt 0.687500 0.601723
vt 0.625000 0.417881
vt 0.611667 0.438115
vt 0.625000 0.437500
vt 0.687500 0.510428
vt 0.625000 0.460283
vt 0.664717 0.500000
vt 0.611667 0.311885
vt 0.812500 0.510428
vt 0.625000 0.332119
vt 0.812500 0.500000
vt 0.835283 0.500000
vt 0.625000 0.289717
vt 0.625000 0.332119
vt 0.792881 0.500000
vt 0.812500 0.500000
vt 0.812500 0.514378
vt 0.812500 0.511293
vt 0.625000 0.332119
vt 0.812500 0.500000
vt 0.625000 0.417881
vt 0.687500 0.511293
vt 0.625000 0.437500
vt 0.687500 0.514378
vt 0.625000 0.437500
vt 0.707119 0.500000
vt 0.625000 0.417881
s 0
f 26/37/1 11/19/1 27/38/1 4/10/1 12/21/1
f 65/86/2 14/24/2 40/56/2 75/105/2
f 24/35/3 17/27/3 28/40/3 6/12/3 18/28/3
f 23/34/4 20/31/4 29/41/4 2/4/4 10/17/4
f 22/33/5 16/26/5 5/11/5 19/29/5
f 39/55/6 30/44/6 2/5/6 29/42/6
f 40/56/7 74/103/7 71/98/7 33/48/7
f 14/24/2 69/94/2 74/103/2 40/56/2
f 36/52/8 27/39/8 11/20/8 35/51/8
f 9/15/5 22/33/5 19/29/5 1/1/5
f 3/7/5 13/22/5 22/33/5 9/15/5
f 13/22/5 7/13/5 16/26/5 22/33/5
f 19/30/9 23/34/9 10/17/9 1/2/9
f 5/11/9 18/28/9 23/34/9 19/30/9
f 18/28/10 6/12/10 32/46/10 20/31/10 23/34/10
f 16/26/11 24/35/11 18/28/11 5/11/11
f 7/13/11 15/25/11 24/35/11 16/26/11
f 15/25/12 8/14/12 31/45/12 17/27/12 24/35/12
f 13/23/13 25/36/13 15/25/13 7/13/13
f 3/8/13 12/21/13 25/36/13 13/23/13
f 68/93/8 70/96/8 4/9/8 27/39/8 36/52/8
f 9/16/14 26/37/14 12/21/14 3/8/14
f 1/3/14 10/18/14 26/37/14 9/16/14
f 10/18/15 2/6/15 30/43/15 11/19/15 26/37/15
f 59/80/16 58/79/16 44/62/16 43/61/16 48/67/16
f 20/31/17 32/46/17 41/57/17 42/60/17
f 68/93/14 36/52/14 46/65/14 73/102/14
f 31/45/8 37/53/8 34/50/8 17/27/8
f 25/36/18 14/24/18 65/86/18 67/90/18 8/14/18 15/25/18
f 44/62/16 53/72/16 56/76/16 49/68/16 43/61/16
f 28/40/6 38/54/6 32/47/6 6/12/6
f 17/27/16 34/50/16 38/54/16 28/40/16
f 46/65/14 54/74/14 61/82/14 51/70/14
f 37/53/11 66/89/11 76/106/11 47/66/11
f 44/62/19 58/79/19 63/84/19 50/69/19
f 35/51/16 11/20/16 30/44/16 39/55/16
f 48/67/20 43/61/20 42/59/20 41/58/20
f 36/52/14 35/51/14 55/75/14 54/74/14 46/65/14
f 53/72/19 44/62/19 50/69/19 62/83/19
f 77/108/8 78/110/8 33/49/8 21/32/8 52/71/8
f 47/66/11 76/106/11 77/108/11 52/71/11
f 57/77/11 47/66/11 52/71/11 64/85/11
f 43/61/20 49/68/20 45/64/20 42/59/20
f 38/54/11 34/50/11 60/81/11 59/80/11 48/67/11
f 29/41/21 20/31/21 42/60/21 45/63/21
f 32/47/11 38/54/11 48/67/11 41/58/11
f 12/21/18 4/10/18 70/97/18 69/94/18 14/24/18 25/36/18
f 39/55/14 29/42/14 45/64/14 49/68/14
f 52/71/8 21/32/8 50/69/8 63/84/8 64/85/8
f 73/102/14 46/65/14 51/70/14 72/101/14
f 21/32/8 51/70/8 61/82/8 62/83/8 50/69/8
f 75/105/7 40/56/7 33/48/7 78/111/7
f 33/49/8 71/99/8 72/101/8 51/70/8 21/32/8
f 34/50/11 37/53/11 47/66/11 57/77/11 60/81/11
f 53/72/22 54/73/22 55/75/22 56/76/22
f 57/77/23 58/78/23 59/80/23 60/81/23
f 53/72/24 62/83/24 61/82/24 54/74/24
f 63/84/25 58/79/25 57/77/25 64/85/25
f 35/51/14 39/55/14 49/68/14 56/76/14 55/75/14
f 65/86/8 66/87/8 67/90/8
f 68/92/8 69/94/8 70/97/8
f 76/107/26 66/88/26 65/86/26 75/105/26
f 77/109/27 76/107/27 75/105/27 78/111/27
f 74/104/28 69/95/28 68/93/28 73/102/28
f 71/100/29 74/104/29 73/102/29 72/101/29
f 8/14/8 67/91/8 66/89/8 37/53/8 31/45/8
