# Blender 3.5.1
# www.blender.org
mtllib builder.mtl
o Cube.003
v -0.934992 -0.346627 1.535811
v -0.870078 0.158211 1.266495
v -0.934992 -0.346627 -1.465676
v -0.870078 0.349832 -1.621915
v 0.934992 -0.346627 1.535811
v 0.870078 0.158211 1.266495
v 0.934992 -0.346627 -1.465676
v 0.870078 0.349832 -1.621915
v -0.934992 -0.346627 0.035067
v -0.934992 -0.094208 1.535811
v -0.870078 0.349832 0.035067
v -0.934992 -0.094208 -1.465676
v 0.000000 -0.346627 -1.465676
v -0.000000 0.349832 -1.621915
v 0.934992 -0.094208 -1.465676
v 0.934992 -0.346627 0.035067
v 0.870078 0.349832 0.035067
v 0.934992 -0.094208 1.535811
v -0.000000 -0.346627 1.535811
v 0.000000 0.158211 1.535811
v -0.000000 -0.346627 0.035067
v 0.000000 -0.094208 1.535811
v 0.934992 -0.094208 0.035067
v -0.000000 -0.094208 -1.465676
v -0.934992 -0.094208 0.035067
v -0.870078 0.349832 -0.715305
v 0.870078 0.254021 0.785439
v -0.467496 0.158211 1.266495
v -0.870078 0.254021 0.785439
v 0.870078 0.349832 -0.715305
v 0.467496 0.158211 1.266495
v -0.000000 1.518917 -1.330923
v 0.467496 0.349832 0.035067
v -0.467496 0.349832 0.035067
v -0.467496 0.349832 -0.715305
v 0.467496 0.349832 -0.715305
v 0.467496 0.254021 0.785439
v -0.467496 0.254021 0.785439
v -0.000000 0.787811 -1.510543
v 0.467496 0.596189 1.455225
v 0.000000 0.596189 1.455225
v 0.394609 0.648465 1.354527
v -0.000000 0.787811 0.076989
v -0.467496 0.596189 1.455225
v -0.467496 0.787811 -0.673383
v 0.467496 0.787811 -0.673383
v 0.467496 0.692000 0.827360
v -0.467496 0.692000 0.827360
v -0.000000 1.518917 -0.185813
v -0.467496 1.518917 -0.673383
v 0.467496 1.518917 -0.673383
v -0.296612 0.787811 0.076989
v -0.467496 0.787811 -0.104600
v -0.467496 0.617704 0.060707
v -0.467496 0.766167 0.246497
v 0.467496 0.787811 -0.104600
v 0.296612 0.787811 0.076989
v 0.467496 0.766167 0.246497
v 0.467496 0.617704 0.060707
v -0.467496 1.518917 -0.367402
v -0.296612 1.518917 -0.185813
v 0.296612 1.518917 -0.185813
v 0.467496 1.518917 -0.367402
v 0.320746 0.349832 -1.621915
v 0.467496 0.349832 -1.470642
v 0.614246 0.349832 -1.621915
v -0.467496 0.349832 -1.470642
v -0.320746 0.349832 -1.621915
v -0.614246 0.349832 -1.621915
v -0.320746 1.518917 -1.330923
v -0.467496 1.518917 -1.179662
v -0.467496 0.787811 -1.359276
v -0.320746 0.787811 -1.510543
v 0.320746 0.787811 -1.510543
v 0.467496 0.787811 -1.359276
v 0.467496 1.518917 -1.179662
v 0.320746 1.518917 -1.330923
v 0.424511 0.605240 1.392787
v 0.000000 0.605240 1.392787
v -0.424511 0.605240 1.392787
v -0.000000 0.779243 0.141276
v 0.424511 0.692241 0.822653
v -0.424511 0.692241 0.822653
v -0.424511 0.759589 0.295198
v -0.269339 0.779243 0.141276
v 0.269339 0.779243 0.141276
v 0.424511 0.759589 0.295198
v 0.000000 0.648465 1.354527
v 0.000000 0.729338 0.824553
v -0.394609 0.648465 1.354527
v -0.000000 0.810211 0.191172
v 0.394609 0.729338 0.824553
v -0.394609 0.729338 0.824553
v -0.394609 0.791942 0.334252
v -0.250367 0.810211 0.191172
v 0.250367 0.810211 0.191172
v 0.394609 0.791942 0.334252
v -0.000000 0.811777 0.056227
v -0.000000 1.494950 -0.183562
v -0.270639 0.811777 0.056227
v -0.426560 0.811777 -0.104181
v 0.426560 0.811777 -0.104181
v 0.270639 0.811777 0.056227
v -0.270639 1.494950 -0.183562
v -0.426560 1.494950 -0.343970
v 0.426560 1.494950 -0.343970
v 0.270639 1.494950 -0.183562
v 0.424909 1.490434 -0.651595
v 0.424909 0.816293 -0.651595
v -0.424891 1.490434 -0.651595
v -0.424891 0.816293 -0.651595
v -0.424891 1.490434 -0.376098
v -0.424891 0.816293 -0.139479
v 0.424909 0.816293 -0.139479
v 0.424909 1.490434 -0.376098
v -0.000000 1.553156 -0.678207
v -0.000000 1.553156 -0.234174
v -0.000000 1.553156 -1.277032
v -0.425752 1.553156 -0.678207
v 0.425752 1.553156 -0.678207
v -0.270126 1.553156 -0.234174
v -0.425752 1.553156 -0.399548
v 0.425752 1.553156 -0.399548
v 0.270126 1.553156 -0.234174
v 0.292105 1.553156 -1.277032
v 0.425752 1.553156 -1.139278
v -0.425752 1.553156 -1.139278
v -0.292105 1.553156 -1.277032
vn -0.9895 0.1447 -0.0000
vn -0.0000 0.2464 -0.9692
vn 0.9830 0.1832 0.0129
vn -0.0000 0.7296 0.6838
vn -0.0000 -1.0000 -0.0000
vn -0.0000 0.9807 0.1953
vn -0.0000 0.2386 -0.9711
vn -0.0000 1.0000 -0.0000
vn -0.0000 -0.0000 1.0000
vn 0.4992 -0.0000 0.8665
vn 1.0000 -0.0000 -0.0000
vn 0.9895 0.1447 -0.0000
vn -0.0000 -0.0000 -1.0000
vn -1.0000 -0.0000 -0.0000
vn -0.9830 0.1832 0.0129
vn -0.0000 0.9912 0.1321
vn 0.2749 -0.1178 0.9542
vn -0.0000 -0.3319 -0.9433
vn 0.0083 0.9919 0.1267
vn -0.0000 0.9919 0.1267
vn -0.4553 -0.0000 0.8903
vn 0.4403 0.7932 0.4207
vn 0.0110 0.9885 0.1508
vn -0.0000 0.6548 0.7558
vn -0.0000 0.8162 0.5778
vn 0.4555 -0.0000 0.8903
vn -0.2749 -0.1178 0.9542
vn 0.6342 0.7732 -0.0000
vn -0.3982 0.8373 0.3747
vn -0.7069 0.7060 0.0435
vn 0.7069 0.7060 0.0435
vn -0.4403 0.7932 0.4207
vn 0.6092 -0.5385 0.5822
vn 0.7068 0.1743 -0.6856
vn 0.7075 0.1686 -0.6863
vn -0.7068 0.1743 -0.6856
vn -0.7075 0.1686 -0.6863
vn -0.4992 -0.0000 0.8665
vn -0.4456 0.8267 -0.3436
vn -0.0000 0.8497 -0.5273
vn 0.7774 0.6218 0.0949
vn -0.0000 0.6628 0.7488
vn -0.0000 0.9897 0.1435
vn -0.0110 0.9885 0.1508
vn -0.0039 0.9914 0.1305
vn 0.0039 0.9914 0.1305
vn -0.0083 0.9919 0.1267
vn -0.0000 0.9886 0.1509
vn 0.7781 0.6231 0.0796
vn 0.4456 0.8267 -0.3436
vn -0.7774 0.6218 0.0949
vn -0.7781 0.6231 0.0796
vn -0.0000 0.3312 0.9436
vn -0.6965 0.2376 0.6770
vn 0.6965 0.2376 0.6770
vn -0.0000 0.0935 0.9956
vn -0.6092 -0.5385 0.5822
vn 0.2647 0.3229 0.9087
vn -0.2647 0.3229 0.9087
vn -0.5558 0.8313 -0.0000
vn 0.5559 -0.8312 -0.0000
vn -0.4341 -0.3017 -0.8489
vn -0.5558 -0.8313 -0.0000
vn 0.5559 0.8312 -0.0000
vn 0.4342 -0.3017 -0.8488
vn -0.0000 0.8441 -0.5363
vn -0.6342 0.7732 -0.0000
vn -0.3645 0.8615 -0.3536
vn 0.3982 0.8373 0.3747
vn 0.3645 0.8615 -0.3536
vt 0.125000 0.750000
vt 0.375000 1.000000
vt 0.375000 0.000000
vt 0.625000 1.000000
vt 0.875000 0.750000
vt 0.625000 0.000000
vt 0.125000 0.500000
vt 0.375000 0.250000
vt 0.875000 0.500000
vt 0.625000 0.250000
vt 0.375000 0.750000
vt 0.625000 0.750000
vt 0.375000 0.500000
vt 0.625000 0.500000
vt 0.125000 0.625000
vt 0.375000 0.125000
vt 0.500000 0.000000
vt 0.500000 1.000000
vt 0.625000 0.125000
vt 0.875000 0.625000
vt 0.500000 0.250000
vt 0.250000 0.500000
vt 0.375000 0.375000
vt 0.625000 0.375000
vt 0.500000 0.500000
vt 0.375000 0.625000
vt 0.625000 0.625000
vt 0.500000 0.750000
vt 0.250000 0.750000
vt 0.375000 0.875000
vt 0.625000 0.875000
vt 0.250000 0.625000
vt 0.500000 0.875000
vt 0.500000 0.625000
vt 0.500000 0.375000
vt 0.500000 0.125000
vt 0.625000 0.187500
vt 0.875000 0.562500
vt 0.625000 0.687500
vt 0.812500 0.750000
vt 0.625000 0.937500
vt 0.625000 0.062500
vt 0.875000 0.687500
vt 0.625000 0.562500
vt 0.687500 0.750000
vt 0.625000 0.812500
vt 0.625000 0.375000
vt 0.687500 0.625000
vt 0.812500 0.625000
vt 0.812500 0.562500
vt 0.687500 0.562500
vt 0.687500 0.687500
vt 0.812500 0.687500
vt 0.625000 0.375000
vt 0.687500 0.750000
vt 0.625000 0.812500
vt 0.625000 0.875000
vt 0.625000 0.812500
vt 0.687500 0.750000
vt 0.750000 0.625000
vt 0.812500 0.750000
vt 0.625000 0.937500
vt 0.812500 0.562500
vt 0.687500 0.562500
vt 0.687500 0.687500
vt 0.812500 0.687500
vt 0.750000 0.625000
vt 0.812500 0.562500
vt 0.687500 0.562500
vt 0.789654 0.625000
vt 0.812500 0.625000
vt 0.812500 0.609875
vt 0.812500 0.625000
vt 0.812500 0.639119
vt 0.687500 0.609875
vt 0.687500 0.625000
vt 0.710346 0.625000
vt 0.687500 0.639119
vt 0.687500 0.625000
vt 0.812500 0.601723
vt 0.789654 0.625000
vt 0.710346 0.625000
vt 0.687500 0.601723
vt 0.625000 0.417881
vt 0.611667 0.438115
vt 0.625000 0.437500
vt 0.687500 0.510428
vt 0.625000 0.460283
vt 0.664717 0.500000
vt 0.611667 0.311885
vt 0.812500 0.510428
vt 0.625000 0.332119
vt 0.812500 0.500000
vt 0.835283 0.500000
vt 0.625000 0.289717
vt 0.625000 0.332119
vt 0.812500 0.500000
vt 0.812500 0.514378
vt 0.812500 0.511293
vt 0.625000 0.332119
vt 0.812500 0.500000
vt 0.625000 0.417881
vt 0.687500 0.511293
vt 0.625000 0.437500
vt 0.687500 0.514378
vt 0.625000 0.437500
vt 0.625000 0.417881
vt 0.687500 0.750000
vt 0.625000 0.812500
vt 0.625000 0.875000
vt 0.625000 0.937500
vt 0.812500 0.750000
vt 0.750000 0.625000
vt 0.687500 0.687500
vt 0.812500 0.687500
vt 0.812500 0.639119
vt 0.789654 0.625000
vt 0.687500 0.625000
vt 0.710346 0.625000
vt 0.687500 0.639119
vt 0.750000 0.750000
vt 0.625000 0.875000
vt 0.750000 0.687500
vt 0.625000 0.937500
vt 0.812500 0.750000
vt 0.750000 0.625000
vt 0.687500 0.687500
vt 0.812500 0.687500
vt 0.812500 0.639119
vt 0.789654 0.625000
vt 0.687500 0.625000
vt 0.710346 0.625000
vt 0.687500 0.639119
vt 0.750000 0.625000
vt 0.750000 0.625000
vt 0.789654 0.625000
vt 0.812500 0.625000
vt 0.812500 0.609875
vt 0.687500 0.609875
vt 0.687500 0.625000
vt 0.710346 0.625000
vt 0.789654 0.625000
vt 0.812500 0.601723
vt 0.687500 0.601723
vt 0.710346 0.625000
vt 0.687500 0.562500
vt 0.687500 0.562500
vt 0.812500 0.562500
vt 0.812500 0.562500
vt 0.812500 0.601723
vt 0.812500 0.609875
vt 0.687500 0.609875
vt 0.687500 0.601723
vt 0.750000 0.562500
vt 0.750000 0.625000
vt 0.750000 0.500000
vt 0.625000 0.375000
vt 0.812500 0.562500
vt 0.687500 0.562500
vt 0.789654 0.625000
vt 0.812500 0.601723
vt 0.687500 0.601723
vt 0.710346 0.625000
vt 0.707119 0.500000
vt 0.625000 0.417881
vt 0.687500 0.514378
vt 0.625000 0.437500
vt 0.812500 0.514378
vt 0.792881 0.500000
vt 0.625000 0.332119
vt 0.812500 0.500000
s 0
f 25/36/1 11/19/1 26/37/1 4/10/1 12/21/1
f 64/84/2 14/24/2 39/54/2 74/102/2
f 23/34/3 17/27/3 27/39/3 6/12/3 18/28/3
f 28/41/4 2/4/4 10/18/4
f 21/32/5 16/26/5 5/11/5 19/29/5
f 38/53/6 29/43/6 2/5/6 28/40/6
f 39/54/7 73/100/7 70/96/7 32/47/7
f 14/24/2 68/92/2 73/100/2 39/54/2
f 35/50/8 26/38/8 11/20/8 34/49/8
f 9/15/5 21/32/5 19/29/5 1/1/5
f 3/7/5 13/22/5 21/32/5 9/15/5
f 13/22/5 7/13/5 16/26/5 21/32/5
f 19/30/9 22/33/9 10/18/9 1/2/9
f 5/11/9 18/28/9 22/33/9 19/30/9
f 31/46/10 20/31/10 22/33/10
f 16/26/11 23/34/11 18/28/11 5/11/11
f 7/13/11 15/25/11 23/34/11 16/26/11
f 15/25/12 8/14/12 30/44/12 17/27/12 23/34/12
f 13/23/13 24/35/13 15/25/13 7/13/13
f 3/8/13 12/21/13 24/35/13 13/23/13
f 67/91/8 69/94/8 4/9/8 26/38/8 35/50/8
f 9/16/14 25/36/14 12/21/14 3/8/14
f 1/3/14 10/17/14 25/36/14 9/16/14
f 10/17/15 2/6/15 29/42/15 11/19/15 25/36/15
f 57/77/16 43/60/16 81/113/16 86/119/16
f 20/31/17 31/46/17 40/56/17 41/57/17
f 67/91/14 35/50/14 45/63/14 72/99/14
f 30/44/8 36/51/8 33/48/8 17/27/8
f 24/35/18 14/24/18 64/84/18 66/88/18 8/14/18 15/25/18
f 55/74/19 48/66/19 83/115/19 84/116/19
f 27/39/6 37/52/6 31/45/6 6/12/6
f 17/27/20 33/48/20 37/52/20 27/39/20
f 50/68/21 45/63/21 111/149/21 110/148/21
f 36/51/11 65/87/11 75/103/11 46/64/11
f 57/76/22 56/75/22 102/139/22 103/140/22
f 34/49/20 11/20/20 29/43/20 38/53/20
f 48/66/23 44/61/23 80/112/23 83/115/23
f 35/50/14 34/49/14 54/73/14 53/72/14 45/63/14
f 52/70/24 43/60/24 98/134/24 100/136/24
f 49/67/25 62/82/25 124/163/25 117/155/25
f 46/64/11 75/103/11 76/105/11 51/69/11
f 46/64/26 51/69/26 108/146/26 109/147/26
f 43/60/16 52/70/16 85/117/16 81/113/16
f 37/52/11 33/48/11 59/79/11 58/78/11 47/65/11
f 28/41/27 20/31/27 41/57/27 44/62/27
f 31/45/11 37/52/11 47/65/11 40/55/11
f 12/21/18 4/10/18 69/95/18 68/92/18 14/24/18 24/35/18
f 38/53/14 28/40/14 44/61/14 48/66/14
f 51/69/28 76/105/28 126/166/28 120/159/28
f 72/99/14 45/63/14 50/68/14 71/98/14
f 60/80/29 61/81/29 121/160/29 122/161/29
f 74/102/7 39/54/7 32/47/7 77/107/7
f 61/81/25 49/67/25 117/155/25 121/160/25
f 33/48/11 36/51/11 46/64/11 56/75/11 59/79/11
f 52/70/30 53/71/30 54/73/30 55/74/30
f 56/75/31 57/76/31 58/78/31 59/79/31
f 53/71/32 52/70/32 100/136/32 101/137/32
f 63/83/33 62/82/33 107/145/33 106/144/33
f 34/49/14 38/53/14 48/66/14 55/74/14 54/73/14
f 64/84/8 65/85/8 66/88/8
f 67/90/8 68/92/8 69/95/8
f 75/104/34 65/86/34 64/84/34 74/102/34
f 76/106/35 75/104/35 74/102/35 77/107/35
f 73/101/36 68/93/36 67/91/36 72/99/36
f 70/97/37 73/101/37 72/99/37 71/98/37
f 8/14/8 66/89/8 65/87/8 36/51/8 30/44/8
f 10/18/4 22/33/4 28/41/4
f 22/33/38 20/31/38 28/41/38
f 22/33/4 18/28/4 31/46/4
f 18/28/4 6/12/4 31/46/4
f 85/117/39 84/116/39 94/129/39 95/130/39
f 81/113/40 85/117/40 95/130/40 91/126/40
f 78/108/41 82/114/41 92/127/41 42/59/41
f 79/110/42 78/109/42 42/58/42 88/122/42
f 44/62/43 41/57/43 79/110/43 80/111/43
f 40/55/44 47/65/44 82/114/44 78/108/44
f 58/78/45 57/76/45 86/118/45 87/120/45
f 41/57/43 40/56/43 78/109/43 79/110/43
f 52/70/46 55/74/46 84/116/46 85/117/46
f 47/65/47 58/78/47 87/120/47 82/114/47
f 97/133/20 96/132/20 91/126/20 89/123/20 92/127/20
f 91/126/20 95/130/20 94/129/20 93/128/20 89/123/20
f 92/127/48 89/123/48 88/121/48 42/59/48
f 89/123/48 93/128/48 90/125/48 88/121/48
f 82/114/49 87/120/49 97/133/49 92/127/49
f 80/111/42 79/110/42 88/122/42 90/124/42
f 87/120/50 86/118/50 96/131/50 97/133/50
f 83/115/51 80/112/51 90/125/51 93/128/51
f 86/119/40 81/113/40 91/126/40 96/132/40
f 84/116/52 83/115/52 93/128/52 94/129/52
f 98/134/53 103/141/53 107/145/53 99/135/53
f 100/136/53 98/134/53 99/135/53 104/142/53
f 100/136/54 104/142/54 105/143/54 101/138/54
f 107/145/55 103/141/55 102/139/55 106/144/55
f 43/60/24 57/77/24 103/141/24 98/134/24
f 49/67/56 61/81/56 104/142/56 99/135/56
f 61/81/57 60/80/57 105/143/57 104/142/57
f 62/82/56 49/67/56 99/135/56 107/145/56
f 56/75/58 63/83/58 106/144/58 102/139/58
f 60/80/59 53/72/59 101/138/59 105/143/59
f 111/149/14 113/151/14 112/150/14 110/148/14
f 114/152/11 109/147/11 108/146/11 115/153/11
f 45/63/60 53/72/60 113/151/60 111/149/60
f 51/69/61 63/83/61 115/153/61 108/146/61
f 53/72/62 60/80/62 112/150/62 113/151/62
f 60/80/63 50/68/63 110/148/63 112/150/63
f 56/75/64 46/64/64 109/147/64 114/152/64
f 63/83/65 56/75/65 114/152/65 115/153/65
f 126/166/8 125/164/8 118/156/8 116/154/8 120/159/8
f 120/159/8 116/154/8 117/155/8 124/163/8 123/162/8
f 116/154/8 119/158/8 122/161/8 121/160/8 117/155/8
f 118/156/8 128/169/8 127/168/8 119/158/8 116/154/8
f 32/47/66 70/96/66 128/170/66 118/157/66
f 50/68/67 60/80/67 122/161/67 119/158/67
f 70/97/68 71/98/68 127/168/68 128/171/68
f 71/98/67 50/68/67 119/158/67 127/168/67
f 62/82/69 63/83/69 123/162/69 124/163/69
f 76/106/70 77/107/70 125/165/70 126/167/70
f 63/83/28 51/69/28 120/159/28 123/162/28
f 77/107/66 32/47/66 118/157/66 125/165/66
