# Blender 3.5.1
# www.blender.org
mtllib builder_detail.mtl
o Cube.044
v -0.966065 -0.091881 1.756402
v -0.966065 0.289214 1.756402
v -0.790621 0.033267 1.637335
v -0.790621 0.289214 1.637335
v 0.965085 -0.091881 1.756402
v 0.965085 0.289214 1.756402
v 0.789641 0.033267 1.637335
v 0.789641 0.289214 1.637335
v -1.115821 -0.486104 1.919367
v -1.115821 0.289214 1.837540
v 1.114842 0.289214 1.837540
v 1.114842 -0.486104 1.919367
v -1.115821 -0.486104 2.391142
v -1.115821 0.289214 2.022185
v 1.114842 0.289214 2.022185
v 1.114842 -0.486104 2.391142
v -1.049601 -0.428112 2.384753
v -1.049601 0.231221 2.028575
v 1.048621 0.231221 2.028575
v 1.048621 -0.428112 2.384753
v -1.049601 -0.428112 2.035514
v -1.049601 0.231221 1.833054
v 1.048621 0.231221 1.833054
v 1.048621 -0.428112 2.035514
v -0.792831 0.030694 1.243736
v -0.792831 0.291099 1.243736
v -0.792831 0.312420 0.179025
v -0.792831 0.473212 0.178924
v -0.532427 0.030694 1.243736
v -0.532427 0.291099 1.243736
v -0.532427 0.312420 0.179025
v -0.532427 0.473212 0.178924
v -0.792831 0.030694 1.644322
v -0.792831 0.291099 1.644322
v -0.532427 0.291099 1.644322
v -0.532427 0.030694 1.644322
v -0.792831 0.473212 -0.730711
v -0.792831 0.312420 -0.730610
v -0.532427 0.312420 -0.730610
v -0.532427 0.473212 -0.730711
v -0.752088 0.448054 -0.864308
v -0.752088 0.337577 -0.864239
v -0.573170 0.337577 -0.864239
v -0.573170 0.448054 -0.864308
v -0.752088 0.447948 -1.411083
v -0.752088 0.337471 -1.411013
v -0.573170 0.337471 -1.411013
v -0.573170 0.447948 -1.411083
v -0.752088 0.387117 -1.516354
v -0.752088 0.337454 -1.516285
v -0.573170 0.337454 -1.516285
v -0.573170 0.387117 -1.516354
v 0.531028 0.030694 1.243736
v 0.531028 0.291099 1.243736
v 0.531028 0.312420 0.179025
v 0.531028 0.473212 0.178924
v 0.791432 0.030694 1.243736
v 0.791432 0.291099 1.243736
v 0.791432 0.312420 0.179025
v 0.791432 0.473212 0.178924
v 0.531028 0.030694 1.644322
v 0.531028 0.291099 1.644322
v 0.791432 0.291099 1.644322
v 0.791432 0.030694 1.644322
v 0.531028 0.473212 -0.730711
v 0.531028 0.312420 -0.730610
v 0.791432 0.312420 -0.730610
v 0.791432 0.473212 -0.730711
v 0.571771 0.448054 -0.864308
v 0.571771 0.337577 -0.864239
v 0.750689 0.337577 -0.864239
v 0.750689 0.448054 -0.864308
v 0.571771 0.447948 -1.411083
v 0.571771 0.337471 -1.411013
v 0.750689 0.337471 -1.411013
v 0.750689 0.447948 -1.411083
v 0.571771 0.387117 -1.516354
v 0.571771 0.337454 -1.516285
v 0.750689 0.337454 -1.516285
v 0.750689 0.387117 -1.516354
vn -0.5616 -0.0000 -0.8274
vn -0.0000 -0.0000 -1.0000
vn 0.5616 -0.0000 -0.8274
vn -0.0000 1.0000 -0.0000
vn -0.0000 -0.6893 -0.7245
vn 0.5843 -0.0573 -0.8095
vn -0.5843 -0.0573 -0.8095
vn -0.0000 -0.3820 -0.9242
vn -0.0000 0.1095 0.9940
vn 1.0000 -0.0000 -0.0000
vn -0.0000 -1.0000 -0.0000
vn -1.0000 -0.0000 -0.0000
vn -0.0000 0.4511 0.8925
vn -0.0000 0.2935 0.9559
vn -0.0000 -0.9667 -0.2558
vn -0.0000 0.9857 0.1686
vn -0.0000 -0.0000 1.0000
vn -0.0000 0.9827 -0.1851
vn -0.9565 -0.0002 -0.2917
vn 0.9565 -0.0002 -0.2917
vn -0.0000 -0.9827 -0.1850
vn -0.0000 0.8658 -0.5003
vn -0.0000 -1.0000 0.0002
vn -0.0000 1.0000 -0.0002
vn -0.0000 -0.0014 -1.0000
vt 0.375000 0.000000
vt 0.125000 0.750000
vt 0.875000 0.750000
vt 0.625000 0.000000
vt 0.375000 0.250000
vt 0.125000 0.500000
vt 0.625000 0.250000
vt 0.875000 0.500000
vt 0.375000 0.750000
vt 0.625000 0.750000
vt 0.375000 0.500000
vt 0.625000 0.500000
vt 0.125000 0.750000
vt 0.375000 0.000000
vt 0.875000 0.750000
vt 0.625000 0.000000
vt 0.625000 0.750000
vt 0.375000 0.750000
vt 0.125000 0.750000
vt 0.375000 0.000000
vt 0.625000 0.000000
vt 0.875000 0.750000
vt 0.625000 0.750000
vt 0.375000 0.750000
vt 0.125000 0.750000
vt 0.375000 0.000000
vt 0.625000 0.000000
vt 0.875000 0.750000
vt 0.625000 0.750000
vt 0.375000 0.750000
vt 0.125000 0.750000
vt 0.375000 1.000000
vt 0.375000 0.000000
vt 0.625000 1.000000
vt 0.625000 0.000000
vt 0.875000 0.750000
vt 0.625000 0.750000
vt 0.375000 0.750000
vt 0.375000 0.000000
vt 0.125000 0.750000
vt 0.625000 0.000000
vt 0.875000 0.750000
vt 0.125000 0.500000
vt 0.375000 0.250000
vt 0.875000 0.500000
vt 0.625000 0.250000
vt 0.375000 0.750000
vt 0.625000 0.750000
vt 0.375000 0.500000
vt 0.625000 0.500000
vt 0.375000 0.000000
vt 0.375000 1.000000
vt 0.125000 0.750000
vt 0.625000 0.000000
vt 0.625000 1.000000
vt 0.875000 0.750000
vt 0.625000 0.750000
vt 0.375000 0.750000
vt 0.875000 0.500000
vt 0.625000 0.250000
vt 0.375000 0.250000
vt 0.125000 0.500000
vt 0.375000 0.500000
vt 0.625000 0.500000
vt 0.875000 0.500000
vt 0.625000 0.250000
vt 0.125000 0.500000
vt 0.375000 0.250000
vt 0.375000 0.500000
vt 0.625000 0.500000
vt 0.875000 0.500000
vt 0.625000 0.250000
vt 0.375000 0.250000
vt 0.125000 0.500000
vt 0.375000 0.500000
vt 0.625000 0.500000
vt 0.875000 0.500000
vt 0.625000 0.250000
vt 0.375000 0.250000
vt 0.125000 0.500000
vt 0.375000 0.500000
vt 0.625000 0.500000
vt 0.375000 0.000000
vt 0.125000 0.750000
vt 0.875000 0.750000
vt 0.625000 0.000000
vt 0.125000 0.500000
vt 0.375000 0.250000
vt 0.875000 0.500000
vt 0.625000 0.250000
vt 0.375000 0.750000
vt 0.625000 0.750000
vt 0.375000 0.500000
vt 0.625000 0.500000
vt 0.375000 1.000000
vt 0.375000 0.000000
vt 0.125000 0.750000
vt 0.875000 0.750000
vt 0.625000 1.000000
vt 0.625000 0.000000
vt 0.625000 0.750000
vt 0.375000 0.750000
vt 0.875000 0.500000
vt 0.625000 0.250000
vt 0.375000 0.250000
vt 0.125000 0.500000
vt 0.375000 0.500000
vt 0.625000 0.500000
vt 0.875000 0.500000
vt 0.625000 0.250000
vt 0.125000 0.500000
vt 0.375000 0.250000
vt 0.375000 0.500000
vt 0.625000 0.500000
vt 0.875000 0.500000
vt 0.625000 0.250000
vt 0.125000 0.500000
vt 0.375000 0.250000
vt 0.375000 0.500000
vt 0.625000 0.500000
vt 0.875000 0.500000
vt 0.625000 0.250000
vt 0.125000 0.500000
vt 0.375000 0.250000
vt 0.375000 0.500000
vt 0.625000 0.500000
s 0
f 1/1/1 2/4/1 4/7/1 3/5/1
f 3/5/2 4/7/2 8/12/2 7/11/2
f 7/11/3 8/12/3 6/10/3 5/9/3
f 6/10/4 2/3/4 10/15/4 11/17/4
f 3/6/5 7/11/5 5/9/5 1/2/5
f 8/12/4 4/8/4 2/3/4 6/10/4
f 11/17/4 10/15/4 14/22/4 15/23/4
f 5/9/6 6/10/6 11/17/6 12/18/6
f 2/4/7 1/1/7 9/14/7 10/16/7
f 1/2/8 5/9/8 12/18/8 9/13/8
f 13/19/9 16/24/9 20/30/9 17/25/9
f 12/18/10 11/17/10 15/23/10 16/24/10
f 9/13/11 12/18/11 16/24/11 13/19/11
f 10/16/12 9/14/12 13/20/12 14/21/12
f 17/25/4 20/30/4 24/38/4 21/31/4
f 14/21/13 13/20/13 17/26/13 18/27/13
f 15/23/9 14/22/9 18/28/9 19/29/9
f 16/24/13 15/23/13 19/29/13 20/30/13
f 24/38/14 23/37/14 22/34/14 21/32/14
f 18/27/10 17/26/10 21/33/10 22/35/10
f 19/29/11 18/28/11 22/36/11 23/37/11
f 20/30/12 19/29/12 23/37/12 24/38/12
f 25/39/12 26/41/12 28/46/12 27/44/12
f 31/49/11 27/43/11 38/62/11 39/63/11
f 31/49/10 32/50/10 30/48/10 29/47/10
f 26/41/12 25/39/12 33/51/12 34/54/12
f 27/43/15 31/49/15 29/47/15 25/40/15
f 32/50/16 28/45/16 26/42/16 30/48/16
f 36/58/17 35/57/17 34/55/17 33/52/17
f 25/40/11 29/47/11 36/58/11 33/53/11
f 30/48/4 26/42/4 34/56/4 35/57/4
f 29/47/10 30/48/10 35/57/10 36/58/10
f 37/59/18 40/64/18 44/70/18 41/65/18
f 28/45/4 32/50/4 40/64/4 37/59/4
f 27/44/12 28/46/12 37/60/12 38/61/12
f 32/50/10 31/49/10 39/63/10 40/64/10
f 44/70/10 43/69/10 47/75/10 48/76/10
f 38/61/19 37/60/19 41/66/19 42/68/19
f 40/64/20 39/63/20 43/69/20 44/70/20
f 39/63/21 38/62/21 42/67/21 43/69/21
f 45/71/22 48/76/22 52/82/22 49/77/22
f 43/69/23 42/67/23 46/74/23 47/75/23
f 41/65/24 44/70/24 48/76/24 45/71/24
f 42/68/12 41/66/12 45/72/12 46/73/12
f 50/79/25 49/78/25 52/82/25 51/81/25
f 46/73/12 45/72/12 49/78/12 50/79/12
f 48/76/10 47/75/10 51/81/10 52/82/10
f 47/75/23 46/74/23 50/80/23 51/81/23
f 53/83/12 54/86/12 56/90/12 55/88/12
f 59/93/11 55/87/11 66/106/11 67/107/11
f 59/93/10 60/94/10 58/92/10 57/91/10
f 58/92/4 54/85/4 62/98/4 63/101/4
f 55/87/15 59/93/15 57/91/15 53/84/15
f 60/94/16 56/89/16 54/85/16 58/92/16
f 64/102/17 63/101/17 62/99/17 61/95/17
f 57/91/10 58/92/10 63/101/10 64/102/10
f 54/86/12 53/83/12 61/96/12 62/100/12
f 53/84/11 57/91/11 64/102/11 61/97/11
f 65/103/18 68/108/18 72/114/18 69/109/18
f 56/89/4 60/94/4 68/108/4 65/103/4
f 55/88/12 56/90/12 65/104/12 66/105/12
f 60/94/10 59/93/10 67/107/10 68/108/10
f 72/114/10 71/113/10 75/119/10 76/120/10
f 66/105/19 65/104/19 69/110/19 70/112/19
f 68/108/20 67/107/20 71/113/20 72/114/20
f 67/107/21 66/106/21 70/111/21 71/113/21
f 76/120/10 75/119/10 79/125/10 80/126/10
f 71/113/23 70/111/23 74/117/23 75/119/23
f 69/109/24 72/114/24 76/120/24 73/115/24
f 70/112/12 69/110/12 73/116/12 74/118/12
f 78/124/25 77/122/25 80/126/25 79/125/25
f 75/119/23 74/117/23 78/123/23 79/125/23
f 73/115/22 76/120/22 80/126/22 77/121/22
f 74/118/12 73/116/12 77/122/12 78/124/12
