# Blender 3.5.1
# www.blender.org
mtllib computer.mtl
o Cube.056
v -0.408711 -0.001547 0.386746
v -0.408711 0.274547 0.386746
v -0.408711 -0.001547 -0.361832
v -0.408711 0.274547 -0.361832
v 0.424366 -0.001547 0.386746
v 0.424366 0.274547 0.386746
v 0.424366 -0.001547 -0.361832
v 0.424366 0.274547 -0.361832
v 0.027463 0.032248 0.386746
v 0.027463 0.240752 0.386746
v 0.370624 0.240752 0.386746
v 0.370624 0.032248 0.386746
v 0.027463 0.032248 0.365425
v 0.027463 0.240752 0.365425
v 0.370624 0.240752 0.365425
v 0.370624 0.032248 0.365425
vn -1.0000 -0.0000 -0.0000
vn -0.0000 -0.0000 -1.0000
vn 1.0000 -0.0000 -0.0000
vn -0.0000 -0.0000 1.0000
vn -0.0000 -1.0000 -0.0000
vn -0.0000 1.0000 -0.0000
vt 0.375000 0.000000
vt 0.125000 0.750000
vt 0.875000 0.750000
vt 0.625000 0.000000
vt 0.375000 0.250000
vt 0.125000 0.500000
vt 0.625000 0.250000
vt 0.875000 0.500000
vt 0.375000 0.750000
vt 0.625000 0.750000
vt 0.375000 0.500000
vt 0.625000 0.500000
vt 0.125000 0.750000
vt 0.375000 0.000000
vt 0.625000 0.000000
vt 0.875000 0.750000
vt 0.625000 0.750000
vt 0.375000 0.750000
vt 0.125000 0.750000
vt 0.375000 1.000000
vt 0.375000 0.000000
vt 0.625000 1.000000
vt 0.625000 0.000000
vt 0.875000 0.750000
vt 0.625000 0.750000
vt 0.375000 0.750000
s 0
f 1/1/1 2/4/1 4/7/1 3/5/1
f 3/5/2 4/7/2 8/12/2 7/11/2
f 7/11/3 8/12/3 6/10/3 5/9/3
f 6/10/4 2/3/4 10/16/4 11/17/4
f 3/6/5 7/11/5 5/9/5 1/2/5
f 8/12/6 4/8/6 2/3/6 6/10/6
f 9/13/6 12/18/6 16/26/6 13/19/6
f 5/9/4 6/10/4 11/17/4 12/18/4
f 2/4/4 1/1/4 9/14/4 10/15/4
f 1/2/4 5/9/4 12/18/4 9/13/4
f 16/26/4 15/25/4 14/22/4 13/20/4
f 10/15/3 9/14/3 13/21/3 14/23/3
f 11/17/5 10/16/5 14/24/5 15/25/5
f 12/18/1 11/17/1 15/25/1 16/26/1
