# Blender 3.5.1
# www.blender.org
mtllib crt.mtl
o Cube.034
v -0.366077 0.321206 0.323676
v -0.366077 1.069014 0.323676
v -0.366077 0.321206 0.113199
v -0.366077 1.069014 0.113199
v 0.381732 0.321206 0.323676
v 0.381732 1.069014 0.323676
v 0.381732 0.321206 0.113199
v 0.381732 1.069014 0.113199
v -0.279899 0.982837 -0.141743
v -0.279899 0.407383 -0.141743
v 0.295555 0.407383 -0.141743
v 0.295555 0.982837 -0.141743
v -0.183622 0.886560 -0.141743
v -0.183622 0.503660 -0.141743
v 0.199277 0.503660 -0.141743
v 0.199277 0.886560 -0.141743
v -0.137814 0.840752 -0.417617
v -0.137814 0.549469 -0.417617
v 0.153469 0.549469 -0.417617
v 0.153469 0.840752 -0.417617
v 0.155843 0.503660 -0.056652
v -0.140188 0.503660 -0.056652
v 0.120428 0.549469 -0.353923
v -0.104772 0.549469 -0.353923
v 0.155843 0.441178 -0.055133
v -0.140188 0.441178 -0.055133
v 0.120428 0.486986 -0.361587
v -0.104772 0.486986 -0.361587
v -0.292350 0.394933 0.323676
v -0.292350 0.995287 0.323676
v 0.308005 0.995287 0.323676
v 0.308005 0.394933 0.323676
v -0.292350 0.394933 0.233486
v -0.292350 0.995287 0.233486
v 0.308005 0.995287 0.233486
v 0.308005 0.394933 0.233486
v 0.079304 0.305765 0.140370
v 0.106313 0.305765 0.113362
v 0.106313 0.305765 -0.029592
v 0.079304 0.305765 -0.056600
v -0.063649 0.305765 -0.056600
v -0.090658 0.305765 -0.029592
v -0.090658 0.305765 0.113362
v -0.063649 0.305765 0.140370
v -0.137083 0.263505 0.241553
v -0.191840 0.263505 0.186795
v -0.191840 0.305765 0.186795
v -0.137083 0.305765 0.241553
v -0.191840 0.263505 -0.103025
v -0.137083 0.263505 -0.157783
v -0.137083 0.305765 -0.157783
v -0.191840 0.305765 -0.103025
v 0.207495 0.263505 0.186795
v 0.152738 0.263505 0.241553
v 0.152738 0.305765 0.241553
v 0.207495 0.305765 0.186795
v 0.152738 0.263505 -0.157783
v 0.207495 0.263505 -0.103025
v 0.207495 0.305765 -0.103025
v 0.152738 0.305765 -0.157783
v 0.106313 0.342327 0.113362
v 0.106313 0.342327 -0.029592
v 0.079304 0.342327 0.140370
v -0.063649 0.342327 0.140370
v -0.090658 0.342327 0.113362
v -0.090658 0.342327 -0.029592
v -0.063649 0.342327 -0.056600
v 0.079304 0.342327 -0.056600
v 0.181241 0.407386 0.167741
v 0.181241 0.407386 -0.083971
v 0.133684 0.407386 0.215298
v -0.118028 0.407386 0.215298
v -0.165585 0.407386 0.167741
v -0.165585 0.407386 -0.083971
v -0.118028 0.407386 -0.131528
v 0.133684 0.407386 -0.131528
v 0.181241 0.462830 0.167741
v 0.181241 0.462830 -0.083971
v 0.133684 0.462830 0.215298
v -0.118028 0.462830 0.215298
v -0.165585 0.462830 0.167741
v -0.165585 0.462830 -0.083971
v -0.118028 0.462830 -0.131528
v 0.133684 0.462830 -0.131528
vn -1.0000 -0.0000 -0.0000
vn 0.9473 -0.0000 -0.3202
vn 1.0000 -0.0000 -0.0000
vn -0.0000 -0.0000 1.0000
vn -0.0000 -1.0000 -0.0000
vn -0.0000 1.0000 -0.0000
vn -0.0000 -0.0000 -1.0000
vn -0.0000 -0.9473 -0.3202
vn -0.0000 0.9473 -0.3202
vn -0.9473 -0.0000 -0.3202
vn -0.0000 0.9865 -0.1638
vn -0.9865 -0.0000 -0.1638
vn 0.9865 -0.0000 -0.1638
vn 0.9933 0.0057 -0.1157
vn 0.2351 -0.9644 -0.1208
vn -0.2351 -0.9644 -0.1208
vn -0.0000 -0.9890 -0.1478
vn -0.0000 0.1218 -0.9926
vn -0.9933 0.0057 -0.1157
vn -0.0000 0.0243 0.9997
vn -0.7071 -0.0000 0.7071
vn -0.7071 -0.0000 -0.7071
vn 0.7071 -0.0000 -0.7071
vn 0.7071 -0.0000 0.7071
vn -0.0000 -0.7551 -0.6556
vn -0.4099 -0.8148 -0.4099
vn -0.4099 -0.8148 0.4099
vn -0.0000 -0.7551 0.6556
vn 0.4099 -0.8148 -0.4099
vn 0.4099 -0.8148 0.4099
vn -0.6556 -0.7551 -0.0000
vn 0.6556 -0.7551 -0.0000
vt 0.375000 0.000000
vt 0.125000 0.750000
vt 0.875000 0.750000
vt 0.625000 0.000000
vt 0.125000 0.500000
vt 0.375000 0.250000
vt 0.875000 0.500000
vt 0.625000 0.250000
vt 0.375000 0.750000
vt 0.625000 0.750000
vt 0.375000 0.500000
vt 0.625000 0.500000
vt 0.875000 0.500000
vt 0.625000 0.250000
vt 0.125000 0.500000
vt 0.375000 0.250000
vt 0.375000 0.500000
vt 0.625000 0.500000
vt 0.875000 0.500000
vt 0.625000 0.250000
vt 0.125000 0.500000
vt 0.375000 0.250000
vt 0.375000 0.500000
vt 0.625000 0.500000
vt 0.875000 0.500000
vt 0.625000 0.250000
vt 0.375000 0.250000
vt 0.375000 0.500000
vt 0.625000 0.500000
vt 0.375000 0.500000
vt 0.375000 0.250000
vt 0.125000 0.500000
vt 0.375000 0.500000
vt 0.375000 0.250000
vt 0.375000 0.500000
vt 0.375000 0.250000
vt 0.125000 0.500000
vt 0.375000 0.500000
vt 0.125000 0.500000
vt 0.375000 0.250000
vt 0.125000 0.750000
vt 0.375000 0.000000
vt 0.875000 0.750000
vt 0.625000 0.000000
vt 0.625000 0.750000
vt 0.375000 0.750000
vt 0.375000 0.000000
vt 0.125000 0.750000
vt 0.625000 0.000000
vt 0.875000 0.750000
vt 0.625000 0.750000
vt 0.375000 0.750000
vt 0.625000 0.784280
vt 0.625000 0.715720
vt 0.625000 0.534280
vt 0.625000 0.465720
vt 0.625000 0.284280
vt 0.625000 0.215720
vt 0.625000 0.034280
vt 0.625000 0.000000
vt 0.625000 0.965720
vt 0.375000 0.965720
vt 0.375000 0.000000
vt 0.159280 0.750000
vt 0.375000 0.034280
vt 0.125000 0.715720
vt 0.625000 0.034280
vt 0.625000 0.000000
vt 0.625000 0.965720
vt 0.375000 0.215720
vt 0.125000 0.534280
vt 0.375000 0.284280
vt 0.159280 0.500000
vt 0.625000 0.284280
vt 0.625000 0.215720
vt 0.375000 0.715720
vt 0.375000 0.784280
vt 0.340720 0.750000
vt 0.625000 0.784280
vt 0.625000 0.715720
vt 0.375000 0.465720
vt 0.340720 0.500000
vt 0.375000 0.534280
vt 0.625000 0.534280
vt 0.625000 0.465720
vt 0.625000 0.715720
vt 0.625000 0.534280
vt 0.625000 0.784280
vt 0.625000 0.000000
vt 0.625000 0.965720
vt 0.625000 0.034280
vt 0.625000 0.215720
vt 0.625000 0.284280
vt 0.625000 0.465720
vt 0.625000 0.715720
vt 0.625000 0.534280
vt 0.625000 0.784280
vt 0.625000 0.965720
vt 0.625000 0.000000
vt 0.625000 0.034280
vt 0.625000 0.215720
vt 0.625000 0.284280
vt 0.625000 0.465720
vt 0.625000 0.715720
vt 0.625000 0.534280
vt 0.659280 0.750000
vt 0.625000 0.784280
vt 0.625000 0.965720
vt 0.840720 0.750000
vt 0.625000 0.000000
vt 0.875000 0.715720
vt 0.625000 0.034280
vt 0.875000 0.534280
vt 0.625000 0.215720
vt 0.840720 0.500000
vt 0.625000 0.284280
vt 0.659280 0.500000
vt 0.625000 0.465720
s 0
f 1/1/1 2/4/1 4/8/1 3/6/1
f 8/12/2 7/11/2 11/17/2 12/18/2
f 7/11/3 8/12/3 6/10/3 5/9/3
f 6/10/4 2/3/4 30/43/4 31/45/4
f 3/5/5 7/11/5 5/9/5 1/2/5
f 8/12/6 4/7/6 2/3/6 6/10/6
f 12/18/7 11/17/7 15/23/7 16/24/7
f 7/11/8 3/5/8 10/15/8 11/17/8
f 4/7/9 8/12/9 12/18/9 9/13/9
f 3/6/10 4/8/10 9/14/10 10/16/10
f 15/23/6 14/21/6 22/32/6 21/30/6
f 11/17/7 10/15/7 14/21/7 15/23/7
f 9/13/7 12/18/7 16/24/7 13/19/7
f 10/16/7 9/14/7 13/20/7 14/22/7
f 18/27/7 17/26/7 20/29/7 19/28/7
f 13/19/11 16/24/11 20/29/11 17/25/11
f 14/22/12 13/20/12 17/26/12 18/27/12
f 16/24/13 15/23/13 19/28/13 20/29/13
f 23/33/14 21/30/14 25/35/14 27/38/14
f 14/22/15 18/27/15 24/34/15 22/31/15
f 19/28/16 15/23/16 21/30/16 23/33/16
f 18/27/5 19/28/5 23/33/5 24/34/5
f 25/35/17 26/37/17 28/39/17 27/38/17
f 24/34/18 23/33/18 27/38/18 28/40/18
f 22/31/19 24/34/19 28/40/19 26/36/19
f 21/30/20 22/32/20 26/37/20 25/35/20
f 31/45/5 30/43/5 34/50/5 35/51/5
f 5/9/4 6/10/4 31/45/4 32/46/4
f 2/4/4 1/1/4 29/42/4 30/44/4
f 1/2/4 5/9/4 32/46/4 29/41/4
f 32/46/1 31/45/1 35/51/1 36/52/1
f 29/41/6 32/46/6 36/52/6 33/48/6
f 30/44/3 29/42/3 33/47/3 34/49/3
f 33/48/4 36/52/4 35/51/4 34/50/4
f 54/77/4 55/79/4 48/69/4 45/62/4
f 58/83/3 59/84/3 56/80/3 53/76/3
f 38/54/3 39/55/3 62/87/3 61/86/3
f 47/67/6 48/68/6 44/60/6 43/59/6
f 46/65/1 47/67/1 52/75/1 49/70/1
f 50/72/7 51/74/7 60/85/7 57/81/7
f 45/63/21 48/68/21 47/67/21 46/65/21
f 51/74/22 50/72/22 49/70/22 52/75/22
f 59/84/23 58/83/23 57/81/23 60/85/23
f 55/79/24 54/77/24 53/76/24 56/80/24
f 49/71/5 50/73/5 57/82/5 58/83/5 53/76/5 54/78/5 45/64/5 46/66/5
f 56/80/6 59/84/6 39/55/6 38/54/6
f 52/75/6 47/67/6 43/59/6 42/58/6
f 60/85/6 51/74/6 41/57/6 40/56/6
f 55/79/6 56/80/6 38/54/6 37/53/6
f 48/69/6 55/79/6 37/53/6 44/61/6
f 59/84/6 60/85/6 40/56/6 39/55/6
f 51/74/6 52/75/6 42/58/6 41/57/6
f 68/94/25 67/93/25 75/102/25 76/103/25
f 41/57/22 42/58/22 66/92/22 67/93/22
f 43/59/21 44/60/21 64/89/21 65/91/21
f 44/61/4 37/53/4 63/88/4 64/90/4
f 40/56/7 41/57/7 67/93/7 68/94/7
f 39/55/23 40/56/23 68/94/23 62/87/23
f 37/53/24 38/54/24 61/86/24 63/88/24
f 42/58/1 43/59/1 65/91/1 66/92/1
f 72/98/4 71/97/4 79/107/4 80/108/4
f 67/93/26 66/92/26 74/101/26 75/102/26
f 65/91/27 64/89/27 72/99/27 73/100/27
f 64/90/28 63/88/28 71/97/28 72/98/28
f 62/87/29 68/94/29 76/103/29 70/96/29
f 63/88/30 61/86/30 69/95/30 71/97/30
f 66/92/31 65/91/31 73/100/31 74/101/31
f 61/86/32 62/87/32 70/96/32 69/95/32
f 78/105/6 84/117/6 83/115/6 82/113/6 81/111/6 80/109/6 79/106/6 77/104/6
f 70/96/23 76/103/23 84/118/23 78/105/23
f 71/97/24 69/95/24 77/104/24 79/107/24
f 74/101/1 73/100/1 81/112/1 82/114/1
f 69/95/3 70/96/3 78/105/3 77/104/3
f 76/103/7 75/102/7 83/116/7 84/118/7
f 75/102/22 74/101/22 82/114/22 83/116/22
f 73/100/21 72/99/21 80/110/21 81/112/21
