# Blender 3.5.1
# www.blender.org
mtllib howitzer_turret.mtl
o Cube.035
v 0.179122 -0.215913 -0.360278
v 0.255131 -0.215913 -0.284269
v 0.255131 -0.103825 -0.284269
v 0.179122 -0.103825 -0.360278
v 0.255131 -0.215913 0.284269
v 0.179122 -0.215913 0.360278
v 0.179122 -0.103825 0.360278
v 0.255131 -0.103825 0.284269
v -0.255131 -0.215913 -0.284269
v -0.179122 -0.215913 -0.360278
v -0.179122 -0.103825 -0.360278
v -0.255131 -0.103825 -0.284269
v -0.179122 -0.215913 0.360278
v -0.255131 -0.215913 0.284269
v -0.255131 -0.103825 0.284269
v -0.179122 -0.103825 0.360278
v 0.179122 0.100866 -0.112382
v 0.255131 0.100866 -0.064435
v 0.255131 0.100866 0.294206
v 0.179122 0.100866 0.342153
v -0.179122 0.100866 0.342153
v -0.255131 0.100866 0.294206
v -0.255131 0.100866 -0.064435
v -0.179122 0.100866 -0.112382
v 0.196211 0.113675 -0.010189
v 0.238042 0.113675 0.016198
v 0.238042 0.113675 0.213573
v 0.196211 0.113675 0.239960
v -0.196211 0.113675 0.239960
v -0.238042 0.113675 0.213573
v -0.238042 0.113675 0.016198
v -0.196211 0.113675 -0.010189
v 0.165662 -0.103825 0.360278
v 0.165662 -0.103825 -0.360278
v -0.165662 -0.103825 0.360278
v -0.165662 -0.103825 -0.360278
v 0.165662 0.019450 0.342153
v 0.165662 0.019450 -0.112382
v -0.165662 0.019450 0.342153
v -0.165662 0.019450 -0.112382
vn -0.0000 -0.0000 -1.0000
vn -1.0000 -0.0000 -0.0000
vn -0.6319 0.0155 0.7749
vn 1.0000 -0.0000 -0.0000
vn -0.0000 -0.0000 1.0000
vn 0.7071 -0.0000 -0.7071
vn 0.7071 -0.0000 0.7071
vn -0.7071 -0.0000 0.7071
vn -0.7071 -0.0000 -0.7071
vn -0.0000 -1.0000 -0.0000
vn -0.0000 1.0000 -0.0000
vn -0.4731 0.6629 -0.5802
vn 0.5998 0.8002 -0.0000
vn -0.5998 0.8002 -0.0000
vn 0.6319 0.0155 0.7749
vn -0.3153 0.1043 0.9433
vn 0.4731 0.6629 -0.5802
vn -0.9866 0.1631 -0.0000
vn -0.0872 0.9866 0.1382
vn 0.0872 0.9866 -0.1382
vn -0.0872 0.9866 -0.1382
vn 0.0872 0.9866 0.1382
vn 0.9296 0.3074 -0.2033
vn 0.9866 0.1631 -0.0000
vn -0.9296 0.3074 -0.2033
vn 0.3153 0.1043 0.9433
vt 0.375000 0.962760
vt 0.162240 0.750000
vt 0.375000 0.026371
vt 0.375000 1.000000
vt 0.125000 0.723629
vt 0.625000 1.000000
vt 0.625000 0.026371
vt 0.837760 0.750000
vt 0.625000 0.962760
vt 0.375000 0.223629
vt 0.125000 0.526371
vt 0.375000 0.287240
vt 0.162240 0.500000
vt 0.625000 0.287240
vt 0.837760 0.500000
vt 0.625000 0.223629
vt 0.375000 0.723629
vt 0.375000 0.787240
vt 0.337760 0.750000
vt 0.625000 0.787240
vt 0.662240 0.750000
vt 0.625000 0.723629
vt 0.375000 0.462760
vt 0.337760 0.500000
vt 0.375000 0.526371
vt 0.625000 0.526371
vt 0.625000 0.462760
vt 0.662240 0.500000
vt 0.837760 0.750000
vt 0.625000 0.962760
vt 0.625000 0.026371
vt 0.625000 1.000000
vt 0.625000 0.223629
vt 0.837760 0.500000
vt 0.625000 0.287240
vt 0.662240 0.500000
vt 0.625000 0.462760
vt 0.625000 0.526371
vt 0.625000 0.723629
vt 0.625000 0.787240
vt 0.662240 0.750000
vt 0.837760 0.750000
vt 0.625000 0.962760
vt 0.625000 0.026371
vt 0.875000 0.723629
vt 0.625000 1.000000
vt 0.875000 0.526371
vt 0.625000 0.223629
vt 0.837760 0.500000
vt 0.625000 0.287240
vt 0.625000 0.462760
vt 0.662240 0.500000
vt 0.625000 0.526371
vt 0.625000 0.723629
vt 0.662240 0.750000
vt 0.625000 0.787240
vt 0.625000 0.287240
vt 0.837760 0.500000
vt 0.837760 0.750000
vt 0.625000 0.962760
vt 0.625000 0.462760
vt 0.662240 0.500000
vt 0.625000 0.787240
vt 0.662240 0.750000
vt 0.625000 0.287240
vt 0.837760 0.500000
vt 0.837760 0.750000
vt 0.625000 0.962760
vt 0.662240 0.500000
vt 0.625000 0.462760
vt 0.625000 0.787240
vt 0.662240 0.750000
s 0
f 10/18/1 11/20/1 4/9/1 1/1/1
f 14/25/2 15/26/2 12/22/2 9/17/2
f 15/26/3 16/27/3 21/37/3 22/38/3
f 2/3/4 3/7/4 8/16/4 5/10/4
f 6/12/5 7/14/5 16/27/5 13/23/5
f 1/1/6 4/9/6 3/6/6 2/4/6
f 7/14/7 6/12/7 5/10/7 8/16/7
f 15/26/8 14/25/8 13/23/8 16/27/8
f 11/20/9 10/18/9 9/17/9 12/22/9
f 5/11/10 6/13/10 13/24/10 14/25/10 9/17/10 10/19/10 1/2/10 2/5/10
f 16/28/11 7/15/11 4/8/11 11/21/11
f 11/20/12 12/22/12 23/39/12 24/40/12
f 19/33/13 18/31/13 26/44/13 27/48/13
f 17/29/14 20/34/14 28/49/14 25/42/14
f 7/14/15 8/16/15 19/33/15 20/35/15
f 7/14/16 20/35/16 37/65/16 33/57/16
f 3/6/17 4/9/17 17/30/17 18/32/17
f 12/22/2 15/26/2 22/38/2 23/39/2
f 8/16/4 3/7/4 18/31/4 19/33/4
f 20/34/18 17/29/18 38/67/18 37/66/18
f 25/42/11 28/49/11 27/47/11 26/45/11
f 30/53/11 29/52/11 32/55/11 31/54/11
f 22/38/19 21/37/19 29/51/19 30/53/19
f 18/32/20 17/30/20 25/43/20 26/46/20
f 21/36/13 24/41/13 32/55/13 29/52/13
f 23/39/14 22/38/14 30/53/14 31/54/14
f 24/40/21 23/39/21 31/54/21 32/56/21
f 20/35/22 19/33/22 27/48/22 28/50/22
f 34/59/2 33/58/2 37/66/2 38/67/2
f 35/62/4 36/64/4 40/72/4 39/69/4
f 11/20/23 24/40/23 40/71/23 36/63/23
f 4/8/10 7/15/10 33/58/10 34/59/10
f 24/41/24 21/36/24 39/69/24 40/72/24
f 17/30/25 4/9/25 34/60/25 38/68/25
f 21/37/26 16/27/26 35/61/26 39/70/26
f 16/28/10 11/21/10 36/64/10 35/62/10
