# Blender 3.5.1
# www.blender.org
mtllib ibm5151.mtl
o Cube.035
v -0.246672 0.401971 0.292477
v 0.164599 0.401971 0.256989
v 0.164599 0.401971 0.292477
v -0.246672 0.401971 0.256989
v -0.315947 0.312621 0.285248
v -0.315947 0.343321 0.315947
v -0.315947 0.768793 0.315947
v -0.315947 0.799493 0.285248
v -0.315947 0.343321 -0.315947
v -0.315947 0.312621 -0.285248
v -0.315947 0.729407 -0.285248
v -0.315947 0.698707 -0.315947
v 0.315947 0.343321 0.315947
v 0.315947 0.312621 0.285248
v 0.315947 0.799493 0.285248
v 0.315947 0.768793 0.315947
v 0.315947 0.312621 -0.285248
v 0.315947 0.343321 -0.315947
v 0.315947 0.698707 -0.315947
v 0.315947 0.729407 -0.285248
v 0.164599 0.710143 0.292477
v -0.246672 0.710143 0.256989
v -0.246672 0.710143 0.292477
v 0.164599 0.710143 0.256989
v 0.244276 0.736714 0.315947
v 0.268305 0.712684 0.315947
v 0.288237 0.750135 0.315947
v -0.268305 0.712684 0.315947
v -0.244276 0.736714 0.315947
v -0.288237 0.750135 0.315947
v -0.244276 0.375400 0.315947
v -0.268305 0.399429 0.315947
v -0.288237 0.361979 0.315947
v 0.268305 0.399429 0.315947
v 0.244276 0.375400 0.315947
v 0.288237 0.361979 0.315947
v 0.268305 0.712684 0.292477
v 0.244276 0.736714 0.292477
v -0.244276 0.736714 0.292477
v -0.268305 0.712684 0.292477
v -0.268305 0.399429 0.292477
v -0.244276 0.375400 0.292477
v 0.244276 0.375400 0.292477
v 0.268305 0.399429 0.292477
v 0.212089 0.450200 0.289136
v 0.212089 0.450200 0.306801
v 0.215746 0.449840 0.289136
v 0.215746 0.449840 0.306801
v 0.219263 0.448773 0.289136
v 0.219263 0.448773 0.306801
v 0.222503 0.447041 0.289136
v 0.222503 0.447041 0.306801
v 0.225344 0.444710 0.289136
v 0.225344 0.444710 0.306801
v 0.227675 0.441869 0.289136
v 0.227675 0.441869 0.306801
v 0.229407 0.438628 0.289136
v 0.229407 0.438628 0.306801
v 0.230474 0.435112 0.289136
v 0.230474 0.435112 0.306801
v 0.230834 0.431455 0.289136
v 0.230834 0.431455 0.306801
v 0.230474 0.427798 0.289136
v 0.230474 0.427798 0.306801
v 0.229407 0.424282 0.289136
v 0.229407 0.424282 0.306801
v 0.227675 0.421041 0.289136
v 0.227675 0.421041 0.306801
v 0.225344 0.418201 0.289136
v 0.225344 0.418201 0.306801
v 0.222503 0.415869 0.289136
v 0.222503 0.415869 0.306801
v 0.219263 0.414137 0.289136
v 0.219263 0.414137 0.306801
v 0.215746 0.413071 0.289136
v 0.215746 0.413071 0.306801
v 0.212089 0.412710 0.289136
v 0.212089 0.412710 0.306801
v 0.208433 0.413071 0.289136
v 0.208433 0.413071 0.306801
v 0.204916 0.414137 0.289136
v 0.204916 0.414137 0.306801
v 0.201675 0.415869 0.289136
v 0.201675 0.415869 0.306801
v 0.198835 0.418201 0.289136
v 0.198835 0.418201 0.306801
v 0.196504 0.421041 0.289136
v 0.196504 0.421041 0.306801
v 0.194772 0.424282 0.289136
v 0.194772 0.424282 0.306801
v 0.193705 0.427798 0.289136
v 0.193705 0.427798 0.306801
v 0.193345 0.431455 0.289136
v 0.193345 0.431455 0.306801
v 0.193705 0.435112 0.289136
v 0.193705 0.435112 0.306801
v 0.194772 0.438628 0.289136
v 0.194772 0.438628 0.306801
v 0.196504 0.441869 0.289136
v 0.196504 0.441869 0.306801
v 0.198835 0.444710 0.289136
v 0.198835 0.444710 0.306801
v 0.201675 0.447041 0.289136
v 0.201675 0.447041 0.306801
v 0.204916 0.448773 0.289136
v 0.204916 0.448773 0.306801
v 0.208433 0.449840 0.289136
v 0.208433 0.449840 0.306801
v 0.212089 0.500489 0.289136
v 0.212089 0.500489 0.306801
v 0.215746 0.500129 0.289136
v 0.215746 0.500129 0.306801
v 0.219263 0.499062 0.289136
v 0.219263 0.499062 0.306801
v 0.222503 0.497330 0.289136
v 0.222503 0.497330 0.306801
v 0.225344 0.494999 0.289136
v 0.225344 0.494999 0.306801
v 0.227675 0.492158 0.289136
v 0.227675 0.492158 0.306801
v 0.229407 0.488918 0.289136
v 0.229407 0.488918 0.306801
v 0.230474 0.485401 0.289136
v 0.230474 0.485401 0.306801
v 0.230834 0.481744 0.289136
v 0.230834 0.481744 0.306801
v 0.230474 0.478087 0.289136
v 0.230474 0.478087 0.306801
v 0.229407 0.474571 0.289136
v 0.229407 0.474571 0.306801
v 0.227675 0.471330 0.289136
v 0.227675 0.471330 0.306801
v 0.225344 0.468490 0.289136
v 0.225344 0.468490 0.306801
v 0.222503 0.466159 0.289136
v 0.222503 0.466159 0.306801
v 0.219263 0.464426 0.289136
v 0.219263 0.464426 0.306801
v 0.215746 0.463360 0.289136
v 0.215746 0.463360 0.306801
v 0.212089 0.463000 0.289136
v 0.212089 0.463000 0.306801
v 0.208433 0.463360 0.289136
v 0.208433 0.463360 0.306801
v 0.204916 0.464426 0.289136
v 0.204916 0.464426 0.306801
v 0.201675 0.466159 0.289136
v 0.201675 0.466159 0.306801
v 0.198835 0.468490 0.289136
v 0.198835 0.468490 0.306801
v 0.196504 0.471330 0.289136
v 0.196504 0.471330 0.306801
v 0.194772 0.474571 0.289136
v 0.194772 0.474571 0.306801
v 0.193705 0.478087 0.289136
v 0.193705 0.478087 0.306801
v 0.193345 0.481744 0.289136
v 0.193345 0.481744 0.306801
v 0.193705 0.485401 0.289136
v 0.193705 0.485401 0.306801
v 0.194772 0.488918 0.289136
v 0.194772 0.488918 0.306801
v 0.196504 0.492158 0.289136
v 0.196504 0.492158 0.306801
v 0.198835 0.494999 0.289136
v 0.198835 0.494999 0.306801
v 0.201675 0.497330 0.289136
v 0.201675 0.497330 0.306801
v 0.204916 0.499062 0.289136
v 0.204916 0.499062 0.306801
v 0.208433 0.500129 0.289136
v 0.208433 0.500129 0.306801
vn 1.0000 -0.0000 -0.0000
vn -1.0000 -0.0000 -0.0000
vn -0.0000 0.9925 -0.1219
vn -0.0000 -0.0000 -1.0000
vn -0.0000 -0.7071 -0.7071
vn -0.0000 0.7071 -0.7071
vn -0.0000 -0.7071 0.7071
vn -0.0000 0.7071 0.7071
vn -0.0000 -1.0000 -0.0000
vn -0.0000 -0.0000 1.0000
vn -0.0000 1.0000 -0.0000
vn 0.7071 -0.7071 -0.0000
vn -0.7071 -0.7071 -0.0000
vn -0.7071 0.7071 -0.0000
vn 0.7071 0.7071 -0.0000
vn 0.0980 0.9952 -0.0000
vn 0.2903 0.9569 -0.0000
vn 0.4714 0.8819 -0.0000
vn 0.6344 0.7730 -0.0000
vn 0.7730 0.6344 -0.0000
vn 0.8819 0.4714 -0.0000
vn 0.9569 0.2903 -0.0000
vn 0.9952 0.0980 -0.0000
vn 0.9952 -0.0980 -0.0000
vn 0.9569 -0.2903 -0.0000
vn 0.8819 -0.4714 -0.0000
vn 0.7730 -0.6344 -0.0000
vn 0.6344 -0.7730 -0.0000
vn 0.4714 -0.8819 -0.0000
vn 0.2903 -0.9569 -0.0000
vn 0.0980 -0.9952 -0.0000
vn -0.0980 -0.9952 -0.0000
vn -0.2903 -0.9569 -0.0000
vn -0.4714 -0.8819 -0.0000
vn -0.6344 -0.7730 -0.0000
vn -0.7730 -0.6344 -0.0000
vn -0.8819 -0.4714 -0.0000
vn -0.9569 -0.2903 -0.0000
vn -0.9952 -0.0980 -0.0000
vn -0.9952 0.0980 -0.0000
vn -0.9569 0.2903 -0.0000
vn -0.8819 0.4714 -0.0000
vn -0.7730 0.6344 -0.0000
vn -0.6344 0.7730 -0.0000
vn -0.4714 0.8819 -0.0000
vn -0.2903 0.9569 -0.0000
vn -0.0980 0.9952 -0.0000
vt 0.125000 0.750000
vt 0.405293 0.000000
vt 0.136195 0.750000
vt 0.363805 0.750000
vt 0.405293 0.750000
vt 0.363805 0.750000
vt 0.405293 0.750000
vt 0.405293 0.000000
vt 0.390764 0.988805
vt 0.136195 0.750000
vt 0.375000 0.012146
vt 0.125000 0.737854
vt 0.125000 0.750000
vt 0.390764 0.000000
vt 0.609236 0.000000
vt 0.609236 1.000000
vt 0.875000 0.737854
vt 0.625000 0.012146
vt 0.625000 1.000000
vt 0.390764 0.250000
vt 0.125000 0.500000
vt 0.375000 0.237854
vt 0.125000 0.512146
vt 0.875000 0.512146
vt 0.625000 0.237854
vt 0.625000 0.250000
vt 0.609236 0.250000
vt 0.390764 0.750000
vt 0.375000 0.750000
vt 0.375000 0.737854
vt 0.625000 0.737854
vt 0.625000 0.750000
vt 0.609236 0.750000
vt 0.375000 0.512146
vt 0.390764 0.500000
vt 0.375000 0.500000
vt 0.609236 0.500000
vt 0.625000 0.512146
vt 0.625000 0.500000
vt 0.609236 0.761195
vt 0.594707 0.750000
vt 0.594707 0.000000
vt 0.594707 1.000000
vt 0.609236 0.988805
vt 0.609236 0.000000
vt 0.594707 0.000000
vt 0.609236 0.988805
vt 0.609236 0.761195
vt 0.594707 0.750000
vt 0.609236 0.761195
vt 0.609236 0.750000
vt 0.594707 0.750000
vt 0.609236 0.750000
vt 0.594707 0.000000
vt 0.609236 0.000000
vt 0.609236 0.988805
vt 0.609236 0.000000
vt 0.609236 1.000000
vt 0.136195 0.750000
vt 0.405293 0.000000
vt 0.125000 0.750000
vt 0.390764 0.000000
vt 0.125000 0.750000
vt 0.405293 0.750000
vt 0.375000 0.750000
vt 0.363805 0.750000
vt 0.390764 0.750000
vt 0.375000 0.750000
vt 0.594707 0.750000
vt 0.609236 0.761195
vt 0.609236 0.000000
vt 0.609236 0.988805
vt 0.594707 0.000000
vt 0.125000 0.750000
vt 0.405293 0.000000
vt 0.136195 0.750000
vt 0.363805 0.750000
vt 0.405293 0.750000
vt 0.375000 0.750000
vt 1.000000 0.500000
vt 0.000000 0.500000
vt 0.750000 0.490000
vt 1.000000 1.000000
vt 0.250000 0.490000
vt 0.000000 1.000000
vt 0.968750 0.500000
vt 0.796822 0.485388
vt 0.968750 1.000000
vt 0.296822 0.485388
vt 0.937500 0.500000
vt 0.841844 0.471731
vt 0.937500 1.000000
vt 0.341844 0.471731
vt 0.906250 0.500000
vt 0.883337 0.449553
vt 0.906250 1.000000
vt 0.383337 0.449553
vt 0.875000 0.500000
vt 0.919706 0.419706
vt 0.875000 1.000000
vt 0.419706 0.419706
vt 0.843750 0.500000
vt 0.949553 0.383337
vt 0.843750 1.000000
vt 0.449553 0.383337
vt 0.812500 0.500000
vt 0.971731 0.341844
vt 0.812500 1.000000
vt 0.471731 0.341844
vt 0.781250 0.500000
vt 0.985388 0.296822
vt 0.781250 1.000000
vt 0.485388 0.296822
vt 0.750000 0.500000
vt 0.990000 0.250000
vt 0.750000 1.000000
vt 0.490000 0.250000
vt 0.718750 0.500000
vt 0.985388 0.203178
vt 0.718750 1.000000
vt 0.485388 0.203178
vt 0.687500 0.500000
vt 0.971731 0.158156
vt 0.687500 1.000000
vt 0.471731 0.158156
vt 0.656250 0.500000
vt 0.949553 0.116663
vt 0.656250 1.000000
vt 0.449553 0.116663
vt 0.625000 0.500000
vt 0.919706 0.080294
vt 0.625000 1.000000
vt 0.419706 0.080294
vt 0.593750 0.500000
vt 0.883337 0.050447
vt 0.593750 1.000000
vt 0.383337 0.050447
vt 0.562500 0.500000
vt 0.841844 0.028269
vt 0.562500 1.000000
vt 0.341844 0.028269
vt 0.531250 0.500000
vt 0.796822 0.014612
vt 0.531250 1.000000
vt 0.296822 0.014612
vt 0.500000 0.500000
vt 0.750000 0.010000
vt 0.500000 1.000000
vt 0.250000 0.010000
vt 0.468750 0.500000
vt 0.703178 0.014612
vt 0.468750 1.000000
vt 0.203178 0.014612
vt 0.437500 0.500000
vt 0.658156 0.028269
vt 0.437500 1.000000
vt 0.158156 0.028269
vt 0.406250 0.500000
vt 0.616663 0.050447
vt 0.406250 1.000000
vt 0.116663 0.050447
vt 0.375000 0.500000
vt 0.580294 0.080294
vt 0.375000 1.000000
vt 0.080294 0.080294
vt 0.343750 0.500000
vt 0.550447 0.116663
vt 0.343750 1.000000
vt 0.050447 0.116663
vt 0.312500 0.500000
vt 0.528269 0.158156
vt 0.312500 1.000000
vt 0.028269 0.158156
vt 0.281250 0.500000
vt 0.514612 0.203178
vt 0.281250 1.000000
vt 0.014612 0.203178
vt 0.250000 0.500000
vt 0.510000 0.250000
vt 0.250000 1.000000
vt 0.010000 0.250000
vt 0.218750 0.500000
vt 0.514612 0.296822
vt 0.218750 1.000000
vt 0.014612 0.296822
vt 0.187500 0.500000
vt 0.528269 0.341844
vt 0.187500 1.000000
vt 0.028269 0.341844
vt 0.156250 0.500000
vt 0.550447 0.383337
vt 0.156250 1.000000
vt 0.050447 0.383337
vt 0.125000 0.500000
vt 0.580294 0.419706
vt 0.125000 1.000000
vt 0.080294 0.419706
vt 0.093750 0.500000
vt 0.616663 0.449553
vt 0.093750 1.000000
vt 0.116663 0.449553
vt 0.062500 0.500000
vt 0.658156 0.471731
vt 0.158156 0.471731
vt 0.062500 1.000000
vt 0.031250 0.500000
vt 0.703178 0.485388
vt 0.203178 0.485388
vt 0.031250 1.000000
vt 1.000000 0.500000
vt 0.000000 0.500000
vt 0.750000 0.490000
vt 1.000000 1.000000
vt 0.250000 0.490000
vt 0.000000 1.000000
vt 0.968750 0.500000
vt 0.796822 0.485388
vt 0.968750 1.000000
vt 0.296822 0.485388
vt 0.937500 0.500000
vt 0.841844 0.471731
vt 0.937500 1.000000
vt 0.341844 0.471731
vt 0.906250 0.500000
vt 0.883337 0.449553
vt 0.906250 1.000000
vt 0.383337 0.449553
vt 0.875000 0.500000
vt 0.919706 0.419706
vt 0.875000 1.000000
vt 0.419706 0.419706
vt 0.843750 0.500000
vt 0.949553 0.383337
vt 0.843750 1.000000
vt 0.449553 0.383337
vt 0.812500 0.500000
vt 0.971731 0.341844
vt 0.812500 1.000000
vt 0.471731 0.341844
vt 0.781250 0.500000
vt 0.985388 0.296822
vt 0.781250 1.000000
vt 0.485388 0.296822
vt 0.750000 0.500000
vt 0.990000 0.250000
vt 0.750000 1.000000
vt 0.490000 0.250000
vt 0.718750 0.500000
vt 0.985388 0.203178
vt 0.718750 1.000000
vt 0.485388 0.203178
vt 0.687500 0.500000
vt 0.971731 0.158156
vt 0.687500 1.000000
vt 0.471731 0.158156
vt 0.656250 0.500000
vt 0.949553 0.116663
vt 0.656250 1.000000
vt 0.449553 0.116663
vt 0.625000 0.500000
vt 0.919706 0.080294
vt 0.625000 1.000000
vt 0.419706 0.080294
vt 0.593750 0.500000
vt 0.883337 0.050447
vt 0.593750 1.000000
vt 0.383337 0.050447
vt 0.562500 0.500000
vt 0.841844 0.028269
vt 0.562500 1.000000
vt 0.341844 0.028269
vt 0.531250 0.500000
vt 0.796822 0.014612
vt 0.531250 1.000000
vt 0.296822 0.014612
vt 0.500000 0.500000
vt 0.750000 0.010000
vt 0.500000 1.000000
vt 0.250000 0.010000
vt 0.468750 0.500000
vt 0.703178 0.014612
vt 0.468750 1.000000
vt 0.203178 0.014612
vt 0.437500 0.500000
vt 0.658156 0.028269
vt 0.437500 1.000000
vt 0.158156 0.028269
vt 0.406250 0.500000
vt 0.616663 0.050447
vt 0.406250 1.000000
vt 0.116663 0.050447
vt 0.375000 0.500000
vt 0.580294 0.080294
vt 0.375000 1.000000
vt 0.080294 0.080294
vt 0.343750 0.500000
vt 0.550447 0.116663
vt 0.343750 1.000000
vt 0.050447 0.116663
vt 0.312500 0.500000
vt 0.528269 0.158156
vt 0.312500 1.000000
vt 0.028269 0.158156
vt 0.281250 0.500000
vt 0.514612 0.203178
vt 0.281250 1.000000
vt 0.014612 0.203178
vt 0.250000 0.500000
vt 0.510000 0.250000
vt 0.250000 1.000000
vt 0.010000 0.250000
vt 0.218750 0.500000
vt 0.514612 0.296822
vt 0.218750 1.000000
vt 0.014612 0.296822
vt 0.187500 0.500000
vt 0.528269 0.341844
vt 0.187500 1.000000
vt 0.028269 0.341844
vt 0.156250 0.500000
vt 0.550447 0.383337
vt 0.156250 1.000000
vt 0.050447 0.383337
vt 0.125000 0.500000
vt 0.580294 0.419706
vt 0.125000 1.000000
vt 0.080294 0.419706
vt 0.093750 0.500000
vt 0.616663 0.449553
vt 0.093750 1.000000
vt 0.116663 0.449553
vt 0.062500 0.500000
vt 0.658156 0.471731
vt 0.158156 0.471731
vt 0.062500 1.000000
vt 0.031250 0.500000
vt 0.703178 0.485388
vt 0.203178 0.485388
vt 0.031250 1.000000
s 0
f 28/54/1 32/60/1 41/75/1 40/73/1
f 17/34/1 18/35/1 19/37/1 20/38/1 15/31/1 16/33/1 13/28/1 14/30/1
f 34/64/2 26/52/2 37/69/2 44/78/2
f 20/38/3 11/24/3 8/17/3 15/31/3
f 5/11/2 6/14/2 7/15/2 8/18/2 11/25/2 12/27/2 9/20/2 10/22/2
f 9/20/4 12/27/4 19/37/4 18/35/4
f 17/34/5 10/23/5 9/21/5 18/36/5
f 11/26/6 20/39/6 19/37/6 12/27/6
f 5/12/7 14/30/7 13/29/7 6/13/7
f 15/32/8 8/19/8 7/16/8 16/33/8
f 10/23/9 17/34/9 14/30/9 5/12/9
f 25/50/9 29/56/9 39/72/9 38/70/9
f 13/28/10 16/33/10 27/53/10 26/52/10 34/64/10 36/67/10
f 31/59/11 35/66/11 43/77/11 42/76/11
f 23/46/1 1/2/1 4/8/1 22/42/1
f 41/74/10 42/76/10 1/1/10
f 6/13/10 13/29/10 36/68/10 35/66/10 31/59/10 33/63/10
f 7/15/10 6/14/10 33/62/10 32/60/10 28/54/10 30/57/10
f 25/50/10 26/51/10 27/53/10
f 28/54/10 29/55/10 30/57/10
f 31/59/10 32/61/10 33/63/10
f 34/65/10 35/66/10 36/68/10
f 28/54/12 40/73/12 39/71/12 29/55/12
f 37/69/13 26/52/13 25/50/13 38/70/13
f 34/65/14 44/79/14 43/77/14 35/66/14
f 41/74/15 32/61/15 31/59/15 42/76/15
f 16/33/10 7/16/10 30/58/10 29/56/10 25/50/10 27/53/10
f 44/78/10 37/69/10 21/41/10 3/7/10
f 43/77/10 44/79/10 3/6/10
f 37/69/10 38/70/10 21/41/10
f 42/76/10 43/77/10 3/6/10 1/3/10
f 39/71/10 40/73/10 23/45/10
f 40/73/10 41/75/10 1/2/10 23/46/10
f 38/70/10 39/72/10 23/47/10 21/40/10
f 2/5/10 24/48/10 22/43/10 4/9/10
f 1/3/11 3/6/11 2/4/11 4/10/11
f 21/40/9 23/47/9 22/44/9 24/48/9
f 3/7/2 21/41/2 24/49/2 2/5/2
f 45/80/16 46/83/16 48/88/16 47/86/16
f 47/86/17 48/88/17 50/92/17 49/90/17
f 49/90/18 50/92/18 52/96/18 51/94/18
f 51/94/19 52/96/19 54/100/19 53/98/19
f 53/98/20 54/100/20 56/104/20 55/102/20
f 55/102/21 56/104/21 58/108/21 57/106/21
f 57/106/22 58/108/22 60/112/22 59/110/22
f 59/110/23 60/112/23 62/116/23 61/114/23
f 61/114/24 62/116/24 64/120/24 63/118/24
f 63/118/25 64/120/25 66/124/25 65/122/25
f 65/122/26 66/124/26 68/128/26 67/126/26
f 67/126/27 68/128/27 70/132/27 69/130/27
f 69/130/28 70/132/28 72/136/28 71/134/28
f 71/134/29 72/136/29 74/140/29 73/138/29
f 73/138/30 74/140/30 76/144/30 75/142/30
f 75/142/31 76/144/31 78/148/31 77/146/31
f 77/146/32 78/148/32 80/152/32 79/150/32
f 79/150/33 80/152/33 82/156/33 81/154/33
f 81/154/34 82/156/34 84/160/34 83/158/34
f 83/158/35 84/160/35 86/164/35 85/162/35
f 85/162/36 86/164/36 88/168/36 87/166/36
f 87/166/37 88/168/37 90/172/37 89/170/37
f 89/170/38 90/172/38 92/176/38 91/174/38
f 91/174/39 92/176/39 94/180/39 93/178/39
f 93/178/40 94/180/40 96/184/40 95/182/40
f 95/182/41 96/184/41 98/188/41 97/186/41
f 97/186/42 98/188/42 100/192/42 99/190/42
f 99/190/43 100/192/43 102/196/43 101/194/43
f 101/194/44 102/196/44 104/200/44 103/198/44
f 103/198/45 104/200/45 106/205/45 105/202/45
f 48/89/10 46/84/10 108/208/10 106/204/10 104/201/10 102/197/10 100/193/10 98/189/10 96/185/10 94/181/10 92/177/10 90/173/10 88/169/10 86/165/10 84/161/10 82/157/10 80/153/10 78/149/10 76/145/10 74/141/10 72/137/10 70/133/10 68/129/10 66/125/10 64/121/10 62/117/10 60/113/10 58/109/10 56/105/10 54/101/10 52/97/10 50/93/10
f 105/202/46 106/205/46 108/209/46 107/206/46
f 107/206/47 108/209/47 46/85/47 45/81/47
f 45/82/4 47/87/4 49/91/4 51/95/4 53/99/4 55/103/4 57/107/4 59/111/4 61/115/4 63/119/4 65/123/4 67/127/4 69/131/4 71/135/4 73/139/4 75/143/4 77/147/4 79/151/4 81/155/4 83/159/4 85/163/4 87/167/4 89/171/4 91/175/4 93/179/4 95/183/4 97/187/4 99/191/4 101/195/4 103/199/4 105/203/4 107/207/4
f 109/210/16 110/213/16 112/218/16 111/216/16
f 111/216/17 112/218/17 114/222/17 113/220/17
f 113/220/18 114/222/18 116/226/18 115/224/18
f 115/224/19 116/226/19 118/230/19 117/228/19
f 117/228/20 118/230/20 120/234/20 119/232/20
f 119/232/21 120/234/21 122/238/21 121/236/21
f 121/236/22 122/238/22 124/242/22 123/240/22
f 123/240/23 124/242/23 126/246/23 125/244/23
f 125/244/24 126/246/24 128/250/24 127/248/24
f 127/248/25 128/250/25 130/254/25 129/252/25
f 129/252/26 130/254/26 132/258/26 131/256/26
f 131/256/27 132/258/27 134/262/27 133/260/27
f 133/260/28 134/262/28 136/266/28 135/264/28
f 135/264/29 136/266/29 138/270/29 137/268/29
f 137/268/30 138/270/30 140/274/30 139/272/30
f 139/272/31 140/274/31 142/278/31 141/276/31
f 141/276/32 142/278/32 144/282/32 143/280/32
f 143/280/33 144/282/33 146/286/33 145/284/33
f 145/284/34 146/286/34 148/290/34 147/288/34
f 147/288/35 148/290/35 150/294/35 149/292/35
f 149/292/36 150/294/36 152/298/36 151/296/36
f 151/296/37 152/298/37 154/302/37 153/300/37
f 153/300/38 154/302/38 156/306/38 155/304/38
f 155/304/39 156/306/39 158/310/39 157/308/39
f 157/308/40 158/310/40 160/314/40 159/312/40
f 159/312/41 160/314/41 162/318/41 161/316/41
f 161/316/42 162/318/42 164/322/42 163/320/42
f 163/320/43 164/322/43 166/326/43 165/324/43
f 165/324/44 166/326/44 168/330/44 167/328/44
f 167/328/45 168/330/45 170/335/45 169/332/45
f 112/219/10 110/214/10 172/338/10 170/334/10 168/331/10 166/327/10 164/323/10 162/319/10 160/315/10 158/311/10 156/307/10 154/303/10 152/299/10 150/295/10 148/291/10 146/287/10 144/283/10 142/279/10 140/275/10 138/271/10 136/267/10 134/263/10 132/259/10 130/255/10 128/251/10 126/247/10 124/243/10 122/239/10 120/235/10 118/231/10 116/227/10 114/223/10
f 169/332/46 170/335/46 172/339/46 171/336/46
f 171/336/47 172/339/47 110/215/47 109/211/47
f 109/212/4 111/217/4 113/221/4 115/225/4 117/229/4 119/233/4 121/237/4 123/241/4 125/245/4 127/249/4 129/253/4 131/257/4 133/261/4 135/265/4 137/269/4 139/273/4 141/277/4 143/281/4 145/285/4 147/289/4 149/293/4 151/297/4 153/301/4 155/305/4 157/309/4 159/313/4 161/317/4 163/321/4 165/325/4 167/329/4 169/333/4 171/337/4
