# Blender 3.5.1
# www.blender.org
mtllib ibm5151_screen.mtl
o Cube.049
v 0.164599 0.401971 0.268156
v -0.246672 0.401971 0.268156
v -0.246672 0.710143 0.268156
v 0.164599 0.710143 0.268156
v -0.246672 0.556057 0.282059
v 0.164599 0.556057 0.282059
v -0.041036 0.710143 0.290241
v -0.041036 0.401971 0.290241
v -0.041036 0.556057 0.299047
v -0.246672 0.633100 0.280758
v 0.164599 0.479014 0.280758
v 0.061782 0.710143 0.288303
v -0.143854 0.401971 0.288303
v -0.246672 0.479014 0.280758
v 0.164599 0.633100 0.280758
v -0.143854 0.710143 0.288303
v 0.061782 0.401971 0.288303
v -0.143854 0.556057 0.297415
v 0.061782 0.556057 0.297415
v -0.041036 0.479014 0.298136
v -0.041036 0.633100 0.298136
v 0.061782 0.633100 0.296477
v 0.061782 0.479014 0.296477
v -0.143854 0.479014 0.296477
v -0.143854 0.633100 0.296477
v -0.246672 0.671621 0.276565
v 0.164599 0.440493 0.276565
v 0.113191 0.710143 0.281938
v -0.195263 0.401971 0.281938
v -0.246672 0.517535 0.282059
v 0.164599 0.594578 0.282059
v -0.092445 0.710143 0.290241
v 0.010373 0.401971 0.290241
v -0.195263 0.556057 0.292203
v 0.010373 0.556057 0.299047
v -0.041036 0.440493 0.295311
v -0.041036 0.594578 0.299047
v -0.246672 0.594578 0.282059
v 0.164599 0.517535 0.282059
v 0.010373 0.710143 0.290241
v -0.092445 0.401971 0.290241
v -0.246672 0.440493 0.276565
v 0.164599 0.671621 0.276565
v -0.195263 0.710143 0.281938
v 0.113191 0.401971 0.281938
v -0.092445 0.556057 0.299047
v 0.113191 0.556057 0.292203
v -0.041036 0.517535 0.299047
v -0.041036 0.671621 0.295311
v 0.010373 0.633100 0.298136
v 0.113191 0.633100 0.291167
v 0.061782 0.594578 0.297415
v 0.061782 0.671621 0.293562
v 0.010373 0.479014 0.298136
v 0.113191 0.479014 0.291167
v 0.061782 0.440493 0.293562
v 0.061782 0.517535 0.297415
v -0.195263 0.479014 0.291167
v -0.092445 0.479014 0.298136
v -0.143854 0.440493 0.293562
v -0.143854 0.517535 0.297415
v -0.195263 0.633100 0.291167
v -0.092445 0.633100 0.298136
v -0.143854 0.594578 0.297415
v -0.143854 0.671621 0.293562
v -0.092445 0.671621 0.295311
v -0.092445 0.594578 0.299047
v -0.195263 0.594578 0.292203
v -0.092445 0.517535 0.299047
v -0.092445 0.440493 0.295311
v -0.195263 0.440493 0.287921
v 0.113191 0.517535 0.292203
v 0.113191 0.440493 0.287921
v 0.010373 0.440493 0.295311
v 0.113191 0.671621 0.287921
v 0.113191 0.594578 0.292203
v 0.010373 0.594578 0.299047
v 0.010373 0.671621 0.295311
v 0.010373 0.517535 0.299047
v -0.195263 0.517535 0.292203
v -0.195263 0.671621 0.287921
vn -0.1652 0.1239 0.9785
vn -0.1757 0.1616 0.9711
vn -0.2337 0.1785 0.9558
vn -0.2205 0.1374 0.9657
vn -0.1482 -0.0138 0.9889
vn -0.1474 -0.0000 0.9891
vn -0.1936 -0.0000 0.9811
vn -0.1948 -0.0149 0.9807
vn 0.0159 -0.0119 0.9998
vn 0.0159 -0.0000 0.9999
vn -0.0000 -0.0000 1.0000
vn -0.0000 -0.0118 0.9999
vn 0.0171 0.1027 0.9946
vn 0.0178 0.1317 0.9911
vn -0.0000 0.1305 0.9914
vn -0.0000 0.1019 0.9948
vn 0.0159 0.0119 0.9998
vn 0.0163 0.0488 0.9987
vn -0.0000 0.0484 0.9988
vn -0.0000 0.0118 0.9999
vn 0.1482 0.0138 0.9889
vn 0.1525 0.0572 0.9867
vn 0.0681 0.0508 0.9964
vn 0.0666 0.0124 0.9977
vn 0.1652 0.1239 0.9785
vn 0.1757 0.1616 0.9711
vn 0.0755 0.1383 0.9875
vn 0.0723 0.1075 0.9916
vn 0.0171 -0.1027 0.9946
vn 0.0163 -0.0488 0.9987
vn -0.0000 -0.0484 0.9988
vn -0.0000 -0.1019 0.9948
vn 0.1652 -0.1239 0.9785
vn 0.1525 -0.0572 0.9867
vn 0.0681 -0.0508 0.9964
vn 0.0723 -0.1075 0.9916
vn 0.1482 -0.0138 0.9889
vn 0.1474 -0.0000 0.9891
vn 0.0663 -0.0000 0.9978
vn 0.0666 -0.0124 0.9977
vn -0.1652 -0.1239 0.9785
vn -0.1525 -0.0572 0.9867
vn -0.2012 -0.0622 0.9776
vn -0.2205 -0.1374 0.9657
vn -0.0171 -0.1027 0.9946
vn -0.0163 -0.0488 0.9987
vn -0.0681 -0.0508 0.9964
vn -0.0723 -0.1075 0.9916
vn -0.0159 -0.0119 0.9998
vn -0.0159 -0.0000 0.9999
vn -0.0663 -0.0000 0.9978
vn -0.0666 -0.0124 0.9977
vn -0.1482 0.0138 0.9889
vn -0.1525 0.0572 0.9867
vn -0.2012 0.0622 0.9776
vn -0.1948 0.0149 0.9807
vn -0.0159 0.0119 0.9998
vn -0.0163 0.0488 0.9987
vn -0.0681 0.0508 0.9964
vn -0.0666 0.0124 0.9977
vn -0.0171 0.1027 0.9946
vn -0.0178 0.1317 0.9911
vn -0.0755 0.1383 0.9875
vn -0.0723 0.1075 0.9916
vn -0.0178 -0.1317 0.9911
vn -0.0755 -0.1383 0.9875
vn -0.0000 -0.1305 0.9914
vn -0.1757 -0.1616 0.9711
vn -0.2337 -0.1785 0.9558
vn 0.2012 -0.0622 0.9776
vn 0.1948 -0.0149 0.9807
vn 0.1936 -0.0000 0.9811
vn 0.1757 -0.1616 0.9711
vn 0.0755 -0.1383 0.9875
vn 0.2337 -0.1785 0.9558
vn 0.2205 -0.1374 0.9657
vn 0.0178 -0.1317 0.9911
vn 0.2012 0.0622 0.9776
vn 0.2205 0.1374 0.9657
vn 0.2337 0.1785 0.9558
vn 0.1948 0.0149 0.9807
vt 0.997862 -0.000193
vt -0.001698 -0.000193
vt -0.001431 1.000193
vt 0.998129 1.000193
vt 0.002751 0.500156
vt 0.993681 0.499844
vt 0.498186 0.996571
vt 0.498245 0.003429
vt 0.498216 0.500000
vt 0.002885 0.748594
vt 0.993546 0.251406
vt 0.745758 0.995980
vt 0.250673 0.004020
vt 0.002698 0.251589
vt 0.993733 0.748411
vt 0.250757 0.995862
vt 0.745675 0.004138
vt 0.252216 0.500043
vt 0.744215 0.499957
vt 0.498214 0.252766
vt 0.498217 0.747234
vt 0.744340 0.746943
vt 0.744296 0.253024
vt 0.252091 0.253057
vt 0.252135 0.746976
vt 0.001762 0.873400
vt 0.994669 0.126599
vt 0.870315 0.996575
vt 0.126116 0.003425
vt 0.002821 0.375928
vt 0.993610 0.624072
vt 0.374484 0.996197
vt 0.621947 0.003803
vt 0.128545 0.500077
vt 0.621203 0.499977
vt 0.498220 0.128615
vt 0.498217 0.623564
vt 0.002959 0.624360
vt 0.993473 0.375640
vt 0.621924 0.996339
vt 0.374507 0.003661
vt 0.001534 0.126690
vt 0.994897 0.873310
vt 0.126290 0.996511
vt 0.870142 0.003489
vt 0.375228 0.500023
vt 0.867887 0.499923
vt 0.498214 0.376436
vt 0.498211 0.871385
vt 0.621311 0.747067
vt 0.867923 0.747236
vt 0.744197 0.623449
vt 0.744825 0.870866
vt 0.621296 0.252910
vt 0.867826 0.252669
vt 0.744760 0.129161
vt 0.744185 0.376486
vt 0.128509 0.252764
vt 0.375120 0.252933
vt 0.251606 0.129134
vt 0.252234 0.376551
vt 0.128606 0.747331
vt 0.375135 0.747090
vt 0.252246 0.623513
vt 0.251671 0.870839
vt 0.374895 0.871103
vt 0.375222 0.623525
vt 0.128667 0.623737
vt 0.375211 0.376509
vt 0.374892 0.128872
vt 0.127778 0.128737
vt 0.867765 0.376263
vt 0.868515 0.128715
vt 0.621536 0.128896
vt 0.868653 0.871263
vt 0.867801 0.623590
vt 0.621220 0.623491
vt 0.621539 0.871128
vt 0.621209 0.376475
vt 0.128630 0.376410
vt 0.127916 0.871285
s 1
f 81/81/1 44/44/2 3/3/3 26/26/4
f 80/80/5 34/34/6 5/5/7 30/30/8
f 79/79/9 35/35/10 9/9/11 48/48/12
f 78/78/13 40/40/14 7/7/15 49/49/16
f 77/77/17 50/50/18 21/21/19 37/37/20
f 76/76/21 51/51/22 22/22/23 52/52/24
f 75/75/25 28/28/26 12/12/27 53/53/28
f 74/74/29 54/54/30 20/20/31 36/36/32
f 73/73/33 55/55/34 23/23/35 56/56/36
f 72/72/37 47/47/38 19/19/39 57/57/40
f 71/71/41 58/58/42 14/14/43 42/42/44
f 70/70/45 59/59/46 24/24/47 60/60/48
f 69/69/49 46/46/50 18/18/51 61/61/52
f 68/68/53 62/62/54 10/10/55 38/38/56
f 67/67/57 63/63/58 25/25/59 64/64/60
f 66/66/61 32/32/62 16/16/63 65/65/64
f 63/63/58 66/66/61 65/65/64 25/25/59
f 21/21/19 49/49/16 66/66/61 63/63/58
f 49/49/16 7/7/15 32/32/62 66/66/61
f 46/46/50 67/67/57 64/64/60 18/18/51
f 9/9/11 37/37/20 67/67/57 46/46/50
f 37/37/20 21/21/19 63/63/58 67/67/57
f 34/34/6 68/68/53 38/38/56 5/5/7
f 18/18/51 64/64/60 68/68/53 34/34/6
f 64/64/60 25/25/59 62/62/54 68/68/53
f 59/59/46 69/69/49 61/61/52 24/24/47
f 20/20/31 48/48/12 69/69/49 59/59/46
f 48/48/12 9/9/11 46/46/50 69/69/49
f 41/41/65 70/70/45 60/60/48 13/13/66
f 8/8/67 36/36/32 70/70/45 41/41/65
f 36/36/32 20/20/31 59/59/46 70/70/45
f 29/29/68 71/71/41 42/42/44 2/2/69
f 13/13/66 60/60/48 71/71/41 29/29/68
f 60/60/48 24/24/47 58/58/42 71/71/41
f 55/55/34 72/72/37 57/57/40 23/23/35
f 11/11/70 39/39/71 72/72/37 55/55/34
f 39/39/71 6/6/72 47/47/38 72/72/37
f 45/45/73 73/73/33 56/56/36 17/17/74
f 1/1/75 27/27/76 73/73/33 45/45/73
f 27/27/76 11/11/70 55/55/34 73/73/33
f 33/33/77 74/74/29 36/36/32 8/8/67
f 17/17/74 56/56/36 74/74/29 33/33/77
f 56/56/36 23/23/35 54/54/30 74/74/29
f 51/51/22 75/75/25 53/53/28 22/22/23
f 15/15/78 43/43/79 75/75/25 51/51/22
f 43/43/79 4/4/80 28/28/26 75/75/25
f 47/47/38 76/76/21 52/52/24 19/19/39
f 6/6/72 31/31/81 76/76/21 47/47/38
f 31/31/81 15/15/78 51/51/22 76/76/21
f 35/35/10 77/77/17 37/37/20 9/9/11
f 19/19/39 52/52/24 77/77/17 35/35/10
f 52/52/24 22/22/23 50/50/18 77/77/17
f 50/50/18 78/78/13 49/49/16 21/21/19
f 22/22/23 53/53/28 78/78/13 50/50/18
f 53/53/28 12/12/27 40/40/14 78/78/13
f 54/54/30 79/79/9 48/48/12 20/20/31
f 23/23/35 57/57/40 79/79/9 54/54/30
f 57/57/40 19/19/39 35/35/10 79/79/9
f 58/58/42 80/80/5 30/30/8 14/14/43
f 24/24/47 61/61/52 80/80/5 58/58/42
f 61/61/52 18/18/51 34/34/6 80/80/5
f 62/62/54 81/81/1 26/26/4 10/10/55
f 25/25/59 65/65/64 81/81/1 62/62/54
f 65/65/64 16/16/63 44/44/2 81/81/1
