# Blender 3.5.1
# www.blender.org
mtllib laser_turret.mtl
o Cube.060
v -0.132063 -0.092147 0.312566
v -0.312566 -0.092147 0.132063
v -0.312566 0.092147 0.132063
v -0.132063 0.092147 0.312566
v -0.312566 -0.092147 -0.132063
v -0.132063 -0.092147 -0.312566
v -0.132063 0.092147 -0.312566
v -0.312566 0.092147 -0.132063
v 0.312566 -0.092147 0.132063
v 0.132063 -0.092147 0.312566
v 0.132063 0.092147 0.312566
v 0.312566 0.092147 0.132063
v 0.132063 -0.092147 -0.312566
v 0.312566 -0.092147 -0.132063
v 0.312566 0.092147 -0.132063
v 0.132063 0.092147 -0.312566
v -0.116511 0.079254 0.116511
v -0.116511 0.130911 0.138049
v -0.116511 0.079254 -0.116511
v -0.116511 0.130911 -0.138049
v 0.116511 0.079254 0.116511
v 0.116511 0.130911 0.138049
v 0.116511 0.079254 -0.116511
v 0.116511 0.130911 -0.138049
v -0.212200 0.130911 0.271693
v -0.212200 0.130911 -0.271693
v 0.212200 0.130911 -0.271693
v 0.212200 0.130911 0.271693
v -0.258923 0.253241 0.384001
v -0.258923 0.253241 -0.384001
v 0.258923 0.253241 -0.384001
v 0.258923 0.253241 0.384001
v -0.258923 0.328714 0.384001
v -0.258923 0.328714 -0.384001
v 0.258923 0.328714 -0.384001
v 0.258923 0.328714 0.384001
v -0.141275 0.443891 0.076507
v -0.141275 0.443891 -0.342535
v 0.141275 0.443891 -0.342535
v 0.141275 0.443891 0.076507
v 0.000000 0.480865 -0.339357
v 0.000000 0.480865 0.052534
v 0.029080 0.478001 -0.339357
v 0.029080 0.478001 0.052534
v 0.057042 0.469519 -0.339357
v 0.057042 0.469519 0.052534
v 0.082812 0.455745 -0.339357
v 0.082812 0.455745 0.052534
v 0.105400 0.437207 -0.339357
v 0.105400 0.437207 0.052534
v 0.123937 0.414620 -0.339357
v 0.123937 0.414620 0.052534
v 0.137712 0.388849 -0.339357
v 0.137712 0.388849 0.052534
v 0.146194 0.360887 -0.339357
v 0.146194 0.360887 0.052534
v 0.149058 0.331807 -0.339357
v 0.149058 0.331807 0.052534
v 0.146194 0.302728 -0.339357
v 0.146194 0.302728 0.052534
v 0.137712 0.274765 -0.339357
v 0.137712 0.274765 0.052534
v 0.123937 0.248995 -0.339357
v 0.123937 0.248995 0.052534
v 0.105400 0.226408 -0.339357
v 0.105400 0.226408 0.052534
v 0.082812 0.207870 -0.339357
v 0.082812 0.207870 0.052534
v 0.057042 0.194096 -0.339357
v 0.057042 0.194096 0.052534
v 0.029080 0.185614 -0.339357
v 0.029080 0.185614 0.052534
v 0.000000 0.182750 -0.339357
v 0.000000 0.182749 0.052534
v -0.029080 0.185614 -0.339357
v -0.029080 0.185614 0.052534
v -0.057042 0.194096 -0.339357
v -0.057042 0.194096 0.052534
v -0.082812 0.207870 -0.339357
v -0.082812 0.207870 0.052534
v -0.105400 0.226408 -0.339357
v -0.105400 0.226408 0.052534
v -0.123937 0.248995 -0.339357
v -0.123937 0.248995 0.052534
v -0.137712 0.274765 -0.339357
v -0.137712 0.274765 0.052534
v -0.146194 0.302728 -0.339357
v -0.146194 0.302728 0.052534
v -0.149058 0.331807 -0.339357
v -0.149058 0.331807 0.052534
v -0.146194 0.360887 -0.339357
v -0.146194 0.360887 0.052534
v -0.137712 0.388849 -0.339357
v -0.137712 0.388849 0.052534
v -0.123937 0.414620 -0.339357
v -0.123937 0.414620 0.052534
v -0.105400 0.437207 -0.339357
v -0.105400 0.437207 0.052534
v -0.082812 0.455745 -0.339357
v -0.082812 0.455745 0.052534
v -0.057042 0.469519 -0.339357
v -0.057042 0.469519 0.052534
v -0.029080 0.478001 -0.339357
v -0.029080 0.478001 0.052534
v 0.155155 0.461015 -0.299102
v 0.155155 0.461015 0.012279
v 0.165689 0.459977 -0.299102
v 0.165689 0.459977 0.012279
v 0.175819 0.456904 -0.299102
v 0.175819 0.456904 0.012279
v 0.185155 0.451914 -0.299102
v 0.185155 0.451914 0.012279
v 0.193337 0.445199 -0.299102
v 0.193337 0.445199 0.012279
v 0.200053 0.437016 -0.299102
v 0.200053 0.437016 0.012279
v 0.205043 0.427681 -0.299102
v 0.205043 0.427681 0.012279
v 0.208116 0.417551 -0.299102
v 0.208116 0.417551 0.012279
v 0.209153 0.407017 -0.299102
v 0.209153 0.407017 0.012279
v 0.208116 0.396482 -0.299102
v 0.208116 0.396482 0.012279
v 0.205043 0.386352 -0.299102
v 0.205043 0.386352 0.012279
v 0.200053 0.377017 -0.299102
v 0.200053 0.377017 0.012279
v 0.193337 0.368834 -0.299102
v 0.193337 0.368834 0.012279
v 0.185155 0.362119 -0.299102
v 0.185155 0.362119 0.012279
v 0.175819 0.357129 -0.299102
v 0.175819 0.357129 0.012279
v 0.165689 0.354056 -0.299102
v 0.165689 0.354056 0.012279
v 0.155155 0.353018 -0.299102
v 0.155155 0.353018 0.012279
v 0.144620 0.354056 -0.299102
v 0.144620 0.354056 0.012279
v 0.134491 0.357129 -0.299102
v 0.134491 0.357129 0.012279
v 0.125155 0.362119 -0.299102
v 0.125155 0.362119 0.012279
v 0.116972 0.368834 -0.299102
v 0.116972 0.368834 0.012279
v 0.110257 0.377017 -0.299102
v 0.110257 0.377017 0.012279
v 0.105267 0.386352 -0.299102
v 0.105267 0.386352 0.012279
v 0.102194 0.396482 -0.299102
v 0.102194 0.396482 0.012279
v 0.101157 0.407017 -0.299102
v 0.101157 0.407017 0.012279
v 0.102194 0.417551 -0.299102
v 0.102194 0.417551 0.012279
v 0.105267 0.427681 -0.299102
v 0.105267 0.427681 0.012279
v 0.110257 0.437016 -0.299102
v 0.110257 0.437016 0.012279
v 0.116972 0.445199 -0.299102
v 0.116972 0.445199 0.012279
v 0.125155 0.451914 -0.299102
v 0.125155 0.451914 0.012279
v 0.134491 0.456904 -0.299102
v 0.134491 0.456904 0.012279
v 0.144620 0.459977 -0.299102
v 0.144620 0.459977 0.012279
v -0.315716 0.197608 0.186898
v -0.315716 0.396387 0.186898
v -0.315716 0.197608 -0.186898
v -0.315716 0.396387 -0.186898
v -0.116937 0.197608 0.186898
v -0.116937 0.396387 0.186898
v -0.116937 0.197608 -0.186898
v -0.116937 0.396387 -0.186898
vn -0.0000 -0.0000 1.0000
vn 1.0000 -0.0000 -0.0000
vn -0.0000 1.0000 -0.0000
vn -1.0000 -0.0000 -0.0000
vn -0.0000 -0.0000 -1.0000
vn -0.7071 -0.0000 0.7071
vn -0.7071 -0.0000 -0.7071
vn 0.7071 -0.0000 -0.7071
vn 0.7071 -0.0000 0.7071
vn -0.0000 -1.0000 -0.0000
vn -0.0000 -0.3848 -0.9230
vn -0.0000 -0.3848 0.9230
vn 0.9342 -0.3568 -0.0000
vn -0.9342 -0.3568 -0.0000
vn -0.0000 -0.6763 0.7366
vn -0.0000 -0.6763 -0.7366
vn -0.6996 0.7146 -0.0000
vn -0.0000 0.9365 0.3508
vn -0.0000 0.3387 -0.9409
vn 0.6996 0.7146 -0.0000
vn 0.0980 0.9952 -0.0000
vn 0.2903 0.9569 -0.0000
vn 0.4714 0.8819 -0.0000
vn 0.6344 0.7730 -0.0000
vn 0.7730 0.6344 -0.0000
vn 0.8819 0.4714 -0.0000
vn 0.9569 0.2903 -0.0000
vn 0.9952 0.0980 -0.0000
vn 0.9952 -0.0980 -0.0000
vn 0.9569 -0.2903 -0.0000
vn 0.8819 -0.4714 -0.0000
vn 0.7730 -0.6344 -0.0000
vn 0.6344 -0.7730 -0.0000
vn 0.4714 -0.8819 -0.0000
vn 0.2903 -0.9569 -0.0000
vn 0.0980 -0.9952 -0.0000
vn -0.0980 -0.9952 -0.0000
vn -0.2903 -0.9569 -0.0000
vn -0.4714 -0.8819 -0.0000
vn -0.6344 -0.7730 -0.0000
vn -0.7730 -0.6344 -0.0000
vn -0.8819 -0.4714 -0.0000
vn -0.9569 -0.2903 -0.0000
vn -0.9952 -0.0980 -0.0000
vn -0.9952 0.0980 -0.0000
vn -0.9569 0.2903 -0.0000
vn -0.8819 0.4714 -0.0000
vn -0.7730 0.6344 -0.0000
vn -0.6344 0.7730 -0.0000
vn -0.4714 0.8819 -0.0000
vn -0.2903 0.9569 -0.0000
vn -0.0980 0.9952 -0.0000
vt 0.375000 0.927814
vt 0.375000 0.000000
vt 0.197186 0.750000
vt 0.375000 0.072186
vt 0.125000 0.677814
vt 0.875000 0.677814
vt 0.625000 0.072186
vt 0.625000 0.927814
vt 0.802814 0.750000
vt 0.625000 0.000000
vt 0.375000 0.177814
vt 0.125000 0.572186
vt 0.375000 0.322186
vt 0.197186 0.500000
vt 0.802814 0.500000
vt 0.625000 0.322186
vt 0.875000 0.572186
vt 0.625000 0.177814
vt 0.375000 0.677814
vt 0.375000 0.822186
vt 0.302814 0.750000
vt 0.697186 0.750000
vt 0.625000 0.822186
vt 0.625000 0.677814
vt 0.375000 0.427814
vt 0.302814 0.500000
vt 0.375000 0.572186
vt 0.625000 0.572186
vt 0.697186 0.500000
vt 0.625000 0.427814
vt 0.375000 0.000000
vt 0.375000 1.000000
vt 0.125000 0.750000
vt 0.625000 0.000000
vt 0.625000 1.000000
vt 0.375000 0.250000
vt 0.125000 0.500000
vt 0.625000 0.250000
vt 0.375000 0.750000
vt 0.625000 0.750000
vt 0.375000 0.500000
vt 0.625000 0.500000
vt 0.625000 0.000000
vt 0.625000 1.000000
vt 0.625000 0.250000
vt 0.625000 0.500000
vt 0.625000 0.750000
vt 0.625000 1.000000
vt 0.625000 0.000000
vt 0.625000 0.250000
vt 0.625000 0.500000
vt 0.625000 0.750000
vt 0.625000 0.000000
vt 0.625000 1.000000
vt 0.625000 0.250000
vt 0.625000 0.500000
vt 0.625000 0.750000
vt 0.625000 0.000000
vt 0.875000 0.750000
vt 0.625000 1.000000
vt 0.875000 0.500000
vt 0.625000 0.250000
vt 0.625000 0.500000
vt 0.625000 0.750000
vt 1.000000 0.500000
vt 0.000000 0.500000
vt 0.750000 0.490000
vt 1.000000 1.000000
vt 0.250000 0.490000
vt 0.000000 1.000000
vt 0.968750 0.500000
vt 0.796822 0.485388
vt 0.968750 1.000000
vt 0.296822 0.485388
vt 0.937500 0.500000
vt 0.841844 0.471731
vt 0.937500 1.000000
vt 0.341844 0.471731
vt 0.906250 0.500000
vt 0.883337 0.449553
vt 0.906250 1.000000
vt 0.383337 0.449553
vt 0.875000 0.500000
vt 0.919706 0.419706
vt 0.875000 1.000000
vt 0.419706 0.419706
vt 0.843750 0.500000
vt 0.949553 0.383337
vt 0.843750 1.000000
vt 0.449553 0.383337
vt 0.812500 0.500000
vt 0.971731 0.341844
vt 0.812500 1.000000
vt 0.471731 0.341844
vt 0.781250 0.500000
vt 0.985388 0.296822
vt 0.781250 1.000000
vt 0.485388 0.296822
vt 0.750000 0.500000
vt 0.990000 0.250000
vt 0.750000 1.000000
vt 0.490000 0.250000
vt 0.718750 0.500000
vt 0.985388 0.203178
vt 0.718750 1.000000
vt 0.485388 0.203178
vt 0.687500 0.500000
vt 0.971731 0.158156
vt 0.687500 1.000000
vt 0.471731 0.158156
vt 0.656250 0.500000
vt 0.949553 0.116663
vt 0.656250 1.000000
vt 0.449553 0.116663
vt 0.625000 0.500000
vt 0.919706 0.080294
vt 0.625000 1.000000
vt 0.419706 0.080294
vt 0.593750 0.500000
vt 0.883337 0.050447
vt 0.593750 1.000000
vt 0.383337 0.050447
vt 0.562500 0.500000
vt 0.841844 0.028269
vt 0.562500 1.000000
vt 0.341844 0.028269
vt 0.531250 0.500000
vt 0.796822 0.014612
vt 0.531250 1.000000
vt 0.296822 0.014612
vt 0.500000 0.500000
vt 0.750000 0.010000
vt 0.500000 1.000000
vt 0.250000 0.010000
vt 0.468750 0.500000
vt 0.703178 0.014612
vt 0.468750 1.000000
vt 0.203178 0.014612
vt 0.437500 0.500000
vt 0.658156 0.028269
vt 0.437500 1.000000
vt 0.158156 0.028269
vt 0.406250 0.500000
vt 0.616663 0.050447
vt 0.406250 1.000000
vt 0.116663 0.050447
vt 0.375000 0.500000
vt 0.580294 0.080294
vt 0.375000 1.000000
vt 0.080294 0.080294
vt 0.343750 0.500000
vt 0.550447 0.116663
vt 0.343750 1.000000
vt 0.050447 0.116663
vt 0.312500 0.500000
vt 0.528269 0.158156
vt 0.312500 1.000000
vt 0.028269 0.158156
vt 0.281250 0.500000
vt 0.514612 0.203178
vt 0.281250 1.000000
vt 0.014612 0.203178
vt 0.250000 0.500000
vt 0.510000 0.250000
vt 0.250000 1.000000
vt 0.010000 0.250000
vt 0.218750 0.500000
vt 0.514612 0.296822
vt 0.218750 1.000000
vt 0.014612 0.296822
vt 0.187500 0.500000
vt 0.528269 0.341844
vt 0.187500 1.000000
vt 0.028269 0.341844
vt 0.156250 0.500000
vt 0.550447 0.383337
vt 0.156250 1.000000
vt 0.050447 0.383337
vt 0.125000 0.500000
vt 0.580294 0.419706
vt 0.125000 1.000000
vt 0.080294 0.419706
vt 0.093750 0.500000
vt 0.616663 0.449553
vt 0.093750 1.000000
vt 0.116663 0.449553
vt 0.062500 0.500000
vt 0.658156 0.471731
vt 0.158156 0.471731
vt 0.062500 1.000000
vt 0.031250 0.500000
vt 0.703178 0.485388
vt 0.203178 0.485388
vt 0.031250 1.000000
vt 1.000000 0.500000
vt 0.000000 0.500000
vt 0.750000 0.490000
vt 1.000000 1.000000
vt 0.250000 0.490000
vt 0.000000 1.000000
vt 0.968750 0.500000
vt 0.796822 0.485388
vt 0.968750 1.000000
vt 0.296822 0.485388
vt 0.937500 0.500000
vt 0.841844 0.471731
vt 0.937500 1.000000
vt 0.341844 0.471731
vt 0.906250 0.500000
vt 0.883337 0.449553
vt 0.906250 1.000000
vt 0.383337 0.449553
vt 0.875000 0.500000
vt 0.919706 0.419706
vt 0.875000 1.000000
vt 0.419706 0.419706
vt 0.843750 0.500000
vt 0.949553 0.383337
vt 0.843750 1.000000
vt 0.449553 0.383337
vt 0.812500 0.500000
vt 0.971731 0.341844
vt 0.812500 1.000000
vt 0.471731 0.341844
vt 0.781250 0.500000
vt 0.985388 0.296822
vt 0.781250 1.000000
vt 0.485388 0.296822
vt 0.750000 0.500000
vt 0.990000 0.250000
vt 0.750000 1.000000
vt 0.490000 0.250000
vt 0.718750 0.500000
vt 0.985388 0.203178
vt 0.718750 1.000000
vt 0.485388 0.203178
vt 0.687500 0.500000
vt 0.971731 0.158156
vt 0.687500 1.000000
vt 0.471731 0.158156
vt 0.656250 0.500000
vt 0.949553 0.116663
vt 0.656250 1.000000
vt 0.449553 0.116663
vt 0.625000 0.500000
vt 0.919706 0.080294
vt 0.625000 1.000000
vt 0.419706 0.080294
vt 0.593750 0.500000
vt 0.883337 0.050447
vt 0.593750 1.000000
vt 0.383337 0.050447
vt 0.562500 0.500000
vt 0.841844 0.028269
vt 0.562500 1.000000
vt 0.341844 0.028269
vt 0.531250 0.500000
vt 0.796822 0.014612
vt 0.531250 1.000000
vt 0.296822 0.014612
vt 0.500000 0.500000
vt 0.750000 0.010000
vt 0.500000 1.000000
vt 0.250000 0.010000
vt 0.468750 0.500000
vt 0.703178 0.014612
vt 0.468750 1.000000
vt 0.203178 0.014612
vt 0.437500 0.500000
vt 0.658156 0.028269
vt 0.437500 1.000000
vt 0.158156 0.028269
vt 0.406250 0.500000
vt 0.616663 0.050447
vt 0.406250 1.000000
vt 0.116663 0.050447
vt 0.375000 0.500000
vt 0.580294 0.080294
vt 0.375000 1.000000
vt 0.080294 0.080294
vt 0.343750 0.500000
vt 0.550447 0.116663
vt 0.343750 1.000000
vt 0.050447 0.116663
vt 0.312500 0.500000
vt 0.528269 0.158156
vt 0.312500 1.000000
vt 0.028269 0.158156
vt 0.281250 0.500000
vt 0.514612 0.203178
vt 0.281250 1.000000
vt 0.014612 0.203178
vt 0.250000 0.500000
vt 0.510000 0.250000
vt 0.250000 1.000000
vt 0.010000 0.250000
vt 0.218750 0.500000
vt 0.514612 0.296822
vt 0.218750 1.000000
vt 0.014612 0.296822
vt 0.187500 0.500000
vt 0.528269 0.341844
vt 0.187500 1.000000
vt 0.028269 0.341844
vt 0.156250 0.500000
vt 0.550447 0.383337
vt 0.156250 1.000000
vt 0.050447 0.383337
vt 0.125000 0.500000
vt 0.580294 0.419706
vt 0.125000 1.000000
vt 0.080294 0.419706
vt 0.093750 0.500000
vt 0.616663 0.449553
vt 0.093750 1.000000
vt 0.116663 0.449553
vt 0.062500 0.500000
vt 0.658156 0.471731
vt 0.158156 0.471731
vt 0.062500 1.000000
vt 0.031250 0.500000
vt 0.703178 0.485388
vt 0.203178 0.485388
vt 0.031250 1.000000
vt 0.375000 0.000000
vt 0.375000 1.000000
vt 0.125000 0.750000
vt 0.625000 0.000000
vt 0.625000 1.000000
vt 0.875000 0.750000
vt 0.375000 0.250000
vt 0.125000 0.500000
vt 0.625000 0.250000
vt 0.875000 0.500000
vt 0.375000 0.750000
vt 0.625000 0.750000
vt 0.375000 0.500000
vt 0.625000 0.500000
s 0
f 10/20/1 11/23/1 4/8/1 1/1/1
f 14/27/2 15/28/2 12/24/2 9/19/2
f 15/28/3 16/29/3 7/15/3 8/17/3 3/6/3 4/9/3 11/22/3 12/24/3
f 2/4/4 3/7/4 8/18/4 5/11/4
f 6/13/5 7/16/5 16/30/5 13/25/5
f 1/2/6 4/10/6 3/7/6 2/4/6
f 7/16/7 6/13/7 5/11/7 8/18/7
f 15/28/8 14/27/8 13/25/8 16/30/8
f 11/23/9 10/20/9 9/19/9 12/24/9
f 5/12/10 6/14/10 13/26/10 14/27/10 9/19/10 10/21/10 1/3/10 2/5/10
f 17/31/4 18/34/4 20/38/4 19/36/4
f 19/36/11 20/38/11 24/42/11 23/41/11
f 23/41/2 24/42/2 22/40/2 21/39/2
f 21/39/12 22/40/12 18/35/12 17/32/12
f 19/37/10 23/41/10 21/39/10 17/33/10
f 24/42/10 20/38/10 26/45/10 27/46/10
f 28/47/13 27/46/13 31/51/13 32/52/13
f 22/40/10 24/42/10 27/46/10 28/47/10
f 20/38/10 18/34/10 25/43/10 26/45/10
f 18/35/10 22/40/10 28/47/10 25/44/10
f 29/48/1 32/52/1 36/57/1 33/54/1
f 26/45/14 25/43/14 29/49/14 30/50/14
f 25/44/15 28/47/15 32/52/15 29/48/15
f 27/46/16 26/45/16 30/50/16 31/51/16
f 34/55/17 33/53/17 37/58/17 38/62/17
f 31/51/5 30/50/5 34/55/5 35/56/5
f 32/52/2 31/51/2 35/56/2 36/57/2
f 30/50/4 29/49/4 33/53/4 34/55/4
f 39/63/3 38/61/3 37/59/3 40/64/3
f 33/54/18 36/57/18 40/64/18 37/60/18
f 35/56/19 34/55/19 38/62/19 39/63/19
f 36/57/20 35/56/20 39/63/20 40/64/20
f 41/65/21 42/68/21 44/73/21 43/71/21
f 43/71/22 44/73/22 46/77/22 45/75/22
f 45/75/23 46/77/23 48/81/23 47/79/23
f 47/79/24 48/81/24 50/85/24 49/83/24
f 49/83/25 50/85/25 52/89/25 51/87/25
f 51/87/26 52/89/26 54/93/26 53/91/26
f 53/91/27 54/93/27 56/97/27 55/95/27
f 55/95/28 56/97/28 58/101/28 57/99/28
f 57/99/29 58/101/29 60/105/29 59/103/29
f 59/103/30 60/105/30 62/109/30 61/107/30
f 61/107/31 62/109/31 64/113/31 63/111/31
f 63/111/32 64/113/32 66/117/32 65/115/32
f 65/115/33 66/117/33 68/121/33 67/119/33
f 67/119/34 68/121/34 70/125/34 69/123/34
f 69/123/35 70/125/35 72/129/35 71/127/35
f 71/127/36 72/129/36 74/133/36 73/131/36
f 73/131/37 74/133/37 76/137/37 75/135/37
f 75/135/38 76/137/38 78/141/38 77/139/38
f 77/139/39 78/141/39 80/145/39 79/143/39
f 79/143/40 80/145/40 82/149/40 81/147/40
f 81/147/41 82/149/41 84/153/41 83/151/41
f 83/151/42 84/153/42 86/157/42 85/155/42
f 85/155/43 86/157/43 88/161/43 87/159/43
f 87/159/44 88/161/44 90/165/44 89/163/44
f 89/163/45 90/165/45 92/169/45 91/167/45
f 91/167/46 92/169/46 94/173/46 93/171/46
f 93/171/47 94/173/47 96/177/47 95/175/47
f 95/175/48 96/177/48 98/181/48 97/179/48
f 97/179/49 98/181/49 100/185/49 99/183/49
f 99/183/50 100/185/50 102/190/50 101/187/50
f 44/74/1 42/69/1 104/193/1 102/189/1 100/186/1 98/182/1 96/178/1 94/174/1 92/170/1 90/166/1 88/162/1 86/158/1 84/154/1 82/150/1 80/146/1 78/142/1 76/138/1 74/134/1 72/130/1 70/126/1 68/122/1 66/118/1 64/114/1 62/110/1 60/106/1 58/102/1 56/98/1 54/94/1 52/90/1 50/86/1 48/82/1 46/78/1
f 101/187/51 102/190/51 104/194/51 103/191/51
f 103/191/52 104/194/52 42/70/52 41/66/52
f 41/67/5 43/72/5 45/76/5 47/80/5 49/84/5 51/88/5 53/92/5 55/96/5 57/100/5 59/104/5 61/108/5 63/112/5 65/116/5 67/120/5 69/124/5 71/128/5 73/132/5 75/136/5 77/140/5 79/144/5 81/148/5 83/152/5 85/156/5 87/160/5 89/164/5 91/168/5 93/172/5 95/176/5 97/180/5 99/184/5 101/188/5 103/192/5
f 105/195/21 106/198/21 108/203/21 107/201/21
f 107/201/22 108/203/22 110/207/22 109/205/22
f 109/205/23 110/207/23 112/211/23 111/209/23
f 111/209/24 112/211/24 114/215/24 113/213/24
f 113/213/25 114/215/25 116/219/25 115/217/25
f 115/217/26 116/219/26 118/223/26 117/221/26
f 117/221/27 118/223/27 120/227/27 119/225/27
f 119/225/28 120/227/28 122/231/28 121/229/28
f 121/229/29 122/231/29 124/235/29 123/233/29
f 123/233/30 124/235/30 126/239/30 125/237/30
f 125/237/31 126/239/31 128/243/31 127/241/31
f 127/241/32 128/243/32 130/247/32 129/245/32
f 129/245/33 130/247/33 132/251/33 131/249/33
f 131/249/34 132/251/34 134/255/34 133/253/34
f 133/253/35 134/255/35 136/259/35 135/257/35
f 135/257/36 136/259/36 138/263/36 137/261/36
f 137/261/37 138/263/37 140/267/37 139/265/37
f 139/265/38 140/267/38 142/271/38 141/269/38
f 141/269/39 142/271/39 144/275/39 143/273/39
f 143/273/40 144/275/40 146/279/40 145/277/40
f 145/277/41 146/279/41 148/283/41 147/281/41
f 147/281/42 148/283/42 150/287/42 149/285/42
f 149/285/43 150/287/43 152/291/43 151/289/43
f 151/289/44 152/291/44 154/295/44 153/293/44
f 153/293/45 154/295/45 156/299/45 155/297/45
f 155/297/46 156/299/46 158/303/46 157/301/46
f 157/301/47 158/303/47 160/307/47 159/305/47
f 159/305/48 160/307/48 162/311/48 161/309/48
f 161/309/49 162/311/49 164/315/49 163/313/49
f 163/313/50 164/315/50 166/320/50 165/317/50
f 108/204/1 106/199/1 168/323/1 166/319/1 164/316/1 162/312/1 160/308/1 158/304/1 156/300/1 154/296/1 152/292/1 150/288/1 148/284/1 146/280/1 144/276/1 142/272/1 140/268/1 138/264/1 136/260/1 134/256/1 132/252/1 130/248/1 128/244/1 126/240/1 124/236/1 122/232/1 120/228/1 118/224/1 116/220/1 114/216/1 112/212/1 110/208/1
f 165/317/51 166/320/51 168/324/51 167/321/51
f 167/321/52 168/324/52 106/200/52 105/196/52
f 105/197/5 107/202/5 109/206/5 111/210/5 113/214/5 115/218/5 117/222/5 119/226/5 121/230/5 123/234/5 125/238/5 127/242/5 129/246/5 131/250/5 133/254/5 135/258/5 137/262/5 139/266/5 141/270/5 143/274/5 145/278/5 147/282/5 149/286/5 151/290/5 153/294/5 155/298/5 157/302/5 159/306/5 161/310/5 163/314/5 165/318/5 167/322/5
f 169/325/4 170/328/4 172/333/4 171/331/4
f 171/331/5 172/333/5 176/338/5 175/337/5
f 175/337/2 176/338/2 174/336/2 173/335/2
f 173/335/1 174/336/1 170/329/1 169/326/1
f 171/332/10 175/337/10 173/335/10 169/327/10
f 176/338/3 172/334/3 170/330/3 174/336/3
