# Blender 3.5.1
# www.blender.org
mtllib laser_barrel.mtl
o Cube.063
v -0.162748 -0.105198 0.121675
v -0.162748 0.105198 0.121675
v -0.162748 -0.105198 -0.027486
v -0.162748 0.105198 -0.027486
v 0.162748 -0.105198 0.121675
v 0.162748 0.105198 0.121675
v 0.162748 -0.105198 -0.027486
v 0.162748 0.105198 -0.027486
v -0.128057 -0.082774 0.121675
v -0.128057 0.082774 0.121675
v 0.128057 0.082774 0.121675
v 0.128057 -0.082774 0.121675
v -0.128057 -0.082774 0.178423
v -0.128057 0.082774 0.178423
v 0.128057 0.082774 0.178423
v 0.128057 -0.082774 0.178423
v -0.087190 -0.056359 0.316064
v -0.087190 0.056359 0.316064
v 0.087190 0.056359 0.316064
v 0.087190 -0.056359 0.316064
v 0.000000 -0.105198 -0.027486
v 0.000000 0.105198 -0.027486
v 0.000000 -0.105198 0.121675
v 0.000000 0.105198 0.121675
v 0.000000 -0.082774 0.121675
v 0.000000 0.082774 0.121675
v 0.000000 -0.082774 0.178423
v 0.000000 0.082774 0.178423
v 0.000000 -0.056359 0.316064
v 0.000000 0.056359 0.316064
v 0.000000 0.000000 0.316064
v 0.000000 0.000000 0.316064
v 0.000000 0.000000 0.316064
v 0.000000 0.000000 0.316064
v 0.000000 0.000000 0.316064
v 0.000000 0.000000 0.316064
v -0.072620 -0.037522 0.316064
v -0.072620 0.037522 0.316064
v 0.072620 0.037522 0.316064
v 0.072620 -0.037522 0.316064
v -0.014570 0.000000 0.316064
v -0.014570 0.000000 0.316064
v 0.014570 0.000000 0.316064
v 0.014570 0.000000 0.316064
v -0.072620 -0.037522 0.890213
v -0.072620 0.037522 0.890213
v 0.072620 0.037522 0.890213
v 0.072620 -0.037522 0.890213
v -0.014570 0.000000 0.890213
v -0.014570 0.000000 0.890213
v 0.014570 0.000000 0.890213
v 0.014570 0.000000 0.890213
v -0.162748 0.041751 -0.150338
v -0.162748 -0.041751 -0.150338
v 0.000000 -0.041751 -0.150338
v 0.000000 0.041751 -0.150338
v 0.162748 0.041751 -0.150338
v 0.162748 -0.041751 -0.150338
vn -1.0000 -0.0000 -0.0000
vn -0.0000 -0.8885 -0.4589
vn 1.0000 -0.0000 -0.0000
vn -0.0000 -0.0000 1.0000
vn -0.0000 -1.0000 -0.0000
vn -0.0000 1.0000 -0.0000
vn -0.0000 0.9821 0.1885
vn 0.9586 -0.0000 0.2846
vn -0.0000 -0.9821 0.1885
vn -0.9586 -0.0000 0.2846
vn -0.0000 0.8885 -0.4589
vn 0.5429 0.8398 -0.0000
vn 0.5429 -0.8398 -0.0000
vn -0.5429 0.8398 -0.0000
vn -0.5429 -0.8398 -0.0000
vn -0.0000 -0.0000 -1.0000
vt 0.375000 0.000000
vt 0.125000 0.750000
vt 0.625000 0.000000
vt 0.875000 0.750000
vt 0.375000 0.250000
vt 0.125000 0.500000
vt 0.625000 0.250000
vt 0.875000 0.500000
vt 0.375000 0.750000
vt 0.625000 0.750000
vt 0.375000 0.500000
vt 0.625000 0.500000
vt 0.375000 0.000000
vt 0.125000 0.750000
vt 0.625000 0.000000
vt 0.875000 0.750000
vt 0.625000 0.750000
vt 0.375000 0.750000
vt 0.375000 0.000000
vt 0.125000 0.750000
vt 0.875000 0.750000
vt 0.625000 0.000000
vt 0.625000 0.750000
vt 0.375000 0.750000
vt 0.125000 0.750000
vt 0.375000 0.000000
vt 0.875000 0.750000
vt 0.625000 0.000000
vt 0.625000 0.750000
vt 0.375000 0.750000
vt 0.250000 0.500000
vt 0.750000 0.500000
vt 0.250000 0.750000
vt 0.750000 0.750000
vt 0.250000 0.750000
vt 0.750000 0.750000
vt 0.250000 0.750000
vt 0.750000 0.750000
vt 0.250000 0.750000
vt 0.750000 0.750000
vt 0.125000 0.750000
vt 0.375000 1.000000
vt 0.875000 0.750000
vt 0.625000 1.000000
vt 0.625000 0.750000
vt 0.375000 0.750000
vt 0.375000 0.875000
vt 0.250000 0.750000
vt 0.625000 0.875000
vt 0.750000 0.750000
vt 0.375000 0.000000
vt 0.125000 0.750000
vt 0.875000 0.750000
vt 0.625000 0.000000
vt 0.625000 0.750000
vt 0.375000 0.750000
vt 0.875000 0.750000
vt 0.625000 1.000000
vt 0.125000 0.750000
vt 0.375000 1.000000
vt 0.625000 0.750000
vt 0.375000 0.750000
vt 0.375000 0.000000
vt 0.125000 0.750000
vt 0.875000 0.750000
vt 0.625000 0.000000
vt 0.625000 0.750000
vt 0.375000 0.750000
vt 0.875000 0.750000
vt 0.625000 0.000000
vt 0.625000 1.000000
vt 0.375000 0.000000
vt 0.125000 0.750000
vt 0.375000 1.000000
vt 0.625000 0.750000
vt 0.375000 0.750000
vt 0.625000 0.250000
vt 0.875000 0.500000
vt 0.375000 0.250000
vt 0.125000 0.500000
vt 0.375000 0.375000
vt 0.250000 0.500000
vt 0.625000 0.375000
vt 0.750000 0.500000
vt 0.625000 0.500000
vt 0.375000 0.500000
s 0
f 1/1/1 2/3/1 4/7/1 3/5/1
f 7/11/2 21/31/2 55/82/2 58/86/2
f 7/11/3 8/12/3 6/10/3 5/9/3
f 2/3/4 1/1/4 9/13/4 10/15/4
f 21/31/5 7/11/5 5/9/5 23/33/5
f 22/32/6 4/8/6 2/4/6 24/34/6
f 25/35/5 12/18/5 16/24/5 27/37/5
f 23/33/4 5/9/4 12/18/4 25/35/4
f 24/34/4 2/4/4 10/16/4 26/36/4
f 5/9/4 6/10/4 11/17/4 12/18/4
f 28/38/7 14/21/7 18/27/7 30/40/7
f 10/15/1 9/13/1 13/19/1 14/22/1
f 26/36/6 10/16/6 14/21/6 28/38/6
f 12/18/3 11/17/3 15/23/3 16/24/3
f 19/29/4 33/45/4 43/61/4 39/55/4
f 16/24/8 15/23/8 19/29/8 20/30/8
f 27/37/9 16/24/9 20/30/9 29/39/9
f 14/22/10 13/19/10 17/26/10 18/28/10
f 13/20/9 27/37/9 29/39/9 17/25/9
f 30/40/4 18/27/4 32/43/4 36/50/4
f 11/17/6 26/36/6 28/38/6 15/23/6
f 15/23/7 28/38/7 30/40/7 19/29/7
f 6/10/4 24/34/4 26/36/4 11/17/4
f 1/2/4 23/33/4 25/35/4 9/14/4
f 9/14/5 25/35/5 27/37/5 13/20/5
f 8/12/6 22/32/6 24/34/6 6/10/6
f 3/6/5 21/31/5 23/33/5 1/2/5
f 22/32/11 8/12/11 57/85/11 56/84/11
f 35/47/6 36/49/6 32/44/6 31/42/6
f 34/46/6 33/45/6 36/49/6 35/47/6
f 19/29/4 30/40/4 36/50/4 33/45/4
f 29/39/4 20/30/4 34/46/4 35/48/4
f 33/45/6 34/46/6 44/62/6 43/61/6
f 17/25/4 29/39/4 35/48/4 31/41/4
f 38/54/1 37/51/1 45/63/1 46/66/1
f 41/57/12 38/53/12 46/65/12 49/69/12
f 20/30/4 19/29/4 39/55/4 40/56/4
f 32/43/4 18/27/4 38/53/4 41/57/4
f 17/25/4 31/41/4 42/59/4 37/52/4
f 31/42/6 32/44/6 41/58/6 42/60/6
f 34/46/4 20/30/4 40/56/4 44/62/4
f 18/28/4 17/26/4 37/51/4 38/54/4
f 48/68/4 47/67/4 51/75/4 52/76/4
f 46/66/4 45/63/4 50/72/4 49/70/4
f 37/52/13 42/59/13 50/73/13 45/64/13
f 39/55/14 43/61/14 51/75/14 47/67/14
f 42/60/6 41/58/6 49/71/6 50/74/6
f 40/56/3 39/55/3 47/67/3 48/68/3
f 44/62/15 40/56/15 48/68/15 52/76/15
f 43/61/6 44/62/6 52/76/6 51/75/6
f 55/81/16 56/83/16 57/85/16 58/86/16
f 54/79/16 53/77/16 56/83/16 55/81/16
f 3/5/1 4/7/1 53/77/1 54/79/1
f 8/12/3 7/11/3 58/86/3 57/85/3
f 4/8/11 22/32/11 56/84/11 53/78/11
f 21/31/2 3/6/2 54/80/2 55/82/2
