# Blender 3.5.1
# www.blender.org
mtllib shotgun_turret.mtl
o Cube.003
v -0.078603 -0.002001 0.163389
v -0.163389 -0.002001 0.078603
v -0.163389 0.041867 0.078603
v -0.078603 0.041867 0.163389
v -0.163389 -0.002001 -0.078603
v -0.078603 -0.002001 -0.163389
v -0.078603 0.041867 -0.163389
v -0.163389 0.041867 -0.078603
v 0.163389 -0.002001 0.078603
v 0.078603 -0.002001 0.163389
v 0.078603 0.041867 0.163389
v 0.163389 0.041867 0.078603
v 0.078603 -0.002001 -0.163389
v 0.163389 -0.002001 -0.078603
v 0.163389 0.041867 -0.078603
v 0.078603 0.041867 -0.163389
v -0.079344 0.041867 0.131498
v -0.122639 0.041867 0.063261
v -0.122639 0.041867 -0.063261
v -0.079344 0.041867 -0.131498
v 0.079344 0.041867 -0.131498
v 0.122639 0.041867 -0.063261
v 0.122639 0.041867 0.063261
v 0.079344 0.041867 0.131498
v 0.079344 0.096785 -0.067103
v 0.122639 0.096785 -0.063261
v 0.122639 0.096785 0.063261
v 0.079344 0.096785 0.067103
v 0.079344 0.177840 -0.052226
v 0.122639 0.177840 -0.049235
v 0.122639 0.177840 0.049235
v 0.079344 0.177840 0.052226
v 0.079344 0.200704 -0.021406
v 0.122639 0.200704 -0.020180
v 0.122639 0.200704 0.020180
v 0.079344 0.200704 0.021406
vn -0.0000 -0.0000 1.0000
vn 1.0000 -0.0000 -0.0000
vn -0.0000 1.0000 -0.0000
vn -1.0000 -0.0000 -0.0000
vn -0.0000 -0.0000 -1.0000
vn -0.7071 -0.0000 0.7071
vn -0.7071 -0.0000 -0.7071
vn 0.7071 -0.0000 -0.7071
vn 0.7071 -0.0000 0.7071
vn -0.0000 -1.0000 -0.0000
vn 0.5833 0.4108 0.7007
vn 0.5833 0.4108 -0.7007
vn 0.0774 0.1750 0.9815
vn 0.0774 0.1750 -0.9815
vn 0.0295 0.7944 -0.6067
vn 0.0295 0.7944 0.6067
vt 0.375000 0.935135
vt 0.375000 0.000000
vt 0.189865 0.750000
vt 0.375000 0.064865
vt 0.125000 0.685135
vt 0.625000 0.064865
vt 0.625000 0.000000
vt 0.625000 0.935135
vt 0.375000 0.185135
vt 0.125000 0.564865
vt 0.375000 0.314865
vt 0.189865 0.500000
vt 0.625000 0.314865
vt 0.625000 0.185135
vt 0.375000 0.685135
vt 0.375000 0.814865
vt 0.310135 0.750000
vt 0.625000 0.814865
vt 0.625000 0.685135
vt 0.375000 0.435135
vt 0.310135 0.500000
vt 0.375000 0.564865
vt 0.625000 0.564865
vt 0.625000 0.435135
vt 0.625000 0.000000
vt 0.625000 0.935135
vt 0.810135 0.750000
vt 0.875000 0.685135
vt 0.625000 0.064865
vt 0.875000 0.564865
vt 0.625000 0.185135
vt 0.625000 0.314865
vt 0.810135 0.500000
vt 0.625000 0.435135
vt 0.689865 0.500000
vt 0.625000 0.564865
vt 0.625000 0.685135
vt 0.625000 0.814865
vt 0.689865 0.750000
vt 0.689865 0.500000
vt 0.625000 0.435135
vt 0.625000 0.564865
vt 0.625000 0.685135
vt 0.689865 0.750000
vt 0.625000 0.814865
vt 0.625000 0.435135
vt 0.689865 0.500000
vt 0.625000 0.564865
vt 0.625000 0.685135
vt 0.689865 0.750000
vt 0.625000 0.814865
vt 0.625000 0.435135
vt 0.689865 0.500000
vt 0.625000 0.564865
vt 0.625000 0.685135
vt 0.689865 0.750000
vt 0.625000 0.814865
s 0
f 10/16/1 11/18/1 4/8/1 1/1/1
f 14/22/2 15/23/2 12/19/2 9/15/2
f 7/13/3 8/14/3 19/31/3 20/32/3
f 2/4/4 3/6/4 8/14/4 5/9/4
f 6/11/5 7/13/5 16/24/5 13/20/5
f 1/2/6 4/7/6 3/6/6 2/4/6
f 7/13/7 6/11/7 5/9/7 8/14/7
f 15/23/8 14/22/8 13/20/8 16/24/8
f 11/18/9 10/16/9 9/15/9 12/19/9
f 5/10/10 6/12/10 13/21/10 14/22/10 9/15/10 10/17/10 1/3/10 2/5/10
f 20/33/3 19/30/3 18/28/3 17/27/3
f 3/6/3 4/7/3 17/25/3 18/29/3
f 12/19/3 15/23/3 22/36/3 23/37/3
f 8/14/3 3/6/3 18/29/3 19/31/3
f 16/24/3 7/13/3 20/32/3 21/34/3
f 11/18/3 12/19/3 23/37/3 24/38/3
f 4/8/3 11/18/3 24/38/3 17/26/3
f 15/23/3 16/24/3 21/34/3 22/36/3
f 24/38/11 23/37/11 27/43/11 28/45/11
f 21/35/3 20/33/3 17/27/3 24/39/3
f 25/40/4 28/44/4 32/50/4 29/47/4
f 23/37/2 22/36/2 26/42/2 27/43/2
f 22/36/12 21/34/12 25/41/12 26/42/12
f 21/35/4 24/39/4 28/44/4 25/40/4
f 31/49/2 30/48/2 34/54/2 35/55/2
f 28/45/13 27/43/13 31/49/13 32/51/13
f 27/43/2 26/42/2 30/48/2 31/49/2
f 26/42/14 25/41/14 29/46/14 30/48/14
f 34/54/3 33/53/3 36/56/3 35/55/3
f 30/48/15 29/46/15 33/52/15 34/54/15
f 29/47/4 32/50/4 36/56/4 33/53/4
f 32/51/16 31/49/16 35/55/16 36/57/16
