# Blender 3.5.1
# www.blender.org
mtllib small_base.mtl
o Cube.005
v 0.323761 -0.539118 0.748660
v 0.748660 -0.539118 0.323761
v 0.748660 -0.539118 -0.323761
v 0.323761 -0.539118 -0.748660
v -0.323761 -0.539118 -0.748660
v -0.748660 -0.539118 -0.323761
v -0.748660 -0.539118 0.323761
v -0.323761 -0.539118 0.748660
v -0.432454 -0.843767 1.000000
v -1.000000 -0.843767 0.432454
v -1.000000 -0.539118 0.432454
v -0.432454 -0.539118 1.000000
v -1.000000 -0.843767 -0.432454
v -0.432454 -0.843767 -1.000000
v -0.432454 -0.539118 -1.000000
v -1.000000 -0.539118 -0.432454
v 1.000000 -0.843767 0.432454
v 0.432453 -0.843767 1.000000
v 0.432453 -0.539118 1.000000
v 1.000000 -0.539118 0.432454
v 0.432453 -0.843767 -1.000000
v 1.000000 -0.843767 -0.432454
v 1.000000 -0.539118 -0.432454
v 0.432453 -0.539118 -1.000000
v 0.595878 0.150242 0.257689
v 0.595878 0.150242 -0.257689
v 0.257689 0.150242 0.595878
v -0.257690 0.150242 0.595878
v -0.595878 0.150242 0.257689
v -0.595878 0.150242 -0.257689
v -0.257690 0.150242 -0.595878
v 0.257689 0.150242 -0.595878
v 0.000000 0.141618 -0.682029
v 0.000000 0.301322 -0.682029
v 0.133058 0.141618 -0.668924
v 0.133058 0.301322 -0.668924
v 0.261001 0.141618 -0.630113
v 0.261001 0.301322 -0.630113
v 0.378915 0.141618 -0.567087
v 0.378915 0.301322 -0.567087
v 0.482268 0.141618 -0.482267
v 0.482268 0.301322 -0.482267
v 0.567087 0.141618 -0.378915
v 0.567087 0.301322 -0.378915
v 0.630113 0.141618 -0.261001
v 0.630113 0.301322 -0.261001
v 0.668924 0.141618 -0.133057
v 0.668924 0.301322 -0.133057
v 0.682029 0.141618 -0.000000
v 0.682029 0.301322 -0.000000
v 0.668924 0.141618 0.133057
v 0.668924 0.301322 0.133057
v 0.630113 0.141618 0.261001
v 0.630113 0.301322 0.261001
v 0.567087 0.141618 0.378915
v 0.567087 0.301322 0.378915
v 0.482268 0.141618 0.482267
v 0.482268 0.301322 0.482267
v 0.378915 0.141618 0.567087
v 0.378915 0.301322 0.567087
v 0.261001 0.141618 0.630113
v 0.261001 0.301322 0.630113
v 0.133058 0.141618 0.668924
v 0.133058 0.301322 0.668924
v 0.000000 0.141618 0.682029
v 0.000000 0.301322 0.682029
v -0.133058 0.141618 0.668924
v -0.133058 0.301322 0.668924
v -0.261001 0.141618 0.630113
v -0.261001 0.301322 0.630113
v -0.378915 0.141618 0.567087
v -0.378915 0.301322 0.567087
v -0.482268 0.141618 0.482267
v -0.482268 0.301322 0.482267
v -0.567087 0.141618 0.378915
v -0.567087 0.301322 0.378915
v -0.630113 0.141618 0.261001
v -0.630113 0.301322 0.261001
v -0.668924 0.141618 0.133057
v -0.668924 0.301322 0.133057
v -0.682029 0.141618 -0.000000
v -0.682029 0.301322 -0.000000
v -0.668924 0.141618 -0.133057
v -0.668924 0.301322 -0.133057
v -0.630113 0.141618 -0.261001
v -0.630113 0.301322 -0.261001
v -0.567087 0.141618 -0.378915
v -0.567087 0.301322 -0.378915
v -0.482268 0.141618 -0.482267
v -0.482268 0.301322 -0.482267
v -0.378915 0.141618 -0.567087
v -0.378915 0.301322 -0.567087
v -0.261001 0.141618 -0.630113
v -0.261001 0.301322 -0.630113
v -0.133058 0.141618 -0.668924
v -0.133058 0.301322 -0.668924
vn -0.0000 -0.0000 1.0000
vn 1.0000 -0.0000 -0.0000
vn 0.9763 0.2164 -0.0000
vn -0.0000 1.0000 -0.0000
vn -1.0000 -0.0000 -0.0000
vn -0.0000 -0.0000 -1.0000
vn -0.7071 -0.0000 0.7071
vn -0.7071 -0.0000 -0.7071
vn 0.7071 -0.0000 -0.7071
vn 0.7071 -0.0000 0.7071
vn -0.0000 -1.0000 -0.0000
vn -0.6899 0.2190 -0.6899
vn -0.6899 0.2190 0.6899
vn -0.0000 0.2164 0.9763
vn -0.0000 0.2164 -0.9763
vn 0.6899 0.2190 -0.6899
vn 0.6899 0.2190 0.6899
vn -0.9763 0.2164 -0.0000
vn 0.0980 -0.0000 -0.9952
vn 0.2903 -0.0000 -0.9569
vn 0.4714 -0.0000 -0.8819
vn 0.6344 -0.0000 -0.7730
vn 0.7730 -0.0000 -0.6344
vn 0.8819 -0.0000 -0.4714
vn 0.9569 -0.0000 -0.2903
vn 0.9952 -0.0000 -0.0980
vn 0.9952 -0.0000 0.0980
vn 0.9569 -0.0000 0.2903
vn 0.8819 -0.0000 0.4714
vn 0.7730 -0.0000 0.6344
vn 0.6344 -0.0000 0.7730
vn 0.4714 -0.0000 0.8819
vn 0.2903 -0.0000 0.9569
vn 0.0980 -0.0000 0.9952
vn -0.0980 -0.0000 0.9952
vn -0.2903 -0.0000 0.9569
vn -0.4714 -0.0000 0.8819
vn -0.6344 -0.0000 0.7730
vn -0.7730 -0.0000 0.6344
vn -0.8819 -0.0000 0.4714
vn -0.9569 -0.0000 0.2903
vn -0.9952 -0.0000 0.0980
vn -0.9952 -0.0000 -0.0980
vn -0.9569 -0.0000 -0.2903
vn -0.8819 -0.0000 -0.4714
vn -0.7730 -0.0000 -0.6344
vn -0.6344 -0.0000 -0.7730
vn -0.4714 -0.0000 -0.8819
vn -0.2903 -0.0000 -0.9569
vn -0.0980 -0.0000 -0.9952
vt 0.625000 0.820943
vt 0.625000 0.679057
vt 0.625000 0.570943
vt 0.625000 0.429057
vt 0.625000 0.320943
vt 0.625000 0.179057
vt 0.625000 0.070943
vt 0.625000 0.000000
vt 0.625000 0.929057
vt 0.375000 0.929057
vt 0.375000 0.000000
vt 0.195943 0.750000
vt 0.375000 0.070943
vt 0.125000 0.679057
vt 0.625000 0.070943
vt 0.625000 0.000000
vt 0.625000 0.929057
vt 0.375000 0.179057
vt 0.125000 0.570943
vt 0.375000 0.320943
vt 0.195943 0.500000
vt 0.625000 0.320943
vt 0.625000 0.179057
vt 0.375000 0.679057
vt 0.375000 0.820943
vt 0.304057 0.750000
vt 0.625000 0.820943
vt 0.625000 0.679057
vt 0.375000 0.429057
vt 0.304057 0.500000
vt 0.375000 0.570943
vt 0.625000 0.570943
vt 0.625000 0.429057
vt 0.625000 0.679057
vt 0.625000 0.570943
vt 0.695943 0.750000
vt 0.625000 0.820943
vt 0.804057 0.750000
vt 0.625000 0.000000
vt 0.625000 0.929057
vt 0.875000 0.679057
vt 0.625000 0.070943
vt 0.875000 0.570943
vt 0.625000 0.179057
vt 0.804057 0.500000
vt 0.625000 0.320943
vt 0.695943 0.500000
vt 0.625000 0.429057
vt 1.000000 0.500000
vt 0.000000 0.500000
vt 0.750000 0.490000
vt 1.000000 1.000000
vt 0.250000 0.490000
vt 0.000000 1.000000
vt 0.968750 0.500000
vt 0.796822 0.485388
vt 0.968750 1.000000
vt 0.296822 0.485388
vt 0.937500 0.500000
vt 0.841844 0.471731
vt 0.937500 1.000000
vt 0.341844 0.471731
vt 0.906250 0.500000
vt 0.883337 0.449553
vt 0.906250 1.000000
vt 0.383337 0.449553
vt 0.875000 0.500000
vt 0.919706 0.419706
vt 0.875000 1.000000
vt 0.419706 0.419706
vt 0.843750 0.500000
vt 0.949553 0.383337
vt 0.843750 1.000000
vt 0.449553 0.383337
vt 0.812500 0.500000
vt 0.971731 0.341844
vt 0.812500 1.000000
vt 0.471731 0.341844
vt 0.781250 0.500000
vt 0.985389 0.296822
vt 0.781250 1.000000
vt 0.485388 0.296822
vt 0.750000 0.500000
vt 0.990000 0.250000
vt 0.750000 1.000000
vt 0.490000 0.250000
vt 0.718750 0.500000
vt 0.985389 0.203178
vt 0.718750 1.000000
vt 0.485388 0.203178
vt 0.687500 0.500000
vt 0.971731 0.158156
vt 0.687500 1.000000
vt 0.471731 0.158156
vt 0.656250 0.500000
vt 0.949553 0.116663
vt 0.656250 1.000000
vt 0.449553 0.116663
vt 0.625000 0.500000
vt 0.919706 0.080294
vt 0.625000 1.000000
vt 0.419706 0.080294
vt 0.593750 0.500000
vt 0.883337 0.050447
vt 0.593750 1.000000
vt 0.383337 0.050447
vt 0.562500 0.500000
vt 0.841844 0.028269
vt 0.562500 1.000000
vt 0.341844 0.028269
vt 0.531250 0.500000
vt 0.796822 0.014612
vt 0.531250 1.000000
vt 0.296822 0.014612
vt 0.500000 0.500000
vt 0.750000 0.010000
vt 0.500000 1.000000
vt 0.250000 0.010000
vt 0.468750 0.500000
vt 0.703178 0.014612
vt 0.468750 1.000000
vt 0.203178 0.014612
vt 0.437500 0.500000
vt 0.658156 0.028269
vt 0.437500 1.000000
vt 0.158156 0.028269
vt 0.406250 0.500000
vt 0.616663 0.050447
vt 0.406250 1.000000
vt 0.116663 0.050447
vt 0.375000 0.500000
vt 0.580294 0.080294
vt 0.375000 1.000000
vt 0.080294 0.080294
vt 0.343750 0.500000
vt 0.550447 0.116663
vt 0.343750 1.000000
vt 0.050447 0.116663
vt 0.312500 0.500000
vt 0.528269 0.158156
vt 0.312500 1.000000
vt 0.028269 0.158156
vt 0.281250 0.500000
vt 0.514611 0.203178
vt 0.281250 1.000000
vt 0.014612 0.203178
vt 0.250000 0.500000
vt 0.510000 0.250000
vt 0.250000 1.000000
vt 0.010000 0.250000
vt 0.218750 0.500000
vt 0.514611 0.296822
vt 0.218750 1.000000
vt 0.014612 0.296822
vt 0.187500 0.500000
vt 0.528269 0.341844
vt 0.187500 1.000000
vt 0.028269 0.341844
vt 0.156250 0.500000
vt 0.550447 0.383337
vt 0.156250 1.000000
vt 0.050447 0.383337
vt 0.125000 0.500000
vt 0.580294 0.419706
vt 0.125000 1.000000
vt 0.080294 0.419706
vt 0.093750 0.500000
vt 0.616663 0.449553
vt 0.093750 1.000000
vt 0.116663 0.449553
vt 0.062500 0.500000
vt 0.658156 0.471731
vt 0.158156 0.471731
vt 0.062500 1.000000
vt 0.031250 0.500000
vt 0.703178 0.485388
vt 0.203178 0.485388
vt 0.031250 1.000000
s 0
f 18/25/1 19/27/1 12/17/1 9/10/1
f 22/31/2 23/32/2 20/28/2 17/24/2
f 2/2/3 3/3/3 26/35/3 25/34/3
f 11/15/4 12/16/4 8/8/4 7/7/4
f 10/13/5 11/15/5 16/23/5 13/18/5
f 14/20/6 15/22/6 24/33/6 21/29/6
f 9/11/7 12/16/7 11/15/7 10/13/7
f 15/22/8 14/20/8 13/18/8 16/23/8
f 23/32/9 22/31/9 21/29/9 24/33/9
f 19/27/10 18/25/10 17/24/10 20/28/10
f 13/19/11 14/21/11 21/30/11 22/31/11 17/24/11 18/26/11 9/12/11 10/14/11
f 20/28/4 23/32/4 3/3/4 2/2/4
f 16/23/4 11/15/4 7/7/4 6/6/4
f 24/33/4 15/22/4 5/5/4 4/4/4
f 19/27/4 20/28/4 2/2/4 1/1/4
f 12/17/4 19/27/4 1/1/4 8/9/4
f 23/32/4 24/33/4 4/4/4 3/3/4
f 15/22/4 16/23/4 6/6/4 5/5/4
f 26/35/4 32/47/4 31/45/4 30/43/4 29/41/4 28/38/4 27/36/4 25/34/4
f 5/5/12 6/6/12 30/44/12 31/46/12
f 7/7/13 8/8/13 28/39/13 29/42/13
f 8/9/14 1/1/14 27/37/14 28/40/14
f 4/4/15 5/5/15 31/46/15 32/48/15
f 3/3/16 4/4/16 32/48/16 26/35/16
f 1/1/17 2/2/17 25/34/17 27/37/17
f 6/6/18 7/7/18 29/42/18 30/44/18
f 33/49/19 34/52/19 36/57/19 35/55/19
f 35/55/20 36/57/20 38/61/20 37/59/20
f 37/59/21 38/61/21 40/65/21 39/63/21
f 39/63/22 40/65/22 42/69/22 41/67/22
f 41/67/23 42/69/23 44/73/23 43/71/23
f 43/71/24 44/73/24 46/77/24 45/75/24
f 45/75/25 46/77/25 48/81/25 47/79/25
f 47/79/26 48/81/26 50/85/26 49/83/26
f 49/83/27 50/85/27 52/89/27 51/87/27
f 51/87/28 52/89/28 54/93/28 53/91/28
f 53/91/29 54/93/29 56/97/29 55/95/29
f 55/95/30 56/97/30 58/101/30 57/99/30
f 57/99/31 58/101/31 60/105/31 59/103/31
f 59/103/32 60/105/32 62/109/32 61/107/32
f 61/107/33 62/109/33 64/113/33 63/111/33
f 63/111/34 64/113/34 66/117/34 65/115/34
f 65/115/35 66/117/35 68/121/35 67/119/35
f 67/119/36 68/121/36 70/125/36 69/123/36
f 69/123/37 70/125/37 72/129/37 71/127/37
f 71/127/38 72/129/38 74/133/38 73/131/38
f 73/131/39 74/133/39 76/137/39 75/135/39
f 75/135/40 76/137/40 78/141/40 77/139/40
f 77/139/41 78/141/41 80/145/41 79/143/41
f 79/143/42 80/145/42 82/149/42 81/147/42
f 81/147/43 82/149/43 84/153/43 83/151/43
f 83/151/44 84/153/44 86/157/44 85/155/44
f 85/155/45 86/157/45 88/161/45 87/159/45
f 87/159/46 88/161/46 90/165/46 89/163/46
f 89/163/47 90/165/47 92/169/47 91/167/47
f 91/167/48 92/169/48 94/174/48 93/171/48
f 36/58/4 34/53/4 96/177/4 94/173/4 92/170/4 90/166/4 88/162/4 86/158/4 84/154/4 82/150/4 80/146/4 78/142/4 76/138/4 74/134/4 72/130/4 70/126/4 68/122/4 66/118/4 64/114/4 62/110/4 60/106/4 58/102/4 56/98/4 54/94/4 52/90/4 50/86/4 48/82/4 46/78/4 44/74/4 42/70/4 40/66/4 38/62/4
f 93/171/49 94/174/49 96/178/49 95/175/49
f 95/175/50 96/178/50 34/54/50 33/50/50
f 33/51/11 35/56/11 37/60/11 39/64/11 41/68/11 43/72/11 45/76/11 47/80/11 49/84/11 51/88/11 53/92/11 55/96/11 57/100/11 59/104/11 61/108/11 63/112/11 65/116/11 67/120/11 69/124/11 71/128/11 73/132/11 75/136/11 77/140/11 79/144/11 81/148/11 83/152/11 85/156/11 87/160/11 89/164/11 91/168/11 93/172/11 95/176/11
