# Blender 3.5.1
# www.blender.org
mtllib tank-turret.mtl
o Cube.009
v -0.609483 -0.418107 0.864970
v -0.609483 -0.418107 -0.864970
v 0.609483 -0.418107 0.864970
v 0.609483 -0.418107 -0.864970
v -0.521926 -0.289104 1.030795
v -0.726329 -0.289104 0.740710
v -0.609501 -0.418088 0.864995
v -0.726329 -0.289104 -0.740710
v -0.521926 -0.289104 -1.030795
v -0.609501 -0.418088 -0.864995
v 0.726329 -0.289104 0.740710
v 0.521926 -0.289104 1.030795
v 0.609501 -0.418088 0.864995
v 0.521926 -0.289104 -1.030795
v 0.726329 -0.289104 -0.740710
v 0.609501 -0.418088 -0.864995
v -0.726329 0.032860 0.350073
v -0.521926 0.032860 0.640158
v -0.521926 0.032860 -1.096595
v -0.726329 0.032860 -0.806510
v 0.726329 0.032860 -0.806510
v 0.521926 0.032860 -1.096595
v 0.521926 0.032860 0.640158
v 0.726329 0.032860 0.350073
v 0.383282 -0.068969 1.098286
v 0.384865 -0.205050 1.084343
v -0.384865 -0.205050 1.084343
v -0.383282 -0.068969 1.098286
v -0.124319 0.005721 -0.838175
v -0.124319 0.134724 -0.838175
v -0.061585 0.005721 -0.831996
v -0.061585 0.134724 -0.831996
v -0.001261 0.005721 -0.813697
v -0.001261 0.134724 -0.813697
v 0.054334 0.005721 -0.783981
v 0.054334 0.134724 -0.783981
v 0.103063 0.005721 -0.743990
v 0.103063 0.134724 -0.743990
v 0.143054 0.005721 -0.695261
v 0.143054 0.134724 -0.695261
v 0.172770 0.005721 -0.639667
v 0.172770 0.134724 -0.639667
v 0.191069 0.005721 -0.579343
v 0.191069 0.134724 -0.579343
v 0.197247 0.005721 -0.516608
v 0.197247 0.134724 -0.516608
v 0.191069 0.005721 -0.453874
v 0.191069 0.134724 -0.453874
v 0.172770 0.005721 -0.393550
v 0.172770 0.134724 -0.393550
v 0.143054 0.005721 -0.337956
v 0.143054 0.134724 -0.337956
v 0.103063 0.005721 -0.289227
v 0.103063 0.134724 -0.289227
v 0.054334 0.005721 -0.249236
v 0.054334 0.134724 -0.249236
v -0.001261 0.005721 -0.219520
v -0.001261 0.134724 -0.219520
v -0.061585 0.005721 -0.201221
v -0.061585 0.134724 -0.201221
v -0.124319 0.005721 -0.195042
v -0.124319 0.134724 -0.195042
v -0.187054 0.005721 -0.201221
v -0.187054 0.134724 -0.201221
v -0.247377 0.005721 -0.219520
v -0.247377 0.134724 -0.219520
v -0.302972 0.005721 -0.249236
v -0.302972 0.134724 -0.249236
v -0.351701 0.005721 -0.289227
v -0.351701 0.134724 -0.289227
v -0.391692 0.005721 -0.337956
v -0.391692 0.134724 -0.337956
v -0.421408 0.005721 -0.393550
v -0.421408 0.134724 -0.393550
v -0.439707 0.005721 -0.453874
v -0.439707 0.134724 -0.453874
v -0.445886 0.005721 -0.516608
v -0.445886 0.134724 -0.516608
v -0.439707 0.005721 -0.579343
v -0.439707 0.134724 -0.579343
v -0.421408 0.005721 -0.639667
v -0.421408 0.134724 -0.639667
v -0.391692 0.005721 -0.695261
v -0.391692 0.134724 -0.695261
v -0.351701 0.005721 -0.743990
v -0.351701 0.134724 -0.743990
v -0.302972 0.005721 -0.783981
v -0.302972 0.134724 -0.783981
v -0.247377 0.005721 -0.813697
v -0.247377 0.134724 -0.813697
v -0.187054 0.005721 -0.831996
v -0.187054 0.134724 -0.831996
v 0.173975 -0.289104 1.030795
v -0.173975 -0.289104 1.030795
v 0.173975 0.032860 0.640158
v -0.173975 0.032860 0.640158
v 0.171179 -0.205050 1.084343
v -0.171179 -0.205050 1.084343
v 0.170475 -0.068969 1.098286
v -0.170475 -0.068969 1.098286
v 0.173975 -0.289104 1.030795
v -0.173975 -0.289104 1.030795
v 0.173975 0.032860 0.640158
v -0.173975 0.032860 0.640158
v 0.171179 -0.205050 1.084343
v -0.171179 -0.205050 1.084343
v 0.170475 -0.068969 1.098286
v -0.170475 -0.068969 1.098286
v 0.173975 -0.289104 1.030795
v -0.173975 -0.289104 1.030795
v 0.173975 0.032860 0.640158
v -0.173975 0.032860 0.640158
v 0.171179 -0.205050 0.866970
v -0.171179 -0.205050 0.866970
v 0.170475 -0.019642 0.880912
v -0.170475 -0.019642 0.880912
vn -0.8113 0.3730 0.4501
vn -0.0000 -0.2002 -0.9797
vn -0.0000 1.0000 -0.0000
vn -0.7412 -0.6713 -0.0000
vn -0.0000 -1.0000 -0.0000
vn 1.0000 -0.0000 -0.0000
vn 0.7412 -0.6713 -0.0000
vn -0.0000 -0.7893 -0.6140
vn -1.0000 -0.0000 -0.0000
vn -0.8038 -0.1823 0.5663
vn -0.8038 -0.1823 -0.5663
vn 0.8038 -0.1823 0.5663
vn 0.8038 -0.1823 -0.5663
vn -0.8118 -0.1169 -0.5720
vn 0.8118 -0.1169 -0.5720
vn 0.6700 0.5728 0.4721
vn -0.6700 0.5728 0.4721
vn -0.0000 -0.7893 0.6140
vn -0.0000 -0.1019 0.9948
vn 0.8113 0.3730 0.4501
vn -0.0000 0.9762 0.2170
vn -0.0000 -0.5373 0.8434
vn 0.0980 -0.0000 -0.9952
vn 0.2903 -0.0000 -0.9569
vn 0.4714 -0.0000 -0.8819
vn 0.6344 -0.0000 -0.7730
vn 0.7730 -0.0000 -0.6344
vn 0.8819 -0.0000 -0.4714
vn 0.9569 -0.0000 -0.2903
vn 0.9952 -0.0000 -0.0980
vn 0.9952 -0.0000 0.0980
vn 0.9569 -0.0000 0.2903
vn 0.8819 -0.0000 0.4714
vn 0.7730 -0.0000 0.6344
vn 0.6344 -0.0000 0.7730
vn 0.4714 -0.0000 0.8819
vn 0.2903 -0.0000 0.9569
vn 0.0980 -0.0000 0.9952
vn -0.0980 -0.0000 0.9952
vn -0.2903 -0.0000 0.9569
vn -0.4714 -0.0000 0.8819
vn -0.6344 -0.0000 0.7730
vn -0.7730 -0.0000 0.6344
vn -0.8819 -0.0000 0.4714
vn -0.9569 -0.0000 0.2903
vn -0.9952 -0.0000 0.0980
vn -0.9952 -0.0000 -0.0980
vn -0.9569 -0.0000 -0.2903
vn -0.8819 -0.0000 -0.4714
vn -0.7730 -0.0000 -0.6344
vn -0.6344 -0.0000 -0.7730
vn -0.4714 -0.0000 -0.8819
vn -0.2903 -0.0000 -0.9569
vn -0.0980 -0.0000 -0.9952
vn 0.9994 -0.0333 -0.0000
vn 0.5104 0.8386 0.1903
vn 1.0000 -0.0043 -0.0005
vn -0.0000 0.8897 0.4565
vn -0.0000 0.9770 0.2131
vn -0.0000 -0.0750 0.9972
vn -1.0000 -0.0043 -0.0005
vn -0.5104 0.8386 0.1903
vn -0.9994 -0.0333 -0.0000
vt 0.375000 0.000000
vt 0.125000 0.750000
vt 0.375000 1.000000
vt 0.125000 0.500000
vt 0.375000 0.250000
vt 0.375000 0.750000
vt 0.375000 0.500000
vt 0.481321 0.000000
vt 0.625000 0.000000
vt 0.625000 0.964823
vt 0.625000 0.035177
vt 0.375037 0.000000
vt 0.375037 1.000000
vt 0.625000 0.214823
vt 0.625000 0.250000
vt 0.625000 0.285177
vt 0.375037 0.250000
vt 0.625000 0.714823
vt 0.625000 0.750000
vt 0.625000 0.785177
vt 0.375037 0.750000
vt 0.625000 0.464823
vt 0.625000 0.500000
vt 0.625000 0.535177
vt 0.375037 0.500000
vt 0.875000 0.714823
vt 0.625000 0.035177
vt 0.625000 0.000000
vt 0.839823 0.750000
vt 0.839823 0.500000
vt 0.625000 0.285177
vt 0.875000 0.535177
vt 0.625000 0.214823
vt 0.625000 0.535177
vt 0.660177 0.500000
vt 0.625000 0.464823
vt 0.625000 0.785177
vt 0.660177 0.750000
vt 0.625000 0.714823
vt 0.625000 0.785177
vt 0.660177 0.750000
vt 0.625000 0.785177
vt 0.625000 0.000000
vt 0.625000 0.964823
vt 0.625000 0.000000
vt 0.839823 0.750000
vt 0.625000 0.964823
vt 1.000000 0.500000
vt 0.000000 0.500000
vt 1.000000 1.000000
vt 0.250000 0.490000
vt 0.000000 1.000000
vt 0.968750 0.500000
vt 0.968750 1.000000
vt 0.296822 0.485388
vt 0.937500 0.500000
vt 0.937500 1.000000
vt 0.341844 0.471731
vt 0.906250 0.500000
vt 0.906250 1.000000
vt 0.383337 0.449553
vt 0.875000 0.500000
vt 0.875000 1.000000
vt 0.419706 0.419706
vt 0.843750 0.500000
vt 0.843750 1.000000
vt 0.449553 0.383337
vt 0.812500 0.500000
vt 0.812500 1.000000
vt 0.471731 0.341844
vt 0.781250 0.500000
vt 0.781250 1.000000
vt 0.485388 0.296822
vt 0.750000 0.500000
vt 0.750000 1.000000
vt 0.490000 0.250000
vt 0.718750 0.500000
vt 0.718750 1.000000
vt 0.485388 0.203178
vt 0.687500 0.500000
vt 0.687500 1.000000
vt 0.471731 0.158156
vt 0.656250 0.500000
vt 0.656250 1.000000
vt 0.449553 0.116663
vt 0.625000 0.500000
vt 0.625000 1.000000
vt 0.419706 0.080294
vt 0.593750 0.500000
vt 0.593750 1.000000
vt 0.383337 0.050447
vt 0.562500 0.500000
vt 0.562500 1.000000
vt 0.341844 0.028269
vt 0.531250 0.500000
vt 0.531250 1.000000
vt 0.296822 0.014612
vt 0.500000 0.500000
vt 0.500000 1.000000
vt 0.250000 0.010000
vt 0.468750 0.500000
vt 0.468750 1.000000
vt 0.203178 0.014612
vt 0.437500 0.500000
vt 0.437500 1.000000
vt 0.158156 0.028269
vt 0.406250 0.500000
vt 0.406250 1.000000
vt 0.116663 0.050447
vt 0.375000 0.500000
vt 0.375000 1.000000
vt 0.080294 0.080294
vt 0.343750 0.500000
vt 0.343750 1.000000
vt 0.050447 0.116663
vt 0.312500 0.500000
vt 0.312500 1.000000
vt 0.028269 0.158156
vt 0.281250 0.500000
vt 0.281250 1.000000
vt 0.014612 0.203178
vt 0.250000 0.500000
vt 0.250000 1.000000
vt 0.010000 0.250000
vt 0.218750 0.500000
vt 0.218750 1.000000
vt 0.014612 0.296822
vt 0.187500 0.500000
vt 0.187500 1.000000
vt 0.028269 0.341844
vt 0.156250 0.500000
vt 0.156250 1.000000
vt 0.050447 0.383337
vt 0.125000 0.500000
vt 0.125000 1.000000
vt 0.080294 0.419706
vt 0.093750 0.500000
vt 0.093750 1.000000
vt 0.116663 0.449553
vt 0.062500 0.500000
vt 0.158156 0.471731
vt 0.062500 1.000000
vt 0.031250 0.500000
vt 0.203178 0.485388
vt 0.031250 1.000000
vt 0.625000 0.845059
vt 0.625000 0.904941
vt 0.720059 0.750000
vt 0.779941 0.750000
vt 0.625000 0.845059
vt 0.625000 0.904941
vt 0.625000 0.845059
vt 0.720059 0.750000
vt 0.779941 0.750000
vt 0.625000 0.904941
vt 0.625000 0.845059
vt 0.625000 0.904941
vt 0.720059 0.750000
vt 0.779941 0.750000
vt 0.625000 0.845059
vt 0.625000 0.904941
vt 0.720059 0.750000
vt 0.625000 0.845059
vt 0.625000 0.904941
vt 0.779941 0.750000
vt 0.625000 0.845059
vt 0.625000 0.904941
vt 0.720059 0.750000
vt 0.779941 0.750000
vt 0.625000 0.845059
vt 0.625000 0.904941
vt 0.720059 0.750000
vt 0.625000 0.845059
vt 0.625000 0.904941
vt 0.779941 0.750000
s 0
f 18/28/1 5/9/1 27/43/1 28/45/1
f 14/22/2 9/16/2 19/31/2 22/36/2
f 21/34/3 22/35/3 19/30/3 20/32/3 17/26/3 18/29/3 96/149/3 95/148/3 23/38/3 24/39/3
f 1/1/4 7/12/4 6/11/4 8/14/4 10/17/4 2/5/4
f 2/4/5 4/7/5 3/6/5 1/2/5
f 11/18/6 15/24/6 21/34/6 24/39/6
f 4/7/7 16/25/7 15/24/7 11/18/7 13/21/7 3/6/7
f 2/5/8 10/17/8 9/16/8 14/22/8 16/25/8 4/7/8
f 8/14/9 6/11/9 17/27/9 20/33/9
f 5/8/10 6/11/10 7/12/10
f 8/14/11 9/15/11 10/17/11
f 11/18/12 12/19/12 13/21/12
f 14/22/13 15/23/13 16/25/13
f 8/14/14 20/33/14 19/31/14 9/16/14
f 21/34/15 15/24/15 14/22/15 22/36/15
f 23/37/16 12/20/16 11/18/16 24/39/16
f 5/9/17 18/28/17 17/27/17 6/11/17
f 3/6/18 13/21/18 12/20/18 93/146/18 94/147/18 5/10/18 7/13/18 1/3/18
f 97/150/19 26/42/19 25/40/19 99/152/19
f 12/20/20 23/37/20 25/40/20 26/42/20
f 96/149/21 18/29/21 28/46/21 100/154/21
f 93/146/22 12/20/22 26/42/22 97/150/22
f 29/48/23 30/50/23 32/54/23 31/53/23
f 31/53/24 32/54/24 34/57/24 33/56/24
f 33/56/25 34/57/25 36/60/25 35/59/25
f 35/59/26 36/60/26 38/63/26 37/62/26
f 37/62/27 38/63/27 40/66/27 39/65/27
f 39/65/28 40/66/28 42/69/28 41/68/28
f 41/68/29 42/69/29 44/72/29 43/71/29
f 43/71/30 44/72/30 46/75/30 45/74/30
f 45/74/31 46/75/31 48/78/31 47/77/31
f 47/77/32 48/78/32 50/81/32 49/80/32
f 49/80/33 50/81/33 52/84/33 51/83/33
f 51/83/34 52/84/34 54/87/34 53/86/34
f 53/86/35 54/87/35 56/90/35 55/89/35
f 55/89/36 56/90/36 58/93/36 57/92/36
f 57/92/37 58/93/37 60/96/37 59/95/37
f 59/95/38 60/96/38 62/99/38 61/98/38
f 61/98/39 62/99/39 64/102/39 63/101/39
f 63/101/40 64/102/40 66/105/40 65/104/40
f 65/104/41 66/105/41 68/108/41 67/107/41
f 67/107/42 68/108/42 70/111/42 69/110/42
f 69/110/43 70/111/43 72/114/43 71/113/43
f 71/113/44 72/114/44 74/117/44 73/116/44
f 73/116/45 74/117/45 76/120/45 75/119/45
f 75/119/46 76/120/46 78/123/46 77/122/46
f 77/122/47 78/123/47 80/126/47 79/125/47
f 79/125/48 80/126/48 82/129/48 81/128/48
f 81/128/49 82/129/49 84/132/49 83/131/49
f 83/131/50 84/132/50 86/135/50 85/134/50
f 85/134/51 86/135/51 88/138/51 87/137/51
f 87/137/52 88/138/52 90/142/52 89/140/52
f 32/55/3 30/51/3 92/144/3 90/141/3 88/139/3 86/136/3 84/133/3 82/130/3 80/127/3 78/124/3 76/121/3 74/118/3 72/115/3 70/112/3 68/109/3 66/106/3 64/103/3 62/100/3 60/97/3 58/94/3 56/91/3 54/88/3 52/85/3 50/82/3 48/79/3 46/76/3 44/73/3 42/70/3 40/67/3 38/64/3 36/61/3 34/58/3
f 89/140/53 90/142/53 92/145/53 91/143/53
f 91/143/54 92/145/54 30/52/54 29/49/54
f 5/10/22 94/147/22 98/151/22 27/44/22
f 97/150/3 99/152/3 107/163/3 105/160/3
f 23/38/21 95/148/21 99/153/21 25/41/21
f 98/151/3 94/147/3 102/157/3 106/161/3
f 27/44/19 98/151/19 100/155/19 28/47/19
f 99/153/3 95/148/3 103/158/3 107/162/3
f 106/161/55 102/157/55 110/167/55 114/171/55
f 107/162/56 103/158/56 111/168/56 115/172/56
f 108/164/57 106/161/57 114/171/57 116/174/57
f 96/149/3 100/154/3 108/165/3 104/159/3
f 93/146/3 97/150/3 105/160/3 101/156/3
f 95/148/3 96/149/3 104/159/3 103/158/3
f 100/155/3 98/151/3 106/161/3 108/164/3
f 94/147/3 93/146/3 101/156/3 102/157/3
f 110/167/58 109/166/58 113/170/58 114/171/58
f 111/168/59 112/169/59 116/175/59 115/172/59
f 114/171/60 113/170/60 115/173/60 116/174/60
f 102/157/3 101/156/3 109/166/3 110/167/3
f 105/160/61 107/163/61 115/173/61 113/170/61
f 104/159/62 108/165/62 116/175/62 112/169/62
f 101/156/63 105/160/63 113/170/63 109/166/63
f 103/158/3 104/159/3 112/169/3 111/168/3
