# Blender 4.0.2
# www.blender.org
mtllib toyota_turret_turret.mtl
o Cube.005
v -0.366525 -0.034337 0.064127
v -0.000000 -0.034337 -0.302398
v 0.366525 -0.034337 0.064127
v -0.000000 -0.034337 0.430652
v -0.000000 -0.034337 0.064127
v -0.312737 -0.034337 -0.058714
v -0.312737 -0.034337 -0.270986
v -0.000000 -0.034337 -0.270986
v 0.312737 -0.034337 -0.270986
v 0.312737 -0.034337 -0.058714
v -0.000000 -0.034337 -0.058714
v -0.312737 0.251863 -0.058714
v -0.312737 0.251863 -0.270986
v -0.000000 0.251863 -0.270986
v 0.312737 0.251863 -0.270986
v 0.312737 0.251863 -0.058714
v -0.000000 0.251863 -0.058714
v -0.233053 0.342695 -0.058714
v -0.233053 0.342695 -0.168423
v -0.000000 0.342695 -0.168423
v 0.233053 0.342695 -0.168423
v 0.233053 0.342695 -0.058714
v -0.000000 0.342695 -0.058714
v -0.315711 -0.143881 0.430652
v -0.366525 -0.143881 0.379838
v -0.366525 -0.034337 0.379838
v -0.315711 -0.034337 0.430652
v -0.366525 -0.143881 -0.251584
v -0.315711 -0.143881 -0.302398
v -0.315711 -0.034337 -0.302398
v -0.366525 -0.034337 -0.251584
v -0.322646 -0.034337 -0.276773
v 0.366525 -0.143881 0.379838
v 0.315711 -0.143881 0.430652
v 0.315711 -0.034337 0.430652
v 0.366525 -0.034337 0.379838
v 0.315711 -0.143881 -0.302398
v 0.366525 -0.143881 -0.251584
v 0.366525 -0.034337 -0.251584
v 0.315711 -0.034337 -0.302398
v 0.322646 -0.034337 -0.276773
vn -0.0000 -0.0000 1.0000
vn -0.0000 1.0000 -0.0000
vn -1.0000 -0.0000 -0.0000
vn -0.0000 -0.0000 -1.0000
vn 1.0000 -0.0000 -0.0000
vn -0.0000 0.7486 -0.6630
vn -0.7517 0.6595 -0.0000
vn 0.7517 0.6595 -0.0000
vn -0.7071 -0.0000 0.7071
vn -0.7071 -0.0000 -0.7071
vn 0.7071 -0.0000 -0.7071
vn 0.7071 -0.0000 0.7071
vn -0.0000 -1.0000 -0.0000
vt 0.375000 0.767330
vt 0.625000 0.767330
vt 0.625000 0.875000
vt 0.625000 0.982670
vt 0.375000 0.982670
vt 0.625000 0.250000
vt 0.625000 0.232670
vt 0.625000 0.125000
vt 0.625000 0.500000
vt 0.625000 0.482670
vt 0.625000 0.375000
vt 0.750000 0.625000
vt 0.875000 0.625000
vt 0.875000 0.732670
vt 0.857670 0.750000
vt 0.750000 0.750000
vt 0.642330 0.750000
vt 0.625000 0.732670
vt 0.625000 0.625000
vt 0.375000 0.017330
vt 0.625000 0.017330
vt 0.375000 0.232670
vt 0.375000 0.267330
vt 0.625000 0.267330
vt 0.375000 0.482670
vt 0.625000 0.517330
vt 0.375000 0.517330
vt 0.375000 0.732670
vt 0.750000 0.500000
vt 0.875000 0.500000
vt 0.375000 0.000000
vt 0.625000 0.000000
vt 0.125000 0.517330
vt 0.142330 0.500000
vt 0.357670 0.500000
vt 0.357670 0.750000
vt 0.142330 0.750000
vt 0.125000 0.732670
s 0
f 34/1/1 35/2/1 4/3/1 27/4/1 24/5/1
f 32/6/2 31/7/2 1/8/2 6/8/2 7/6/2
f 41/9/2 40/10/2 2/11/2 8/11/2 9/9/2
f 5/12/2 1/13/2 26/14/2 27/15/2 4/16/2 35/17/2 36/18/2 3/19/2
f 25/20/3 26/21/3 1/8/3 31/7/3 28/22/3
f 5/12/2 3/19/2 10/19/2 11/12/2
f 29/23/4 30/24/4 2/11/4 40/10/4 37/25/4
f 8/11/4 7/6/4 13/6/4 14/11/4
f 3/19/2 39/26/2 41/9/2 9/9/2 10/19/2
f 1/13/2 5/12/2 11/12/2 6/13/2
f 2/11/2 30/24/2 32/6/2 7/6/2 8/11/2
f 38/27/5 39/26/5 3/19/5 36/18/5 33/28/5
f 15/9/6 14/11/6 20/11/6 21/9/6
f 7/6/3 6/8/3 12/8/3 13/6/3
f 6/13/1 11/12/1 17/12/1 12/13/1
f 10/19/5 9/9/5 15/9/5 16/19/5
f 9/9/4 8/11/4 14/11/4 15/9/4
f 11/12/1 10/19/1 16/19/1 17/12/1
f 21/9/2 20/29/2 19/30/2 18/13/2 23/12/2 22/19/2
f 17/12/1 16/19/1 22/19/1 23/12/1
f 14/11/6 13/6/6 19/6/6 20/11/6
f 13/6/7 12/8/7 18/8/7 19/6/7
f 12/13/1 17/12/1 23/12/1 18/13/1
f 16/19/8 15/9/8 21/9/8 22/19/8
f 30/24/2 31/6/2 32/6/2
f 39/26/2 40/9/2 41/9/2
f 24/31/9 27/32/9 26/21/9 25/20/9
f 30/24/10 29/23/10 28/22/10 31/7/10
f 39/26/11 38/27/11 37/25/11 40/10/11
f 35/2/12 34/1/12 33/28/12 36/18/12
f 28/33/13 29/34/13 37/35/13 38/27/13 33/28/13 34/36/13 24/37/13 25/38/13
