# Blender 4.0.2
# www.blender.org
mtllib toyota_turret_barrel.mtl
o Cylinder.002
v 0.177711 0.035287 -0.167242
v 0.858841 0.035287 -0.167242
v 0.177711 -0.004408 -0.163332
v 0.858841 -0.004408 -0.163332
v 0.177711 -0.042578 -0.151754
v 0.858841 -0.042578 -0.151754
v 0.177711 -0.077756 -0.132951
v 0.858841 -0.077756 -0.132951
v 0.177711 -0.108589 -0.107647
v 0.858841 -0.108589 -0.107647
v 0.177711 -0.133893 -0.076814
v 0.858841 -0.133893 -0.076814
v 0.177711 -0.152696 -0.041636
v 0.858841 -0.152696 -0.041636
v 0.177711 -0.164275 -0.003466
v 0.858841 -0.164274 -0.003466
v 0.177711 -0.168184 0.036229
v 0.858841 -0.168184 0.036229
v 0.177711 -0.164275 0.075924
v 0.858841 -0.164274 0.075924
v 0.177711 -0.152696 0.114094
v 0.858841 -0.152696 0.114094
v 0.177711 -0.133893 0.149271
v 0.858841 -0.133893 0.149271
v 0.177711 -0.108589 0.180105
v 0.858841 -0.108589 0.180105
v 0.177711 -0.077756 0.205409
v 0.858841 -0.077756 0.205409
v 0.177711 -0.042578 0.224212
v 0.858841 -0.042578 0.224212
v 0.177711 -0.004408 0.235790
v 0.858841 -0.004408 0.235790
v 0.177711 0.035287 0.239700
v 0.858841 0.035287 0.239700
v 0.177711 0.074982 0.235790
v 0.858841 0.074982 0.235790
v 0.177711 0.113152 0.224212
v 0.858841 0.113152 0.224212
v 0.177711 0.148329 0.205409
v 0.858841 0.148329 0.205409
v 0.177711 0.179162 0.180105
v 0.858841 0.179163 0.180105
v 0.177711 0.204467 0.149271
v 0.858841 0.204467 0.149271
v 0.177711 0.223269 0.114094
v 0.858841 0.223270 0.114094
v 0.177711 0.234848 0.075924
v 0.858841 0.234848 0.075924
v 0.177711 0.238758 0.036229
v 0.858841 0.238758 0.036229
v 0.177711 0.234848 -0.003466
v 0.858841 0.234848 -0.003466
v 0.177711 0.223269 -0.041636
v 0.858841 0.223270 -0.041636
v 0.177711 0.204467 -0.076814
v 0.858841 0.204467 -0.076814
v 0.177711 0.179162 -0.107647
v 0.858841 0.179163 -0.107647
v 0.177711 0.148329 -0.132951
v 0.858841 0.148329 -0.132951
v 0.177711 0.113152 -0.151754
v 0.858841 0.113152 -0.151754
v 0.177711 0.074982 -0.163332
v 0.858841 0.074982 -0.163332
v -0.102244 -0.162191 0.061828
v -0.102244 0.084494 0.061828
v -0.102244 -0.162191 -0.184857
v -0.102244 0.084494 -0.184857
v 0.891295 -0.162191 0.061828
v 0.891295 0.084494 0.061828
v 0.891295 -0.162191 -0.184857
v 0.891295 0.084494 -0.184857
v 0.095974 -0.162191 0.061828
v 0.095974 0.084494 0.061828
v 0.693077 0.084494 0.061828
v 0.693077 -0.162191 0.061828
v 0.183651 -0.141025 0.096684
v 0.183651 0.063329 0.096684
v 0.678292 0.063329 0.096684
v 0.678292 -0.141025 0.096684
v -0.150512 -0.129313 -0.151980
v -0.150512 -0.129313 0.028951
v -0.150512 0.051617 0.028951
v -0.150512 0.051617 -0.151980
v -0.192725 -0.094258 -0.008406
v -0.192725 0.011959 -0.008406
v -0.192725 -0.094258 -0.114623
v -0.192725 0.011959 -0.114623
v -0.146504 -0.094258 -0.008406
v -0.146504 0.011959 -0.008406
v -0.146504 -0.094258 -0.114623
v -0.146504 0.011959 -0.114623
v -0.192725 -0.070187 -0.090552
v -0.192725 -0.070187 -0.032477
v -0.192725 -0.012112 -0.032477
v -0.192725 -0.012112 -0.090552
v -1.436728 -0.062276 -0.082640
v -1.436728 -0.062276 -0.040388
v -1.436728 -0.020024 -0.040388
v -1.436728 -0.020024 -0.082640
v -1.436728 -0.083200 -0.121848
v -1.436728 -0.083200 -0.001181
v -1.436728 0.000900 -0.001181
v -1.436728 0.000900 -0.121848
v -1.597230 -0.083200 -0.121848
v -1.597230 -0.083200 -0.001181
v -1.597230 0.000900 -0.001181
v -1.597230 0.000900 -0.121848
v -1.618600 -0.070937 -0.104253
v -1.618600 -0.070937 -0.018775
v -1.618600 -0.011363 -0.018775
v -1.618600 -0.011363 -0.104253
v -1.618600 -0.059917 -0.088442
v -1.618600 -0.059917 -0.034586
v -1.618600 -0.022382 -0.034586
v -1.618600 -0.022382 -0.088442
v -1.516591 -0.059917 -0.088442
v -1.516591 -0.059917 -0.034586
v -1.516591 -0.022382 -0.034586
v -1.516591 -0.022382 -0.088442
vn -0.0000 -0.0980 -0.9952
vn -0.0000 -0.2903 -0.9569
vn -0.0000 -0.4714 -0.8819
vn -0.0000 -0.6344 -0.7730
vn -0.0000 -0.7730 -0.6344
vn -0.0000 -0.8819 -0.4714
vn -0.0000 -0.9569 -0.2903
vn -0.0000 -0.9952 -0.0980
vn -0.0000 -0.9952 0.0980
vn -0.0000 -0.9569 0.2903
vn -0.0000 -0.8819 0.4714
vn -0.0000 -0.7730 0.6344
vn -0.0000 -0.6344 0.7730
vn -0.0000 -0.4714 0.8819
vn -0.0000 -0.2903 0.9569
vn -0.0000 -0.0980 0.9952
vn -0.0000 0.0980 0.9952
vn -0.0000 0.2903 0.9569
vn -0.0000 0.4714 0.8819
vn -0.0000 0.6344 0.7730
vn -0.0000 0.7730 0.6344
vn -0.0000 0.8819 0.4714
vn -0.0000 0.9569 0.2903
vn -0.0000 0.9952 0.0980
vn -0.0000 0.9952 -0.0980
vn -0.0000 0.9569 -0.2903
vn -0.0000 0.8819 -0.4714
vn -0.0000 0.7730 -0.6344
vn -0.0000 0.6344 -0.7730
vn -0.0000 0.4714 -0.8819
vn 1.0000 -0.0000 -0.0000
vn -0.0000 0.2903 -0.9569
vn -0.0000 0.0980 -0.9952
vn -1.0000 -0.0000 -0.0000
vn -0.5630 -0.8265 -0.0000
vn -0.0000 -0.0000 -1.0000
vn -0.0000 -0.0000 1.0000
vn -0.0000 -1.0000 -0.0000
vn -0.0000 1.0000 -0.0000
vn -0.0000 -0.8548 0.5190
vn -0.3694 -0.0000 0.9293
vn -0.0000 0.8548 0.5190
vn 0.9206 -0.0000 0.3905
vn -0.5630 -0.0000 -0.8265
vn -0.5630 -0.0000 0.8265
vn -0.5630 0.8265 -0.0000
vn -0.0064 -0.0000 -1.0000
vn -0.0064 -0.0000 1.0000
vn -0.0064 1.0000 -0.0000
vn -0.0064 -1.0000 -0.0000
vn -0.6356 -0.0000 0.7720
vn -0.4977 0.8673 -0.0000
vn -0.4977 -0.8673 -0.0000
vn -0.6356 -0.0000 -0.7720
vt 1.000000 0.500000
vt 1.000000 1.000000
vt 0.968750 1.000000
vt 0.968750 0.500000
vt 0.937500 1.000000
vt 0.937500 0.500000
vt 0.906250 1.000000
vt 0.906250 0.500000
vt 0.875000 1.000000
vt 0.875000 0.500000
vt 0.843750 1.000000
vt 0.843750 0.500000
vt 0.812500 1.000000
vt 0.812500 0.500000
vt 0.781250 1.000000
vt 0.781250 0.500000
vt 0.750000 1.000000
vt 0.750000 0.500000
vt 0.718750 1.000000
vt 0.718750 0.500000
vt 0.687500 1.000000
vt 0.687500 0.500000
vt 0.656250 1.000000
vt 0.656250 0.500000
vt 0.625000 1.000000
vt 0.625000 0.500000
vt 0.593750 1.000000
vt 0.593750 0.500000
vt 0.562500 1.000000
vt 0.562500 0.500000
vt 0.531250 1.000000
vt 0.531250 0.500000
vt 0.500000 1.000000
vt 0.500000 0.500000
vt 0.468750 1.000000
vt 0.468750 0.500000
vt 0.437500 1.000000
vt 0.437500 0.500000
vt 0.406250 1.000000
vt 0.406250 0.500000
vt 0.375000 1.000000
vt 0.375000 0.500000
vt 0.343750 1.000000
vt 0.343750 0.500000
vt 0.312500 1.000000
vt 0.312500 0.500000
vt 0.281250 1.000000
vt 0.281250 0.500000
vt 0.250000 1.000000
vt 0.250000 0.500000
vt 0.218750 1.000000
vt 0.218750 0.500000
vt 0.187500 1.000000
vt 0.187500 0.500000
vt 0.156250 1.000000
vt 0.156250 0.500000
vt 0.125000 1.000000
vt 0.125000 0.500000
vt 0.093750 1.000000
vt 0.093750 0.500000
vt 0.062500 1.000000
vt 0.062500 0.500000
vt 0.296822 0.485388
vt 0.250000 0.490000
vt 0.203178 0.485388
vt 0.158156 0.471731
vt 0.116663 0.449553
vt 0.080294 0.419706
vt 0.050447 0.383337
vt 0.028269 0.341844
vt 0.014612 0.296822
vt 0.010000 0.250000
vt 0.014612 0.203178
vt 0.028269 0.158156
vt 0.050447 0.116663
vt 0.080294 0.080294
vt 0.116663 0.050447
vt 0.158156 0.028269
vt 0.203178 0.014612
vt 0.250000 0.010000
vt 0.296822 0.014612
vt 0.341844 0.028269
vt 0.383337 0.050447
vt 0.419706 0.080294
vt 0.449553 0.116663
vt 0.471731 0.158156
vt 0.485388 0.203178
vt 0.490000 0.250000
vt 0.485388 0.296822
vt 0.471731 0.341844
vt 0.449553 0.383337
vt 0.419706 0.419706
vt 0.383337 0.449553
vt 0.341844 0.471731
vt 0.031250 1.000000
vt 0.031250 0.500000
vt 0.000000 1.000000
vt 0.000000 0.500000
vt 0.750000 0.490000
vt 0.796822 0.485388
vt 0.841844 0.471731
vt 0.883337 0.449553
vt 0.919706 0.419706
vt 0.949553 0.383337
vt 0.971731 0.341844
vt 0.985388 0.296822
vt 0.990000 0.250000
vt 0.985388 0.203178
vt 0.971731 0.158156
vt 0.949553 0.116663
vt 0.919706 0.080294
vt 0.883337 0.050447
vt 0.841844 0.028269
vt 0.796822 0.014612
vt 0.750000 0.010000
vt 0.703178 0.014612
vt 0.658156 0.028269
vt 0.616663 0.050447
vt 0.580294 0.080294
vt 0.550447 0.116663
vt 0.528269 0.158156
vt 0.514612 0.203178
vt 0.510000 0.250000
vt 0.514612 0.296822
vt 0.528269 0.341844
vt 0.550447 0.383337
vt 0.580294 0.419706
vt 0.616663 0.449553
vt 0.658156 0.471731
vt 0.703178 0.485388
vt 0.125000 0.750000
vt 0.375000 0.250000
vt 0.625000 0.250000
vt 0.625000 0.750000
vt 0.375000 0.750000
vt 0.625000 0.000000
vt 0.375000 0.000000
vt 0.875000 0.750000
s 0
f 1/1/1 2/2/1 4/3/1 3/4/1
f 3/4/2 4/3/2 6/5/2 5/6/2
f 5/6/3 6/5/3 8/7/3 7/8/3
f 7/8/4 8/7/4 10/9/4 9/10/4
f 9/10/5 10/9/5 12/11/5 11/12/5
f 11/12/6 12/11/6 14/13/6 13/14/6
f 13/14/7 14/13/7 16/15/7 15/16/7
f 15/16/8 16/15/8 18/17/8 17/18/8
f 17/18/9 18/17/9 20/19/9 19/20/9
f 19/20/10 20/19/10 22/21/10 21/22/10
f 21/22/11 22/21/11 24/23/11 23/24/11
f 23/24/12 24/23/12 26/25/12 25/26/12
f 25/26/13 26/25/13 28/27/13 27/28/13
f 27/28/14 28/27/14 30/29/14 29/30/14
f 29/30/15 30/29/15 32/31/15 31/32/15
f 31/32/16 32/31/16 34/33/16 33/34/16
f 33/34/17 34/33/17 36/35/17 35/36/17
f 35/36/18 36/35/18 38/37/18 37/38/18
f 37/38/19 38/37/19 40/39/19 39/40/19
f 39/40/20 40/39/20 42/41/20 41/42/20
f 41/42/21 42/41/21 44/43/21 43/44/21
f 43/44/22 44/43/22 46/45/22 45/46/22
f 45/46/23 46/45/23 48/47/23 47/48/23
f 47/48/24 48/47/24 50/49/24 49/50/24
f 49/50/25 50/49/25 52/51/25 51/52/25
f 51/52/26 52/51/26 54/53/26 53/54/26
f 53/54/27 54/53/27 56/55/27 55/56/27
f 55/56/28 56/55/28 58/57/28 57/58/28
f 57/58/29 58/57/29 60/59/29 59/60/29
f 59/60/30 60/59/30 62/61/30 61/62/30
f 4/63/31 2/64/31 64/65/31 62/66/31 60/67/31 58/68/31 56/69/31 54/70/31 52/71/31 50/72/31 48/73/31 46/74/31 44/75/31 42/76/31 40/77/31 38/78/31 36/79/31 34/80/31 32/81/31 30/82/31 28/83/31 26/84/31 24/85/31 22/86/31 20/87/31 18/88/31 16/89/31 14/90/31 12/91/31 10/92/31 8/93/31 6/94/31
f 61/62/32 62/61/32 64/95/32 63/96/32
f 63/96/33 64/95/33 2/97/33 1/98/33
f 1/99/34 3/100/34 5/101/34 7/102/34 9/103/34 11/104/34 13/105/34 15/106/34 17/107/34 19/108/34 21/109/34 23/110/34 25/111/34 27/112/34 29/113/34 31/114/34 33/115/34 35/116/34 37/117/34 39/118/34 41/119/34 43/120/34 45/121/34 47/122/34 49/123/34 51/124/34 53/125/34 55/126/34 57/127/34 59/128/34 61/129/34 63/130/34
f 67/58/35 65/131/35 82/131/35 81/58/35
f 67/132/36 68/133/36 72/26/36 71/42/36
f 71/42/31 72/26/31 70/134/31 69/135/31
f 66/136/37 65/137/37 73/137/37 74/136/37
f 67/58/38 71/42/38 69/135/38 65/131/38
f 72/26/39 68/10/39 66/138/39 70/134/39
f 73/131/40 76/135/40 80/135/40 77/131/40
f 65/131/31 69/135/31 76/135/31 73/131/31
f 70/134/37 66/138/37 74/138/37 75/134/37
f 69/135/37 70/134/37 75/134/37 76/135/37
f 80/135/37 79/134/37 78/25/37 77/41/37
f 74/136/41 73/137/41 77/137/41 78/136/41
f 75/134/42 74/138/42 78/138/42 79/134/42
f 76/135/43 75/134/43 79/134/43 80/135/43
f 82/137/34 83/136/34 84/133/34 81/132/34
f 68/133/44 67/132/44 81/132/44 84/133/44
f 65/137/45 66/136/45 83/136/45 82/137/45
f 68/133/46 84/133/46 83/136/46 66/136/46
f 86/138/34 88/10/34 96/10/34 95/138/34
f 87/132/36 88/133/36 92/26/36 91/42/36
f 91/42/31 92/26/31 90/134/31 89/135/31
f 89/135/37 90/134/37 86/25/37 85/41/37
f 87/58/38 91/42/38 89/135/38 85/131/38
f 92/26/39 88/10/39 86/138/39 90/134/39
f 96/133/47 93/132/47 97/132/47 100/133/47
f 87/58/34 85/131/34 94/131/34 93/58/34
f 88/133/34 87/132/34 93/132/34 96/133/34
f 85/41/34 86/25/34 95/25/34 94/41/34
f 99/138/31 100/10/31 104/10/31 103/138/31
f 94/41/48 95/25/48 99/25/48 98/41/48
f 95/138/49 96/10/49 100/10/49 99/138/49
f 93/58/50 94/131/50 98/131/50 97/58/50
f 104/133/36 101/132/36 105/132/36 108/133/36
f 97/58/31 98/131/31 102/131/31 101/58/31
f 100/133/31 97/132/31 101/132/31 104/133/31
f 98/41/31 99/25/31 103/25/31 102/41/31
f 106/41/51 107/25/51 111/25/51 110/41/51
f 102/41/37 103/25/37 107/25/37 106/41/37
f 103/138/39 104/10/39 108/10/39 107/138/39
f 101/58/38 102/131/38 106/131/38 105/58/38
f 111/138/34 112/10/34 116/10/34 115/138/34
f 107/138/52 108/10/52 112/10/52 111/138/52
f 105/58/53 106/131/53 110/131/53 109/58/53
f 108/133/54 105/132/54 109/132/54 112/133/54
f 116/133/37 113/132/37 117/132/37 120/133/37
f 109/58/34 110/131/34 114/131/34 113/58/34
f 112/133/34 109/132/34 113/132/34 116/133/34
f 110/41/34 111/25/34 115/25/34 114/41/34
f 118/137/34 119/136/34 120/133/34 117/132/34
f 114/41/36 115/25/36 119/25/36 118/41/36
f 115/138/38 116/10/38 120/10/38 119/138/38
f 113/58/39 114/131/39 118/131/39 117/58/39
