# Blender 4.0.2
# www.blender.org
mtllib toyota_turret_base.mtl
o Cube
v 1.497849 -1.426764 0.103278
v 0.557078 0.196333 0.103278
v 1.497849 -1.426764 -0.103278
v 0.557078 0.196333 -0.103278
v 1.636513 -1.328372 0.103278
v 0.695743 0.294726 0.103278
v 1.636513 -1.328372 -0.103278
v 0.695743 0.294726 -0.103278
v -1.271004 -1.308930 0.695336
v -0.436632 0.345395 0.514802
v -1.300697 -1.308693 0.491917
v -0.466325 0.345632 0.311383
v -1.128184 -1.402368 0.665073
v -0.293812 0.251957 0.484539
v -1.157878 -1.402130 0.461654
v -0.323505 0.252195 0.281120
v -1.300697 -1.308693 -0.491917
v -0.466325 0.345632 -0.311383
v -1.271004 -1.308930 -0.695336
v -0.436632 0.345395 -0.514802
v -1.157878 -1.402130 -0.461654
v -0.323505 0.252195 -0.281120
v -1.128184 -1.402368 -0.665073
v -0.293812 0.251957 -0.484539
v -0.361781 0.224429 0.771254
v -0.718772 0.227288 0.420528
v -0.720520 0.446801 0.420528
v -0.363529 0.443942 0.771254
v -0.718772 0.227288 -0.420528
v -0.361781 0.224429 -0.771254
v -0.363529 0.443942 -0.771254
v -0.720520 0.446801 -0.420528
v 0.970581 0.213759 0.420528
v 0.613590 0.216618 0.771254
v 0.611841 0.436130 0.771254
v 0.968832 0.433272 0.420528
v 0.613590 0.216618 -0.771254
v 0.970581 0.213759 -0.420528
v 0.968832 0.433272 -0.420528
v 0.611841 0.436130 -0.771254
v -0.185874 0.442519 0.610916
v -0.412820 0.444337 0.333103
v -0.412820 0.444337 -0.333103
v -0.185874 0.442519 -0.610916
v 0.434186 0.437553 -0.610916
v 0.661132 0.435736 -0.333103
v 0.661132 0.435736 0.333103
v 0.434186 0.437553 0.610916
v -0.186528 0.524640 0.610916
v -0.413474 0.526458 0.333103
v -0.413474 0.526458 -0.333103
v -0.186528 0.524640 -0.610916
v 0.433532 0.519674 -0.610916
v 0.660478 0.517857 -0.333103
v 0.660478 0.517857 0.333103
v 0.433532 0.519674 0.610916
vn -0.8652 -0.5015 -0.0000
vn -0.0000 -0.0000 -1.0000
vn 0.8652 0.5015 -0.0000
vn -0.0000 -0.0000 1.0000
vn 0.5787 -0.8155 -0.0000
vn -0.5787 0.8155 -0.0000
vn -0.8797 0.4577 0.1289
vn -0.2083 -0.0017 -0.9781
vn 0.8797 -0.4577 -0.1289
vn 0.2083 0.0017 0.9781
vn -0.5344 -0.8417 0.0770
vn 0.5344 0.8417 -0.0770
vn -0.8797 0.4577 -0.1289
vn 0.2083 0.0017 -0.9781
vn 0.8797 -0.4577 0.1289
vn -0.2083 -0.0017 0.9781
vn -0.5344 -0.8417 -0.0770
vn 0.5344 0.8417 0.0770
vn 1.0000 0.0080 -0.0000
vn 0.0080 1.0000 -0.0000
vn -1.0000 -0.0080 -0.0000
vn -0.7008 -0.0056 0.7133
vn -0.7008 -0.0056 -0.7133
vn 0.7008 0.0056 -0.7133
vn 0.7008 0.0056 0.7133
vn -0.0080 -1.0000 -0.0000
vn 0.7744 0.0062 -0.6326
vn -0.7744 -0.0062 0.6326
vn 0.7744 0.0062 0.6326
vn -0.7744 -0.0062 -0.6326
vt 0.375000 0.000000
vt 0.625000 0.000000
vt 0.625000 0.250000
vt 0.375000 0.250000
vt 0.625000 0.500000
vt 0.375000 0.500000
vt 0.625000 0.750000
vt 0.375000 0.750000
vt 0.625000 1.000000
vt 0.375000 1.000000
vt 0.125000 0.500000
vt 0.125000 0.750000
vt 0.875000 0.500000
vt 0.875000 0.750000
vt 0.375000 0.806844
vt 0.625000 0.806844
vt 0.625000 0.943156
vt 0.375000 0.943156
vt 0.375000 0.556844
vt 0.625000 0.556843
vt 0.625000 0.693157
vt 0.375000 0.693157
vt 0.625000 0.306843
vt 0.625000 0.193157
vt 0.375000 0.056843
vt 0.625000 0.056843
vt 0.375000 0.193157
vt 0.375000 0.306843
vt 0.625000 0.443157
vt 0.375000 0.443157
vt 0.125000 0.556844
vt 0.181843 0.500000
vt 0.318157 0.500000
vt 0.375000 0.556843
vt 0.318157 0.750000
vt 0.181843 0.750000
vt 0.125000 0.693157
vt 0.625000 0.556844
vt 0.681843 0.500000
vt 0.818157 0.500000
vt 0.875000 0.556843
vt 0.875000 0.693157
vt 0.818156 0.750000
vt 0.681843 0.750000
s 0
f 1/1/1 2/2/1 4/3/1 3/4/1
f 3/4/2 4/3/2 8/5/2 7/6/2
f 7/6/3 8/5/3 6/7/3 5/8/3
f 5/8/4 6/7/4 2/9/4 1/10/4
f 3/11/5 7/6/5 5/8/5 1/12/5
f 8/5/6 4/13/6 2/14/6 6/7/6
f 9/1/7 10/2/7 12/3/7 11/4/7
f 11/4/8 12/3/8 16/5/8 15/6/8
f 15/6/9 16/5/9 14/7/9 13/8/9
f 13/8/10 14/7/10 10/9/10 9/10/10
f 11/11/11 15/6/11 13/8/11 9/12/11
f 16/5/12 12/13/12 10/14/12 14/7/12
f 17/1/13 18/2/13 20/3/13 19/4/13
f 19/4/14 20/3/14 24/5/14 23/6/14
f 23/6/15 24/5/15 22/7/15 21/8/15
f 21/8/16 22/7/16 18/9/16 17/10/16
f 19/11/17 23/6/17 21/8/17 17/12/17
f 24/5/18 20/13/18 18/14/18 22/7/18
f 34/15/4 35/16/4 28/17/4 25/18/4
f 38/19/19 39/20/19 36/21/19 33/22/19
f 31/23/20 32/24/20 43/24/20 44/23/20
f 26/25/21 27/26/21 32/24/21 29/27/21
f 30/28/2 31/23/2 40/29/2 37/30/2
f 25/1/22 28/2/22 27/26/22 26/25/22
f 31/23/23 30/28/23 29/27/23 32/24/23
f 39/20/24 38/19/24 37/30/24 40/29/24
f 35/16/25 34/15/25 33/22/25 36/21/25
f 29/31/26 30/32/26 37/33/26 38/34/26 33/22/26 34/35/26 25/36/26 26/37/26
f 46/20/27 45/29/27 53/29/27 54/20/27
f 27/26/20 28/2/20 41/2/20 42/26/20
f 36/21/20 39/20/20 46/20/20 47/21/20
f 32/24/20 27/26/20 42/26/20 43/24/20
f 40/29/20 31/23/20 44/23/20 45/29/20
f 35/16/20 36/21/20 47/21/20 48/16/20
f 28/17/20 35/16/20 48/16/20 41/17/20
f 39/20/20 40/29/20 45/29/20 46/20/20
f 54/38/20 53/39/20 52/40/20 51/41/20 50/42/20 49/43/20 56/44/20 55/21/20
f 42/26/28 41/2/28 49/2/28 50/26/28
f 45/29/2 44/23/2 52/23/2 53/29/2
f 41/17/4 48/16/4 56/16/4 49/17/4
f 48/16/29 47/21/29 55/21/29 56/16/29
f 44/23/30 43/24/30 51/24/30 52/23/30
f 47/21/19 46/20/19 54/20/19 55/21/19
f 43/24/21 42/26/21 50/26/21 51/24/21
