# Blender 3.5.1
# www.blender.org
mtllib truck.mtl
o Cube.034
v -0.509973 -0.172142 2.197138
v -0.509973 0.172142 2.315534
v -0.509973 -0.172142 -2.315534
v -0.509973 0.172142 -2.315534
v 0.509973 -0.172142 2.197138
v 0.509973 0.172142 2.315534
v 0.509973 -0.172142 -2.315534
v 0.509973 0.172142 -2.315534
v -0.853612 0.215002 -2.315534
v -0.853612 -0.215002 -2.315534
v 0.853612 -0.215002 -2.315534
v 0.853612 0.215002 -2.315534
v -0.853612 0.215002 -2.377698
v -0.853612 -0.215002 -2.377698
v 0.853612 -0.215002 -2.377698
v 0.853612 0.215002 -2.377698
v -0.795934 0.005382 2.192289
v -0.795934 1.597251 2.004313
v -0.795934 0.005382 1.040603
v -0.795934 1.597251 1.040603
v 0.795934 0.005382 2.192289
v 0.795934 1.597251 2.004313
v 0.795934 0.005382 1.040603
v 0.795934 1.597251 1.040603
v -0.625176 1.597251 1.900937
v -0.625176 1.597251 1.143980
v 0.625176 1.597251 1.143980
v 0.625176 1.597251 1.900937
v -0.625176 1.695084 1.757196
v -0.625176 1.695084 1.143980
v 0.625176 1.695084 1.143980
v 0.625176 1.695084 1.757196
v -0.795934 0.801316 2.098301
v 0.795934 0.801316 2.098301
v 0.000000 0.005382 2.192289
v 0.000000 1.597251 2.004313
v 0.000000 0.801316 2.098301
v 0.603174 0.704936 2.109682
v 0.603174 0.101762 2.180907
v 0.000000 0.101762 2.180907
v -0.603174 0.101762 2.180907
v -0.603174 0.704936 2.109682
v 0.000000 0.704936 2.109682
v 0.562220 0.714332 2.295124
v 0.562220 0.152112 2.361513
v 0.000000 0.152112 2.361513
v -0.562220 0.152112 2.361513
v -0.562220 0.714332 2.295124
v 0.000000 0.714332 2.295124
v -0.683682 0.857442 2.091673
v -0.683682 1.541124 2.010941
v 0.000000 1.541124 2.010941
v 0.683682 1.541124 2.010941
v 0.683682 0.857442 2.091673
v 0.000000 0.857442 2.091673
v -0.683682 0.846179 2.022664
v -0.683682 1.529861 1.941932
v 0.000000 1.529861 1.941932
v 0.683682 1.529861 1.941932
v 0.683682 0.846179 2.022664
v 0.000000 0.846179 2.022664
v 0.795934 0.801316 1.040603
v 0.795934 0.005382 1.616446
v 0.795934 1.597251 1.522458
v 0.795934 0.403349 2.145295
v 0.795934 1.199283 2.051307
v 0.795934 0.801316 1.040603
v 0.795934 0.005382 1.040603
v 0.795934 0.005382 1.616446
v 0.795934 1.597251 1.522458
v 0.795934 1.597251 2.004313
v 0.795934 0.403349 2.145295
v 0.795934 0.005382 2.192289
v 0.795934 1.199283 2.051307
v 0.795934 0.801316 2.098301
v 0.795934 1.597251 1.040603
v -0.795934 0.005382 1.616446
v -0.795934 1.199283 2.051307
v -0.795934 1.597251 1.522458
v -0.795934 0.801316 1.040603
v -0.795934 0.403349 2.145295
v -0.795934 1.209758 1.984187
v -0.795934 1.544880 1.944614
v -0.795934 1.544880 1.538851
v -0.795934 1.544880 1.133088
v -0.795934 0.874635 2.023760
v -0.795934 0.874635 1.133088
v -0.795934 1.209758 1.984187
v -0.795934 1.544880 1.944614
v -0.795934 1.544880 1.538851
v -0.795934 1.544880 1.133088
v -0.795934 0.874635 2.023760
v -0.795934 0.874635 1.133088
v 0.795934 1.556363 1.535256
v 0.795934 1.556363 1.957704
v 0.795934 1.207461 1.998904
v 0.795934 0.858558 2.040104
v 0.795934 1.556363 1.112809
v 0.795934 0.858558 1.112809
v -0.746988 1.209758 1.984187
v -0.746988 1.544880 1.944614
v -0.746988 1.544880 1.538851
v -0.746988 1.544880 1.133088
v -0.746988 0.874635 2.023760
v -0.746988 0.874635 1.133088
v 0.746988 1.556363 1.535256
v 0.746988 1.556363 1.957704
v 0.746988 1.207461 1.998904
v 0.746988 0.858558 2.040104
v 0.746988 1.556363 1.112809
v 0.746988 0.858558 1.112809
v 0.466994 0.666719 2.300746
v 0.466994 0.199725 2.355891
v 0.000000 0.199725 2.355891
v -0.466994 0.199725 2.355891
v -0.466994 0.666719 2.300746
v 0.000000 0.666719 2.300746
v 0.466994 0.433222 2.328319
v 0.233497 0.199725 2.355891
v -0.466994 0.433222 2.328319
v -0.233497 0.199725 2.355891
v -0.233497 0.666719 2.300746
v 0.233497 0.666719 2.300746
v 0.466994 0.546305 2.331811
v -0.466994 0.663054 2.318025
v -0.350246 0.196060 2.373169
v 0.466994 0.316473 2.342105
v 0.350246 0.199725 2.355891
v -0.466994 0.549971 2.314533
v -0.116749 0.199725 2.355891
v -0.350246 0.666719 2.300746
v 0.116749 0.666719 2.300746
v -0.000000 0.196060 2.373169
v 0.466994 0.549970 2.314533
v 0.116749 0.199725 2.355891
v -0.466994 0.316473 2.342105
v -0.350246 0.199725 2.355891
v -0.116749 0.666719 2.300746
v 0.350246 0.666719 2.300746
v -0.466994 0.312808 2.359383
v -0.350246 0.663054 2.318025
v 0.350246 0.196060 2.373169
v 0.466994 0.196060 2.373169
v 0.116749 0.663054 2.318025
v -0.116749 0.663054 2.318025
v 0.233497 0.196060 2.373169
v 0.116749 0.196060 2.373169
v -0.233497 0.663054 2.318025
v -0.233497 0.196060 2.373169
v -0.000000 0.663054 2.318025
v -0.466994 0.429557 2.345597
v -0.116749 0.196060 2.373169
v 0.466994 0.312808 2.359383
v -0.466994 0.546305 2.331811
v 0.466994 0.429557 2.345597
v 0.350246 0.663054 2.318025
v 0.233497 0.663054 2.318025
v 0.466994 0.663054 2.318025
v -0.466994 0.196060 2.373169
v -0.884584 0.031165 0.693879
v -0.884584 0.260414 0.693879
v -0.884584 0.031165 -2.174886
v -0.884584 0.260414 -2.174886
v 0.884584 0.031165 0.693879
v 0.884584 0.260414 0.693879
v 0.884584 0.031165 -2.174886
v 0.884584 0.260414 -2.174886
v -0.832039 0.260414 0.608676
v -0.832039 0.260414 -2.089682
v 0.832039 0.260414 -2.089682
v 0.832039 0.260414 0.608676
v -0.832039 0.219031 0.608676
v -0.832039 0.219031 -2.089682
v 0.832039 0.219031 -2.089682
v 0.832039 0.219031 0.608676
vn -1.0000 -0.0000 -0.0000
vn -0.0000 -0.0000 1.0000
vn 1.0000 -0.0000 -0.0000
vn -0.0000 -0.3252 0.9456
vn -0.0000 -1.0000 -0.0000
vn -0.0000 1.0000 -0.0000
vn -0.0000 -0.0000 -1.0000
vn -0.0000 0.1173 0.9931
vn -0.0000 0.8267 0.5627
vn -0.0000 -0.9633 0.2685
vn -0.0000 0.9987 -0.0506
vn -0.9764 0.0253 0.2144
vn 0.9764 0.0253 0.2144
vn -0.0000 0.9869 -0.1611
vn -0.0000 -0.9869 0.1611
vn -0.0000 -0.1173 -0.9931
vn -0.0000 0.9782 0.2075
vn -0.0000 -0.9782 -0.2075
vt 0.375000 0.000000
vt 0.375000 1.000000
vt 0.125000 0.750000
vt 0.625000 0.000000
vt 0.625000 1.000000
vt 0.875000 0.750000
vt 0.375000 0.250000
vt 0.125000 0.500000
vt 0.875000 0.500000
vt 0.625000 0.250000
vt 0.375000 0.750000
vt 0.625000 0.750000
vt 0.375000 0.500000
vt 0.625000 0.500000
vt 0.875000 0.500000
vt 0.625000 0.250000
vt 0.375000 0.250000
vt 0.125000 0.500000
vt 0.375000 0.500000
vt 0.625000 0.500000
vt 0.875000 0.500000
vt 0.625000 0.250000
vt 0.375000 0.250000
vt 0.125000 0.500000
vt 0.375000 0.500000
vt 0.625000 0.500000
vt 0.125000 0.750000
vt 0.375000 0.000000
vt 0.625000 1.000000
vt 0.625000 0.000000
vt 0.125000 0.500000
vt 0.375000 0.250000
vt 0.625000 0.250000
vt 0.375000 0.750000
vt 0.625000 0.750000
vt 0.375000 0.500000
vt 0.625000 0.500000
vt 0.625000 0.000000
vt 0.625000 1.000000
vt 0.625000 0.250000
vt 0.625000 0.500000
vt 0.625000 0.750000
vt 0.875000 0.750000
vt 0.625000 0.000000
vt 0.625000 1.000000
vt 0.875000 0.500000
vt 0.625000 0.250000
vt 0.625000 0.500000
vt 0.625000 0.750000
vt 0.500000 1.000000
vt 0.500000 0.000000
vt 0.500000 0.750000
vt 0.250000 0.750000
vt 0.625000 0.875000
vt 0.500000 0.875000
vt 0.500000 0.750000
vt 0.375000 0.750000
vt 0.250000 0.750000
vt 0.125000 0.750000
vt 0.375000 0.000000
vt 0.500000 1.000000
vt 0.500000 0.000000
vt 0.500000 0.875000
vt 0.500000 0.750000
vt 0.375000 0.750000
vt 0.250000 0.750000
vt 0.375000 0.000000
vt 0.125000 0.750000
vt 0.500000 0.000000
vt 0.500000 1.000000
vt 0.500000 0.875000
vt 0.500000 1.000000
vt 0.500000 0.000000
vt 0.625000 1.000000
vt 0.625000 0.000000
vt 0.625000 0.875000
vt 0.625000 0.750000
vt 0.500000 0.750000
vt 0.500000 0.875000
vt 0.500000 1.000000
vt 0.500000 0.000000
vt 0.625000 1.000000
vt 0.625000 0.000000
vt 0.625000 0.875000
vt 0.625000 0.750000
vt 0.500000 0.750000
vt 0.500000 0.875000
vt 0.500000 0.500000
vt 0.375000 0.625000
vt 0.625000 0.625000
vt 0.437500 0.750000
vt 0.562500 0.750000
vt 0.500000 0.500000
vt 0.375000 0.500000
vt 0.375000 0.625000
vt 0.625000 0.625000
vt 0.625000 0.750000
vt 0.437500 0.750000
vt 0.375000 0.750000
vt 0.562500 0.750000
vt 0.500000 0.750000
vt 0.625000 0.500000
vt 0.125000 0.625000
vt 0.375000 0.125000
vt 0.562500 0.000000
vt 0.625000 0.125000
vt 0.500000 0.250000
vt 0.437500 0.000000
vt 0.562500 0.000000
vt 0.625000 0.000000
vt 0.625000 0.125000
vt 0.625000 0.250000
vt 0.500000 0.000000
vt 0.500000 0.250000
vt 0.562500 0.000000
vt 0.625000 0.000000
vt 0.625000 0.125000
vt 0.625000 0.250000
vt 0.500000 0.000000
vt 0.500000 0.250000
vt 0.625000 0.625000
vt 0.625000 0.750000
vt 0.562500 0.750000
vt 0.500000 0.750000
vt 0.625000 0.500000
vt 0.500000 0.500000
vt 0.562500 0.000000
vt 0.625000 0.000000
vt 0.625000 0.125000
vt 0.625000 0.250000
vt 0.500000 0.000000
vt 0.500000 0.250000
vt 0.625000 0.625000
vt 0.625000 0.750000
vt 0.562500 0.750000
vt 0.500000 0.750000
vt 0.625000 0.500000
vt 0.500000 0.500000
vt 0.500000 0.750000
vt 0.375000 0.750000
vt 0.250000 0.750000
vt 0.375000 0.000000
vt 0.125000 0.750000
vt 0.500000 0.000000
vt 0.500000 1.000000
vt 0.500000 0.875000
vt 0.437500 0.750000
vt 0.312500 0.750000
vt 0.437500 0.000000
vt 0.187500 0.750000
vt 0.500000 0.937500
vt 0.500000 0.812500
vt 0.468750 0.750000
vt 0.500000 0.000000
vt 0.500000 1.000000
vt 0.375000 0.968750
vt 0.156250 0.750000
vt 0.406250 0.750000
vt 0.343750 0.750000
vt 0.468750 0.000000
vt 0.218750 0.750000
vt 0.500000 0.968750
vt 0.500000 0.843750
vt 0.375000 0.875000
vt 0.250000 0.750000
vt 0.468750 0.750000
vt 0.281250 0.750000
vt 0.406250 0.000000
vt 0.156250 0.750000
vt 0.500000 0.906250
vt 0.500000 0.781250
vt 0.406250 0.000000
vt 0.406250 1.000000
vt 0.500000 0.968750
vt 0.343750 0.750000
vt 0.375000 0.781250
vt 0.375000 0.750000
vt 0.500000 0.843750
vt 0.500000 0.906250
vt 0.312500 0.750000
vt 0.375000 0.812500
vt 0.281250 0.750000
vt 0.375000 0.843750
vt 0.500000 0.937500
vt 0.375000 0.937500
vt 0.187500 0.750000
vt 0.500000 0.875000
vt 0.437500 1.000000
vt 0.437500 0.000000
vt 0.375000 0.906250
vt 0.218750 0.750000
vt 0.406250 0.750000
vt 0.468750 1.000000
vt 0.468750 0.000000
vt 0.437500 0.750000
vt 0.500000 0.781250
vt 0.500000 0.812500
vt 0.500000 0.750000
vt 0.375000 0.000000
vt 0.125000 0.750000
vt 0.375000 1.000000
vt 0.375000 0.000000
vt 0.375000 1.000000
vt 0.125000 0.750000
vt 0.625000 1.000000
vt 0.625000 0.000000
vt 0.375000 0.250000
vt 0.125000 0.500000
vt 0.625000 0.250000
vt 0.375000 0.750000
vt 0.625000 0.750000
vt 0.375000 0.500000
vt 0.625000 0.500000
vt 0.625000 0.000000
vt 0.625000 1.000000
vt 0.625000 0.250000
vt 0.625000 0.500000
vt 0.625000 0.750000
vt 0.875000 0.750000
vt 0.625000 0.000000
vt 0.625000 1.000000
vt 0.875000 0.500000
vt 0.625000 0.250000
vt 0.625000 0.500000
vt 0.625000 0.750000
s 0
f 1/1/1 2/4/1 4/10/1 3/7/1
f 4/9/2 8/14/2 12/20/2 9/15/2
f 7/13/3 8/14/3 6/12/3 5/11/3
f 5/11/4 6/12/4 2/5/4 1/2/4
f 3/8/5 7/13/5 5/11/5 1/3/5
f 8/14/6 4/9/6 2/6/6 6/12/6
f 9/15/6 12/20/6 16/26/6 13/21/6
f 3/7/2 4/10/2 9/16/2 10/17/2
f 8/14/2 7/13/2 11/19/2 12/20/2
f 7/13/2 3/8/2 10/18/2 11/19/2
f 14/23/7 13/22/7 16/26/7 15/25/7
f 10/17/1 9/16/1 13/22/1 14/23/1
f 12/20/3 11/19/3 15/25/3 16/26/3
f 11/19/5 10/18/5 14/24/5 15/25/5
f 79/106/1 20/33/1 85/112/1 84/111/1
f 19/32/7 80/107/7 20/33/7 24/37/7 62/88/7 23/36/7
f 66/92/6 34/52/6 75/101/6 74/100/6
f 36/54/8 18/29/8 51/74/8 52/76/8
f 19/31/5 23/36/5 63/89/5 21/34/5 35/53/5 17/27/5 77/103/5
f 24/37/6 20/33/6 26/40/6 27/41/6
f 28/42/3 27/41/3 31/48/3 32/49/3
f 22/35/6 64/90/6 24/37/6 27/41/6 28/42/6
f 20/33/6 79/106/6 18/30/6 25/38/6 26/40/6
f 18/29/6 36/54/6 22/35/6 28/42/6 25/39/6
f 31/48/6 30/46/6 29/43/6 32/49/6
f 26/40/1 25/38/1 29/44/1 30/47/1
f 25/39/9 28/42/9 32/49/9 29/45/9
f 27/41/7 26/40/7 30/47/7 31/48/7
f 34/52/8 37/55/8 43/63/8 38/56/8
f 33/51/8 81/108/8 17/28/8 41/60/8 42/62/8
f 37/55/8 34/52/8 54/78/8 55/79/8
f 40/58/10 39/57/10 45/65/10 46/66/10
f 41/59/10 40/58/10 46/66/10 47/68/10
f 21/34/8 65/91/8 34/52/8 38/56/8 39/57/8
f 37/55/8 33/50/8 42/61/8 43/63/8
f 35/53/8 21/34/8 39/57/8 40/58/8
f 17/27/8 35/53/8 40/58/8 41/59/8
f 45/65/8 44/64/8 112/139/8 134/166/8 118/147/8 127/158/8 113/140/8
f 48/69/8 47/67/8 115/142/8 136/168/8 120/149/8 129/160/8 116/144/8
f 43/63/11 42/61/11 48/70/11 49/71/11
f 42/62/12 41/60/12 47/67/12 48/69/12
f 39/57/13 38/56/13 44/64/13 45/65/13
f 38/56/11 43/63/11 49/71/11 44/64/11
f 50/72/14 55/79/14 61/87/14 56/80/14
f 52/76/15 51/74/15 57/82/15 58/84/15
f 22/35/8 36/54/8 52/76/8 53/77/8
f 34/52/8 66/92/8 22/35/8 53/77/8 54/78/8
f 18/30/8 78/105/8 33/51/8 50/73/8 51/75/8
f 33/50/8 37/55/8 55/79/8 50/72/8
f 61/87/8 58/84/8 57/82/8 56/80/8
f 60/86/8 59/85/8 58/84/8 61/87/8
f 54/78/1 53/77/1 59/85/1 60/86/1
f 51/75/3 50/73/3 56/81/3 57/83/3
f 55/79/14 54/78/14 60/86/14 61/87/14
f 53/77/15 52/76/15 58/84/15 59/85/15
f 74/100/3 75/101/3 97/124/3 96/123/3
f 34/52/6 65/91/6 72/98/6 75/101/6
f 65/91/6 21/34/6 73/99/6 72/98/6
f 62/88/6 24/37/6 76/102/6 67/93/6
f 23/36/6 62/88/6 67/93/6 68/94/6
f 22/35/6 66/92/6 74/100/6 71/97/6
f 21/34/6 63/89/6 69/95/6 73/99/6
f 63/89/6 23/36/6 68/94/6 69/95/6
f 24/37/6 64/90/6 70/96/6 76/102/6
f 64/90/6 22/35/6 71/97/6 70/96/6
f 68/94/3 67/93/3 75/101/3 72/98/3 73/99/3 69/95/3
f 17/28/1 81/108/1 33/51/1 80/107/1 19/32/1 77/104/1
f 87/114/6 86/113/6 92/119/6 93/120/6
f 18/30/1 79/106/1 84/111/1 83/110/1
f 80/107/1 33/51/1 86/113/1 87/114/1
f 20/33/1 80/107/1 87/114/1 85/112/1
f 78/105/1 18/30/1 83/110/1 82/109/1
f 33/51/1 78/105/1 82/109/1 86/113/1
f 91/118/2 93/120/2 105/132/2 103/130/2
f 83/110/6 84/111/6 90/117/6 89/116/6
f 84/111/6 85/112/6 91/118/6 90/117/6
f 85/112/6 87/114/6 93/120/6 91/118/6
f 86/113/6 82/109/6 88/115/6 92/119/6
f 82/109/6 83/110/6 89/116/6 88/115/6
f 99/126/2 98/125/2 110/137/2 111/138/2
f 70/96/3 71/97/3 95/122/3 94/121/3
f 75/101/3 67/93/3 99/126/3 97/124/3
f 71/97/3 74/100/3 96/123/3 95/122/3
f 76/102/3 70/96/3 94/121/3 98/125/3
f 67/93/3 76/102/3 98/125/3 99/126/3
f 105/132/1 104/131/1 100/127/1 101/128/1 102/129/1 103/130/1
f 111/138/3 110/137/3 106/133/3 107/134/3 108/135/3 109/136/3
f 90/117/5 91/118/5 103/130/5 102/129/5
f 98/125/5 94/121/5 106/133/5 110/137/5
f 93/120/6 92/119/6 104/131/6 105/132/6
f 94/121/5 95/122/5 107/134/5 106/133/5
f 92/119/16 88/115/16 100/127/16 104/131/16
f 95/122/16 96/123/16 108/135/16 107/134/16
f 96/123/16 97/124/16 109/136/16 108/135/16
f 89/116/5 90/117/5 102/129/5 101/128/5
f 97/124/6 99/126/6 111/138/6 109/136/6
f 88/115/16 89/116/16 101/128/16 100/127/16
f 127/158/3 118/147/3 155/195/3 153/192/3
f 44/64/8 49/71/8 117/146/8 132/163/8 123/152/8 139/171/8 112/139/8
f 47/68/8 46/66/8 114/141/8 130/161/8 121/150/8 137/169/8 115/143/8
f 46/66/8 45/65/8 113/140/8 128/159/8 119/148/8 135/167/8 114/141/8
f 49/71/8 48/70/8 116/145/8 131/162/8 122/151/8 138/170/8 117/146/8
f 123/152/17 132/163/17 144/178/17 157/197/17
f 121/150/18 130/161/18 152/191/18 149/186/18
f 112/139/17 139/171/17 156/196/17 158/198/17
f 119/148/18 128/159/18 142/175/18 146/180/18
f 136/168/1 115/142/1 159/199/1 140/172/1
f 120/149/1 136/168/1 140/172/1 151/189/1
f 134/166/3 112/139/3 158/198/3 124/153/3
f 139/171/17 123/152/17 157/197/17 156/196/17
f 118/147/3 134/166/3 124/153/3 155/195/3
f 135/167/18 119/148/18 146/180/18 147/182/18
f 114/141/18 135/167/18 147/182/18 133/165/18
f 116/144/1 129/160/1 154/194/1 125/154/1
f 117/146/17 138/170/17 145/179/17 150/187/17
f 128/159/18 113/140/18 143/177/18 142/175/18
f 115/143/18 137/169/18 126/157/18 159/200/18
f 141/174/8 125/155/8 154/193/8 151/188/8 140/173/8 159/201/8 126/156/8 149/185/8 152/190/8 133/164/8 147/183/8 146/181/8 142/176/8 143/177/8 153/192/8 155/195/8 124/153/8 158/198/8 156/196/8 157/197/8 144/178/8 150/187/8 145/179/8 148/184/8
f 113/140/3 127/158/3 153/192/3 143/177/3
f 138/170/17 122/151/17 148/184/17 145/179/17
f 137/169/18 121/150/18 149/186/18 126/157/18
f 122/151/17 131/162/17 141/174/17 148/184/17
f 132/163/17 117/146/17 150/187/17 144/178/17
f 130/161/18 114/141/18 133/165/18 152/191/18
f 131/162/17 116/145/17 125/155/17 141/174/17
f 129/160/1 120/149/1 151/189/1 154/194/1
f 160/202/1 161/206/1 163/209/1 162/207/1
f 162/207/7 163/209/7 167/213/7 166/212/7
f 166/212/3 167/213/3 165/211/3 164/210/3
f 164/210/2 165/211/2 161/205/2 160/203/2
f 162/208/5 166/212/5 164/210/5 160/204/5
f 161/205/6 165/211/6 171/218/6 168/215/6
f 171/218/1 170/217/1 174/224/1 175/225/1
f 167/213/6 163/209/6 169/216/6 170/217/6
f 165/211/6 167/213/6 170/217/6 171/218/6
f 163/209/6 161/206/6 168/214/6 169/216/6
f 174/224/6 173/222/6 172/219/6 175/225/6
f 169/216/3 168/214/3 172/220/3 173/223/3
f 168/215/7 171/218/7 175/225/7 172/221/7
f 170/217/2 169/216/2 173/223/2 174/224/2
