# Blender 3.5.1
# www.blender.org
mtllib creature_2_body.mtl
o Icosphere.002
v 0.003743 -0.141607 -0.001000
v 0.107143 -0.173027 0.140405
v -0.043286 -0.075268 0.225398
v -0.138162 -0.088357 -0.020279
v -0.049872 -0.073190 -0.221845
v 0.108859 -0.157372 -0.152499
v 0.037387 0.087816 0.253608
v -0.122525 0.019767 0.172185
v -0.118767 0.028307 -0.164661
v 0.054855 0.029884 -0.250985
v 0.122638 0.051028 0.042163
v -0.068246 0.094813 0.145258
v -0.028867 -0.127967 0.133392
v 0.067868 -0.140287 0.083676
v 0.039305 -0.090139 0.214956
v 0.128671 -0.087626 -0.018233
v 0.069427 -0.131101 -0.083452
v -0.114407 -0.124674 -0.010645
v -0.139192 -0.152739 0.129554
v -0.028609 -0.127067 -0.133727
v -0.113428 -0.156609 -0.172530
v 0.041621 -0.083427 -0.213407
v 0.139952 -0.016985 0.097020
v 0.128236 0.002864 -0.072051
v -0.011758 -0.000469 0.270207
v 0.086347 0.000528 0.211965
v -0.146864 -0.020872 0.087892
v -0.083244 -0.078432 0.222961
v -0.101090 -0.019987 -0.219448
v -0.141819 -0.025190 -0.066899
v 0.093843 -0.011544 -0.214610
v 0.000759 -0.020339 -0.266275
v 0.066444 0.101785 0.174228
v -0.059651 0.088672 0.286535
v -0.120788 0.039751 0.028382
v -0.010874 0.016557 -0.276886
v 0.087767 0.067256 -0.127748
v -0.056573 0.114617 0.215104
v 0.050492 0.119300 0.138792
v -0.088530 0.079983 0.189556
v -0.078946 0.063209 -0.137658
v 0.021242 0.067892 -0.170092
v 0.050545 0.105652 0.226908
v 0.160072 0.116533 0.281308
v -0.043477 0.121160 0.236264
v -0.156461 0.125670 0.277410
vn -0.0853 -0.9931 0.0801
vn -0.0411 -0.8774 -0.4779
vn -0.1467 -0.9871 0.0646
vn -0.1354 -0.9879 -0.0752
vn 0.0171 -0.9934 -0.1130
vn 0.9797 -0.1988 0.0259
vn 0.0148 -0.5184 0.8550
vn -0.9969 -0.0696 -0.0368
vn -0.3323 -0.2793 -0.9008
vn 0.4193 -0.3189 -0.8500
vn 0.9000 -0.0696 0.4303
vn -0.0121 -0.5101 0.8600
vn -0.9963 -0.0800 -0.0302
vn -0.3937 -0.3406 -0.8538
vn 0.9721 0.0002 -0.2346
vn 0.0599 -0.2933 0.9541
vn -0.8751 0.4300 0.2221
vn -0.6380 0.7683 -0.0522
vn -0.0137 0.9028 -0.4299
vn 0.6432 0.7634 -0.0591
vn -0.2073 0.9680 -0.1415
vn 0.1201 0.9774 -0.1740
vn 0.2233 0.9147 -0.3370
vn -0.0812 0.9909 -0.1076
vn -0.1673 0.9073 -0.3858
vn -0.3896 0.7989 -0.4582
vn -0.6681 0.7418 -0.0576
vn -0.6529 0.7552 -0.0578
vn -0.8763 0.4786 0.0559
vn -0.7008 0.7084 -0.0838
vn -0.7857 0.5915 0.1810
vn 0.4828 -0.8193 -0.3093
vn -0.2086 0.9495 -0.2344
vn 0.2127 0.9106 0.3543
vn 0.7080 0.7056 0.0301
vn 0.8885 0.4368 -0.1406
vn 0.9026 0.3484 -0.2530
vn 0.8160 0.4554 -0.3560
vn 0.3874 -0.1399 -0.9112
vn -0.3898 -0.3659 -0.8451
vn -0.6005 0.4938 -0.6290
vn -0.9370 0.3481 -0.0304
vn -0.9317 0.3611 -0.0404
vn -0.8989 0.4354 0.0496
vn -0.8539 -0.0753 0.5149
vn -0.2655 -0.3099 0.9130
vn 0.3213 -0.0008 0.9470
vn 0.8734 0.3112 0.3745
vn 0.8793 0.3082 0.3631
vn 0.8871 0.4048 0.2219
vn 0.4866 -0.2713 -0.8305
vn 0.4784 -0.3610 -0.8005
vn -0.0013 -0.6428 -0.7661
vn -0.9640 -0.0586 -0.2594
vn -0.9661 -0.0013 -0.2580
vn -0.9861 -0.1317 -0.1011
vn -0.9171 -0.1841 0.3535
vn -0.8850 0.0927 0.4563
vn 0.0251 -0.7896 0.6131
vn 0.5076 -0.1222 0.8529
vn 0.4984 -0.2310 0.8356
vn 0.5522 -0.2604 0.7920
vn 0.9759 0.2142 -0.0425
vn 0.9965 -0.0390 -0.0736
vn 0.9915 -0.0628 -0.1137
vn -0.6847 -0.7193 -0.1174
vn 0.1514 -0.9171 -0.3688
vn -0.0487 -0.8573 -0.5124
vn 0.4860 -0.6885 -0.5382
vn 0.2447 -0.9510 0.1891
vn -0.8446 -0.5263 0.0987
vn -0.7776 -0.5757 -0.2527
vn 0.2216 -0.9630 -0.1536
vn 0.1716 -0.8430 0.5098
vn 0.1710 -0.8844 0.4342
vn 0.6177 -0.7856 -0.0374
vn 0.0915 -0.9944 -0.0538
vn -0.0956 -0.8702 0.4834
vn 0.0719 -0.9264 0.3695
vn -0.7215 -0.6845 0.1045
vn 0.1098 0.9087 -0.4028
vn 0.0292 0.9991 -0.0293
vn 0.0974 0.9860 -0.1353
vn -0.4393 -0.6835 -0.5830
vt 0.181819 0.000000
vt 0.909091 0.000000
vt 0.727273 0.000000
vt 0.545455 0.000000
vt 0.363637 0.000000
vt 0.272728 0.157461
vt 1.000000 0.157461
vt 0.090910 0.157461
vt 0.818182 0.157461
vt 0.636364 0.157461
vt 0.454546 0.157461
vt 0.181819 0.314921
vt 0.000000 0.314921
vt 0.909091 0.314921
vt 0.727273 0.314921
vt 0.545455 0.314921
vt 0.363637 0.314921
vt 0.454546 0.472382
vt 0.636364 0.472382
vt 0.818182 0.472382
vt 0.090910 0.472382
vt 0.272728 0.472382
vt 0.954545 0.078731
vt 0.136365 0.078731
vt 0.318182 0.078731
vt 0.227273 0.078731
vt 0.181819 0.157461
vt 0.363637 0.157461
vt 0.500000 0.078731
vt 0.409092 0.078731
vt 0.772727 0.078731
vt 0.863636 0.078731
vt 0.909091 0.157461
vt 0.590909 0.078731
vt 0.681818 0.078731
vt 0.727273 0.157461
vt 0.545455 0.157461
vt 0.318182 0.236191
vt 0.409092 0.236191
vt 0.136365 0.236191
vt 0.227273 0.236191
vt 0.863636 0.236191
vt 0.045455 0.236191
vt 0.954545 0.236191
vt 0.681818 0.236191
vt 0.772727 0.236191
vt 0.500000 0.236191
vt 0.590909 0.236191
vt 0.272728 0.314921
vt 0.090910 0.314921
vt 0.818182 0.314921
vt 0.636364 0.314921
vt 0.454546 0.314921
vt 0.227273 0.393651
vt 0.136365 0.393651
vt 0.409092 0.393651
vt 0.318182 0.393651
vt 0.863636 0.393651
vt 0.045455 0.393651
vt 0.681818 0.393651
vt 0.772727 0.393651
vt 0.500000 0.393651
vt 0.590909 0.393651
vt 0.272728 0.314921
vt 0.181819 0.314921
vt 0.227273 0.393651
vt 0.136365 0.393651
vt 0.090910 0.314921
s 0
f 1/1/1 14/26/1 13/24/1
f 2/6/2 14/25/2 16/28/2
f 1/2/3 13/23/3 18/32/3
f 1/3/4 18/31/4 20/35/4
f 1/4/5 20/34/5 17/29/5
f 2/6/6 16/28/6 23/38/6
f 3/8/7 15/27/7 25/40/7
f 4/9/8 19/33/8 27/42/8
f 5/10/9 21/36/9 29/45/9
f 6/11/10 22/37/10 31/47/10
f 2/6/11 23/38/11 26/41/11
f 3/8/12 25/40/12 28/43/12
f 4/9/13 27/42/13 30/46/13
f 5/10/14 29/45/14 32/48/14
f 6/11/15 31/47/15 24/39/15
f 34/50/16 7/12/16 44/65/16 46/68/16
f 8/13/17 34/50/17 40/59/17
f 9/15/18 35/51/18 41/61/18
f 10/16/19 36/52/19 42/63/19
f 11/17/20 37/53/20 39/56/20
f 39/56/21 42/62/21 12/18/21
f 39/56/22 37/53/22 42/62/22
f 37/53/23 10/16/23 42/62/23
f 42/63/24 41/60/24 12/19/24
f 42/63/25 36/52/25 41/60/25
f 36/52/26 9/15/26 41/60/26
f 41/61/27 40/58/27 12/20/27
f 41/61/28 35/51/28 40/58/28
f 35/51/29 8/14/29 40/58/29
f 40/59/30 38/55/30 12/21/30
f 40/59/31 34/50/31 38/55/31
f 7/12/32 33/49/32 43/64/32 44/65/32
f 38/54/33 39/57/33 12/22/33
f 38/54/34 33/49/34 39/57/34
f 33/49/35 11/17/35 39/57/35
f 24/39/36 37/53/36 11/17/36
f 24/39/37 31/47/37 37/53/37
f 31/47/38 10/16/38 37/53/38
f 32/48/39 36/52/39 10/16/39
f 32/48/40 29/45/40 36/52/40
f 29/45/41 9/15/41 36/52/41
f 30/46/42 35/51/42 9/15/42
f 30/46/43 27/42/43 35/51/43
f 27/42/44 8/14/44 35/51/44
f 28/43/45 34/50/45 8/13/45
f 28/43/46 25/40/46 34/50/46
f 25/40/47 7/12/47 34/50/47
f 26/41/48 33/49/48 7/12/48
f 26/41/49 23/38/49 33/49/49
f 23/38/50 11/17/50 33/49/50
f 31/47/51 32/48/51 10/16/51
f 31/47/52 22/37/52 32/48/52
f 22/37/53 5/10/53 32/48/53
f 29/45/54 30/46/54 9/15/54
f 29/45/55 21/36/55 30/46/55
f 21/36/56 4/9/56 30/46/56
f 27/42/57 28/44/57 8/14/57
f 27/42/58 19/33/58 28/44/58
f 19/33/59 3/7/59 28/44/59
f 25/40/60 26/41/60 7/12/60
f 25/40/61 15/27/61 26/41/61
f 15/27/62 2/6/62 26/41/62
f 23/38/63 24/39/63 11/17/63
f 23/38/64 16/28/64 24/39/64
f 16/28/65 6/11/65 24/39/65
f 17/29/66 22/37/66 6/11/66
f 17/29/67 20/34/67 22/37/67
f 20/34/68 5/10/68 22/37/68
f 20/35/69 21/36/69 5/10/69
f 20/35/70 18/31/70 21/36/70
f 18/31/71 4/9/71 21/36/71
f 18/32/72 19/33/72 4/9/72
f 18/32/73 13/23/73 19/33/73
f 13/23/74 3/7/74 19/33/74
f 16/28/75 17/30/75 6/11/75
f 16/28/76 14/25/76 17/30/76
f 14/25/77 1/5/77 17/30/77
f 13/24/78 15/27/78 3/8/78
f 13/24/79 14/26/79 15/27/79
f 14/26/80 2/6/80 15/27/80
f 44/65/81 43/64/81 45/66/81
f 46/68/82 44/65/82 45/67/82
f 33/49/83 38/54/83 45/66/83 43/64/83
f 38/55/84 34/50/84 46/68/84 45/67/84
