# Blender 3.5.1
# www.blender.org
mtllib rock.mtl
o Icosphere
v -0.041414 -1.029066 0.028670
v 0.723600 -0.447215 0.525720
v -0.276385 -0.447215 0.850640
v -0.946193 -0.483547 0.035837
v -0.358009 -0.504483 -1.207378
v 0.658301 -0.493029 -0.811110
v 0.234971 0.418149 0.879310
v -0.723600 0.447215 0.525720
v -0.923188 0.524525 -0.728076
v 0.245324 0.425416 -0.829138
v 0.829126 0.401401 -0.285390
v -0.208645 1.027487 -0.375927
vn 0.1960 -0.7731 0.6033
vn 0.6063 -0.7952 -0.0024
vn -0.4666 -0.7793 0.4183
vn -0.5044 -0.8337 -0.2246
vn 0.1747 -0.8895 -0.4222
vn 0.9857 -0.1632 -0.0426
vn 0.3022 -0.2094 0.9300
vn -0.7604 -0.1507 0.6318
vn -0.8676 -0.2876 -0.4056
vn 0.3581 0.1429 -0.9227
vn 0.8502 0.3046 0.4293
vn -0.3367 0.1682 0.9265
vn -0.9754 0.1468 0.1643
vn -0.0451 0.4014 -0.9148
vn 0.6599 0.2831 -0.6960
vn 0.4868 0.8410 0.2362
vn -0.1485 0.8680 0.4738
vn -0.6165 0.7737 0.1458
vn -0.0195 0.5919 -0.8058
vn 0.4823 0.7291 -0.4856
vt 0.181819 0.000000
vt 0.363637 0.000000
vt 0.909091 0.000000
vt 0.727273 0.000000
vt 0.545455 0.000000
vt 0.272728 0.157461
vt 1.000000 0.157461
vt 0.090910 0.157461
vt 0.818182 0.157461
vt 0.636364 0.157461
vt 0.454546 0.157461
vt 0.181819 0.314921
vt 0.000000 0.314921
vt 0.909091 0.314921
vt 0.727273 0.314921
vt 0.545455 0.314921
vt 0.363637 0.314921
vt 0.272728 0.472382
vt 0.090910 0.472382
vt 0.818182 0.472382
vt 0.636364 0.472382
vt 0.454546 0.472382
s 0
f 1/1/1 2/6/1 3/8/1
f 2/6/2 1/2/2 6/11/2
f 1/3/3 3/7/3 4/9/3
f 1/4/4 4/9/4 5/10/4
f 1/5/5 5/10/5 6/11/5
f 2/6/6 6/11/6 11/17/6
f 3/8/7 2/6/7 7/12/7
f 4/9/8 3/7/8 8/14/8
f 5/10/9 4/9/9 9/15/9
f 6/11/10 5/10/10 10/16/10
f 2/6/11 11/17/11 7/12/11
f 3/8/12 7/12/12 8/13/12
f 4/9/13 8/14/13 9/15/13
f 5/10/14 9/15/14 10/16/14
f 6/11/15 10/16/15 11/17/15
f 7/12/16 11/17/16 12/18/16
f 8/13/17 7/12/17 12/19/17
f 9/15/18 8/14/18 12/20/18
f 10/16/19 9/15/19 12/21/19
f 11/17/20 10/16/20 12/22/20
